<?xml version="1.0" encoding="utf-8" standalone="no"?>
<!DOCTYPE svg PUBLIC "-//W3C//DTD SVG 1.1//EN"
  "http://www.w3.org/Graphics/SVG/1.1/DTD/svg11.dtd">
<svg xmlns:xlink="http://www.w3.org/1999/xlink" width="720pt" height="720pt" viewBox="0 0 720 720" xmlns="http://www.w3.org/2000/svg" version="1.1">
 <metadata>
  <rdf:RDF xmlns:dc="http://purl.org/dc/elements/1.1/" xmlns:cc="http://creativecommons.org/ns#" xmlns:rdf="http://www.w3.org/1999/02/22-rdf-syntax-ns#">
   <cc:Work>
    <dc:type rdf:resource="http://purl.org/dc/dcmitype/StillImage"/>
    <dc:date>2023-07-11T11:04:30.354907</dc:date>
    <dc:format>image/svg+xml</dc:format>
    <dc:creator>
     <cc:Agent>
      <dc:title>Matplotlib v3.6.2, https://matplotlib.org/</dc:title>
     </cc:Agent>
    </dc:creator>
   </cc:Work>
  </rdf:RDF>
 </metadata>
 <defs>
  <style type="text/css">*{stroke-linejoin: round; stroke-linecap: butt}</style>
 </defs>
 <g id="figure_1">
  <g id="patch_1">
   <path d="M 0 720 
L 720 720 
L 720 0 
L 0 0 
z
" style="fill: #ffffff"/>
  </g>
  <g id="axes_1">
   <g id="line2d_1">
    <path d="M 360 162.12 
L 554.873758 394.361501 
" clip-path="url(#p37c147987f)" style="fill: none; stroke: #000000; stroke-width: 2; stroke-linecap: square"/>
   </g>
   <g id="line2d_2">
    <path d="M 554.873758 394.361501 
L 292.321054 545.946376 
" clip-path="url(#p37c147987f)" style="fill: none; stroke: #000000; stroke-opacity: 0.95; stroke-width: 2; stroke-linecap: square"/>
   </g>
   <g id="line2d_3">
    <path d="M 292.321054 545.946376 
L 188.630893 261.06 
" clip-path="url(#p37c147987f)" style="fill: none; stroke: #000000; stroke-opacity: 0.9; stroke-width: 2; stroke-linecap: square"/>
   </g>
   <g id="line2d_4">
    <path d="M 188.630893 261.06 
L 487.194812 208.415126 
" clip-path="url(#p37c147987f)" style="fill: none; stroke: #000000; stroke-opacity: 0.85; stroke-width: 2; stroke-linecap: square"/>
   </g>
   <g id="line2d_5">
    <path d="M 487.194812 208.415126 
L 487.194812 511.584874 
" clip-path="url(#p37c147987f)" style="fill: none; stroke: #000000; stroke-opacity: 0.8; stroke-width: 2; stroke-linecap: square"/>
   </g>
   <g id="line2d_6">
    <path d="M 487.194812 511.584874 
L 188.630893 458.94 
" clip-path="url(#p37c147987f)" style="fill: none; stroke: #000000; stroke-opacity: 0.75; stroke-width: 2; stroke-linecap: square"/>
   </g>
   <g id="line2d_7">
    <path d="M 188.630893 458.94 
L 292.321054 174.053624 
" clip-path="url(#p37c147987f)" style="fill: none; stroke: #000000; stroke-opacity: 0.7; stroke-width: 2; stroke-linecap: square"/>
   </g>
   <g id="line2d_8">
    <path d="M 292.321054 174.053624 
L 554.873758 325.638499 
" clip-path="url(#p37c147987f)" style="fill: none; stroke: #000000; stroke-opacity: 0.65; stroke-width: 2; stroke-linecap: square"/>
   </g>
   <g id="line2d_9">
    <path d="M 554.873758 325.638499 
L 360 557.88 
" clip-path="url(#p37c147987f)" style="fill: none; stroke: #000000; stroke-opacity: 0.6; stroke-width: 2; stroke-linecap: square"/>
   </g>
   <g id="line2d_10">
    <path d="M 360 557.88 
L 165.126242 325.638499 
" clip-path="url(#p37c147987f)" style="fill: none; stroke: #000000; stroke-opacity: 0.55; stroke-width: 2; stroke-linecap: square"/>
   </g>
   <g id="line2d_11">
    <path d="M 165.126242 325.638499 
L 427.678946 174.053624 
" clip-path="url(#p37c147987f)" style="fill: none; stroke: #000000; stroke-opacity: 0.5; stroke-width: 2; stroke-linecap: square"/>
   </g>
   <g id="line2d_12">
    <path d="M 427.678946 174.053624 
L 531.369107 458.94 
" clip-path="url(#p37c147987f)" style="fill: none; stroke: #000000; stroke-opacity: 0.45; stroke-width: 2; stroke-linecap: square"/>
   </g>
   <g id="line2d_13">
    <path d="M 531.369107 458.94 
L 232.805188 511.584874 
" clip-path="url(#p37c147987f)" style="fill: none; stroke: #000000; stroke-opacity: 0.4; stroke-width: 2; stroke-linecap: square"/>
   </g>
   <g id="line2d_14">
    <path d="M 232.805188 511.584874 
L 232.805188 208.415126 
" clip-path="url(#p37c147987f)" style="fill: none; stroke: #000000; stroke-opacity: 0.35; stroke-width: 2; stroke-linecap: square"/>
   </g>
   <g id="line2d_15">
    <path d="M 232.805188 208.415126 
L 531.369107 261.06 
" clip-path="url(#p37c147987f)" style="fill: none; stroke: #000000; stroke-opacity: 0.3; stroke-width: 2; stroke-linecap: square"/>
   </g>
   <g id="line2d_16">
    <path d="M 531.369107 261.06 
L 427.678946 545.946376 
" clip-path="url(#p37c147987f)" style="fill: none; stroke: #000000; stroke-opacity: 0.25; stroke-width: 2; stroke-linecap: square"/>
   </g>
   <g id="line2d_17">
    <path d="M 427.678946 545.946376 
L 165.126242 394.361501 
" clip-path="url(#p37c147987f)" style="fill: none; stroke: #000000; stroke-opacity: 0.2; stroke-width: 2; stroke-linecap: square"/>
   </g>
   <g id="patch_2">
    <path d="M 360 159.792 
C 368.643499 159.792 376.934147 156.357901 383.046024 150.246024 
C 389.157901 144.134147 392.592 135.843499 392.592 127.2 
C 392.592 118.556501 389.157901 110.265853 383.046024 104.153976 
C 376.934147 98.042099 368.643499 94.608 360 94.608 
C 351.356501 94.608 343.065853 98.042099 336.953976 104.153976 
C 330.842099 110.265853 327.408 118.556501 327.408 127.2 
C 327.408 135.843499 330.842099 144.134147 336.953976 150.246024 
C 343.065853 156.357901 351.356501 159.792 360 159.792 
z
" clip-path="url(#p37c147987f)" style="fill: #ff0000; opacity: 0.6; stroke: #ff0000; stroke-linejoin: miter"/>
   </g>
   <g id="patch_3">
    <path d="M 589.263245 433.017296 
C 597.906744 433.017296 606.197392 429.583197 612.309269 423.47132 
C 618.421146 417.359443 621.855245 409.068795 621.855245 400.425296 
C 621.855245 391.781796 618.421146 383.491149 612.309269 377.379272 
C 606.197392 371.267394 597.906744 367.833296 589.263245 367.833296 
C 580.619745 367.833296 572.329098 371.267394 566.217221 377.379272 
C 560.105344 383.491149 556.671245 391.781796 556.671245 400.425296 
C 556.671245 409.068795 560.105344 417.359443 566.217221 423.47132 
C 572.329098 429.583197 580.619745 433.017296 589.263245 433.017296 
z
" clip-path="url(#p37c147987f)" style="fill: #ff0000; opacity: 0.6; stroke: #ff0000; stroke-linejoin: miter"/>
   </g>
   <g id="patch_4">
    <path d="M 280.377711 611.352442 
C 289.02121 611.352442 297.311858 607.918343 303.423735 601.806466 
C 309.535612 595.694589 312.969711 587.403942 312.969711 578.760442 
C 312.969711 570.116943 309.535612 561.826295 303.423735 555.714418 
C 297.311858 549.602541 289.02121 546.168442 280.377711 546.168442 
C 271.734211 546.168442 263.443563 549.602541 257.331686 555.714418 
C 251.219809 561.826295 247.785711 570.116943 247.785711 578.760442 
C 247.785711 587.403942 251.219809 595.694589 257.331686 601.806466 
C 263.443563 607.918343 271.734211 611.352442 280.377711 611.352442 
z
" clip-path="url(#p37c147987f)" style="fill: #0000ff; opacity: 0.6; stroke: #0000ff; stroke-linejoin: miter"/>
   </g>
   <g id="patch_5">
    <path d="M 158.389286 276.192 
C 167.032785 276.192 175.323433 272.757901 181.43531 266.646024 
C 187.547187 260.534147 190.981286 252.243499 190.981286 243.6 
C 190.981286 234.956501 187.547187 226.665853 181.43531 220.553976 
C 175.323433 214.442099 167.032785 211.008 158.389286 211.008 
C 149.745787 211.008 141.455139 214.442099 135.343262 220.553976 
C 129.231385 226.665853 125.797286 234.956501 125.797286 243.6 
C 125.797286 252.243499 129.231385 260.534147 135.343262 266.646024 
C 141.455139 272.757901 149.745787 276.192 158.389286 276.192 
z
" clip-path="url(#p37c147987f)" style="fill: #ff0000; opacity: 0.6; stroke: #ff0000; stroke-linejoin: miter"/>
   </g>
   <g id="patch_6">
    <path d="M 509.640956 214.256854 
C 518.284455 214.256854 526.575103 210.822755 532.68698 204.710878 
C 538.798857 198.599001 542.232956 190.308353 542.232956 181.664854 
C 542.232956 173.021354 538.798857 164.730706 532.68698 158.618829 
C 526.575103 152.506952 518.284455 149.072854 509.640956 149.072854 
C 500.997456 149.072854 492.706808 152.506952 486.594931 158.618829 
C 480.483054 164.730706 477.048956 173.021354 477.048956 181.664854 
C 477.048956 190.308353 480.483054 198.599001 486.594931 204.710878 
C 492.706808 210.822755 500.997456 214.256854 509.640956 214.256854 
z
" clip-path="url(#p37c147987f)" style="fill: #ff0000; opacity: 0.6; stroke: #ff0000; stroke-linejoin: miter"/>
   </g>
   <g id="patch_7">
    <path d="M 509.640956 570.927146 
C 518.284455 570.927146 526.575103 567.493048 532.68698 561.381171 
C 538.798857 555.269294 542.232956 546.978646 542.232956 538.335146 
C 542.232956 529.691647 538.798857 521.400999 532.68698 515.289122 
C 526.575103 509.177245 518.284455 505.743146 509.640956 505.743146 
C 500.997456 505.743146 492.706808 509.177245 486.594931 515.289122 
C 480.483054 521.400999 477.048956 529.691647 477.048956 538.335146 
C 477.048956 546.978646 480.483054 555.269294 486.594931 561.381171 
C 492.706808 567.493048 500.997456 570.927146 509.640956 570.927146 
z
" clip-path="url(#p37c147987f)" style="fill: #ff0000; opacity: 0.6; stroke: #ff0000; stroke-linejoin: miter"/>
   </g>
   <g id="patch_8">
    <path d="M 158.389286 508.992 
C 167.032785 508.992 175.323433 505.557901 181.43531 499.446024 
C 187.547187 493.334147 190.981286 485.043499 190.981286 476.4 
C 190.981286 467.756501 187.547187 459.465853 181.43531 453.353976 
C 175.323433 447.242099 167.032785 443.808 158.389286 443.808 
C 149.745787 443.808 141.455139 447.242099 135.343262 453.353976 
C 129.231385 459.465853 125.797286 467.756501 125.797286 476.4 
C 125.797286 485.043499 129.231385 493.334147 135.343262 499.446024 
C 141.455139 505.557901 149.745787 508.992 158.389286 508.992 
z
" clip-path="url(#p37c147987f)" style="fill: #1e90ff; opacity: 0.6; stroke: #1e90ff; stroke-linejoin: miter"/>
   </g>
   <g id="patch_9">
    <path d="M 280.377711 173.831558 
C 289.02121 173.831558 297.311858 170.397459 303.423735 164.285582 
C 309.535612 158.173705 312.969711 149.883057 312.969711 141.239558 
C 312.969711 132.596058 309.535612 124.305411 303.423735 118.193534 
C 297.311858 112.081657 289.02121 108.647558 280.377711 108.647558 
C 271.734211 108.647558 263.443563 112.081657 257.331686 118.193534 
C 251.219809 124.305411 247.785711 132.596058 247.785711 141.239558 
C 247.785711 149.883057 251.219809 158.173705 257.331686 164.285582 
C 263.443563 170.397459 271.734211 173.831558 280.377711 173.831558 
z
" clip-path="url(#p37c147987f)" style="fill: #ff0000; opacity: 0.6; stroke: #ff0000; stroke-linejoin: miter"/>
   </g>
   <g id="patch_10">
    <path d="M 589.263245 352.166704 
C 597.906744 352.166704 606.197392 348.732606 612.309269 342.620728 
C 618.421146 336.508851 621.855245 328.218204 621.855245 319.574704 
C 621.855245 310.931205 618.421146 302.640557 612.309269 296.52868 
C 606.197392 290.416803 597.906744 286.982704 589.263245 286.982704 
C 580.619745 286.982704 572.329098 290.416803 566.217221 296.52868 
C 560.105344 302.640557 556.671245 310.931205 556.671245 319.574704 
C 556.671245 328.218204 560.105344 336.508851 566.217221 342.620728 
C 572.329098 348.732606 580.619745 352.166704 589.263245 352.166704 
z
" clip-path="url(#p37c147987f)" style="fill: #ff0000; opacity: 0.6; stroke: #ff0000; stroke-linejoin: miter"/>
   </g>
   <g id="patch_11">
    <path d="M 360 625.392 
C 368.643499 625.392 376.934147 621.957901 383.046024 615.846024 
C 389.157901 609.734147 392.592 601.443499 392.592 592.8 
C 392.592 584.156501 389.157901 575.865853 383.046024 569.753976 
C 376.934147 563.642099 368.643499 560.208 360 560.208 
C 351.356501 560.208 343.065853 563.642099 336.953976 569.753976 
C 330.842099 575.865853 327.408 584.156501 327.408 592.8 
C 327.408 601.443499 330.842099 609.734147 336.953976 615.846024 
C 343.065853 621.957901 351.356501 625.392 360 625.392 
z
" clip-path="url(#p37c147987f)" style="fill: #0000ff; opacity: 0.6; stroke: #0000ff; stroke-linejoin: miter"/>
   </g>
   <g id="patch_12">
    <path d="M 130.736755 352.166704 
C 139.380255 352.166704 147.670902 348.732606 153.782779 342.620728 
C 159.894656 336.508851 163.328755 328.218204 163.328755 319.574704 
C 163.328755 310.931205 159.894656 302.640557 153.782779 296.52868 
C 147.670902 290.416803 139.380255 286.982704 130.736755 286.982704 
C 122.093256 286.982704 113.802608 290.416803 107.690731 296.52868 
C 101.578854 302.640557 98.144755 310.931205 98.144755 319.574704 
C 98.144755 328.218204 101.578854 336.508851 107.690731 342.620728 
C 113.802608 348.732606 122.093256 352.166704 130.736755 352.166704 
z
" clip-path="url(#p37c147987f)" style="fill: #808080; opacity: 0.6; stroke: #808080; stroke-linejoin: miter"/>
   </g>
   <g id="patch_13">
    <path d="M 439.622289 173.831558 
C 448.265789 173.831558 456.556437 170.397459 462.668314 164.285582 
C 468.780191 158.173705 472.214289 149.883057 472.214289 141.239558 
C 472.214289 132.596058 468.780191 124.305411 462.668314 118.193534 
C 456.556437 112.081657 448.265789 108.647558 439.622289 108.647558 
C 430.97879 108.647558 422.688142 112.081657 416.576265 118.193534 
C 410.464388 124.305411 407.030289 132.596058 407.030289 141.239558 
C 407.030289 149.883057 410.464388 158.173705 416.576265 164.285582 
C 422.688142 170.397459 430.97879 173.831558 439.622289 173.831558 
z
" clip-path="url(#p37c147987f)" style="fill: #808080; opacity: 0.6; stroke: #808080; stroke-linejoin: miter"/>
   </g>
   <g id="patch_14">
    <path d="M 561.610714 508.992 
C 570.254213 508.992 578.544861 505.557901 584.656738 499.446024 
C 590.768615 493.334147 594.202714 485.043499 594.202714 476.4 
C 594.202714 467.756501 590.768615 459.465853 584.656738 453.353976 
C 578.544861 447.242099 570.254213 443.808 561.610714 443.808 
C 552.967215 443.808 544.676567 447.242099 538.56469 453.353976 
C 532.452813 459.465853 529.018714 467.756501 529.018714 476.4 
C 529.018714 485.043499 532.452813 493.334147 538.56469 499.446024 
C 544.676567 505.557901 552.967215 508.992 561.610714 508.992 
z
" clip-path="url(#p37c147987f)" style="fill: #808080; opacity: 0.6; stroke: #808080; stroke-linejoin: miter"/>
   </g>
   <g id="patch_15">
    <path d="M 210.359044 570.927146 
C 219.002544 570.927146 227.293192 567.493048 233.405069 561.381171 
C 239.516946 555.269294 242.951044 546.978646 242.951044 538.335146 
C 242.951044 529.691647 239.516946 521.400999 233.405069 515.289122 
C 227.293192 509.177245 219.002544 505.743146 210.359044 505.743146 
C 201.715545 505.743146 193.424897 509.177245 187.31302 515.289122 
C 181.201143 521.400999 177.767044 529.691647 177.767044 538.335146 
C 177.767044 546.978646 181.201143 555.269294 187.31302 561.381171 
C 193.424897 567.493048 201.715545 570.927146 210.359044 570.927146 
z
" clip-path="url(#p37c147987f)" style="fill: #32cd32; opacity: 0.6; stroke: #32cd32; stroke-linejoin: miter"/>
   </g>
   <g id="patch_16">
    <path d="M 210.359044 214.256854 
C 219.002544 214.256854 227.293192 210.822755 233.405069 204.710878 
C 239.516946 198.599001 242.951044 190.308353 242.951044 181.664854 
C 242.951044 173.021354 239.516946 164.730706 233.405069 158.618829 
C 227.293192 152.506952 219.002544 149.072854 210.359044 149.072854 
C 201.715545 149.072854 193.424897 152.506952 187.31302 158.618829 
C 181.201143 164.730706 177.767044 173.021354 177.767044 181.664854 
C 177.767044 190.308353 181.201143 198.599001 187.31302 204.710878 
C 193.424897 210.822755 201.715545 214.256854 210.359044 214.256854 
z
" clip-path="url(#p37c147987f)" style="fill: #808080; opacity: 0.6; stroke: #808080; stroke-linejoin: miter"/>
   </g>
   <g id="patch_17">
    <path d="M 561.610714 276.192 
C 570.254213 276.192 578.544861 272.757901 584.656738 266.646024 
C 590.768615 260.534147 594.202714 252.243499 594.202714 243.6 
C 594.202714 234.956501 590.768615 226.665853 584.656738 220.553976 
C 578.544861 214.442099 570.254213 211.008 561.610714 211.008 
C 552.967215 211.008 544.676567 214.442099 538.56469 220.553976 
C 532.452813 226.665853 529.018714 234.956501 529.018714 243.6 
C 529.018714 252.243499 532.452813 260.534147 538.56469 266.646024 
C 544.676567 272.757901 552.967215 276.192 561.610714 276.192 
z
" clip-path="url(#p37c147987f)" style="fill: #808080; opacity: 0.6; stroke: #808080; stroke-linejoin: miter"/>
   </g>
   <g id="patch_18">
    <path d="M 439.622289 611.352442 
C 448.265789 611.352442 456.556437 607.918343 462.668314 601.806466 
C 468.780191 595.694589 472.214289 587.403942 472.214289 578.760442 
C 472.214289 570.116943 468.780191 561.826295 462.668314 555.714418 
C 456.556437 549.602541 448.265789 546.168442 439.622289 546.168442 
C 430.97879 546.168442 422.688142 549.602541 416.576265 555.714418 
C 410.464388 561.826295 407.030289 570.116943 407.030289 578.760442 
C 407.030289 587.403942 410.464388 595.694589 416.576265 601.806466 
C 422.688142 607.918343 430.97879 611.352442 439.622289 611.352442 
z
" clip-path="url(#p37c147987f)" style="fill: #808080; opacity: 0.6; stroke: #808080; stroke-linejoin: miter"/>
   </g>
   <g id="patch_19">
    <path d="M 130.736755 433.017296 
C 139.380255 433.017296 147.670902 429.583197 153.782779 423.47132 
C 159.894656 417.359443 163.328755 409.068795 163.328755 400.425296 
C 163.328755 391.781796 159.894656 383.491149 153.782779 377.379272 
C 147.670902 371.267394 139.380255 367.833296 130.736755 367.833296 
C 122.093256 367.833296 113.802608 371.267394 107.690731 377.379272 
C 101.578854 383.491149 98.144755 391.781796 98.144755 400.425296 
C 98.144755 409.068795 101.578854 417.359443 107.690731 423.47132 
C 113.802608 429.583197 122.093256 433.017296 130.736755 433.017296 
z
" clip-path="url(#p37c147987f)" style="fill: #ff0000; opacity: 0.6; stroke: #ff0000; stroke-linejoin: miter"/>
   </g>
   <g id="patch_20">
    <path d="M 360 85.296 
C 368.643499 85.296 376.934147 81.861901 383.046024 75.750024 
C 389.157901 69.638147 392.592 61.347499 392.592 52.704 
C 392.592 44.060501 389.157901 35.769853 383.046024 29.657976 
C 376.934147 23.546099 368.643499 20.112 360 20.112 
C 351.356501 20.112 343.065853 23.546099 336.953976 29.657976 
C 330.842099 35.769853 327.408 44.060501 327.408 52.704 
C 327.408 61.347499 330.842099 69.638147 336.953976 75.750024 
C 343.065853 81.861901 351.356501 85.296 360 85.296 
z
" clip-path="url(#p37c147987f)" style="fill: #32cd32; opacity: 0.6; stroke: #32cd32; stroke-linejoin: miter"/>
   </g>
   <g id="patch_21">
    <path d="M 662.627483 445.95339 
C 671.270983 445.95339 679.56163 442.519292 685.673507 436.407415 
C 691.785385 430.295538 695.219483 422.00489 695.219483 413.36139 
C 695.219483 404.717891 691.785385 396.427243 685.673507 390.315366 
C 679.56163 384.203489 671.270983 380.76939 662.627483 380.76939 
C 653.983984 380.76939 645.693336 384.203489 639.581459 390.315366 
C 633.469582 396.427243 630.035483 404.717891 630.035483 413.36139 
C 630.035483 422.00489 633.469582 430.295538 639.581459 436.407415 
C 645.693336 442.519292 653.983984 445.95339 662.627483 445.95339 
z
" clip-path="url(#p37c147987f)" style="fill: #32cd32; opacity: 0.6; stroke: #32cd32; stroke-linejoin: miter"/>
   </g>
   <g id="text_1">
    <!-- A -->
    <g transform="translate(349.739063 131.986125) scale(0.3 -0.3)">
     <defs>
      <path id="DejaVuSans-41" d="M 2188 4044 
L 1331 1722 
L 3047 1722 
L 2188 4044 
z
M 1831 4666 
L 2547 4666 
L 4325 0 
L 3669 0 
L 3244 1197 
L 1141 1197 
L 716 0 
L 50 0 
L 1831 4666 
z
" transform="scale(0.015625)"/>
     </defs>
     <use xlink:href="#DejaVuSans-41"/>
    </g>
   </g>
   <g id="text_2">
    <!-- 1 -->
    <g transform="translate(356.1825 151.46325) scale(0.12 -0.12)">
     <defs>
      <path id="DejaVuSans-31" d="M 794 531 
L 1825 531 
L 1825 4091 
L 703 3866 
L 703 4441 
L 1819 4666 
L 2450 4666 
L 2450 531 
L 3481 531 
L 3481 0 
L 794 0 
L 794 531 
z
" transform="scale(0.015625)"/>
     </defs>
     <use xlink:href="#DejaVuSans-31"/>
    </g>
   </g>
   <g id="text_3">
    <!-- V -->
    <g transform="translate(579.002307 405.211421) scale(0.3 -0.3)">
     <defs>
      <path id="DejaVuSans-56" d="M 1831 0 
L 50 4666 
L 709 4666 
L 2188 738 
L 3669 4666 
L 4325 4666 
L 2547 0 
L 1831 0 
z
" transform="scale(0.015625)"/>
     </defs>
     <use xlink:href="#DejaVuSans-56"/>
    </g>
   </g>
   <g id="text_4">
    <!-- 2 -->
    <g transform="translate(585.445745 424.688546) scale(0.12 -0.12)">
     <defs>
      <path id="DejaVuSans-32" d="M 1228 531 
L 3431 531 
L 3431 0 
L 469 0 
L 469 531 
Q 828 903 1448 1529 
Q 2069 2156 2228 2338 
Q 2531 2678 2651 2914 
Q 2772 3150 2772 3378 
Q 2772 3750 2511 3984 
Q 2250 4219 1831 4219 
Q 1534 4219 1204 4116 
Q 875 4013 500 3803 
L 500 4441 
Q 881 4594 1212 4672 
Q 1544 4750 1819 4750 
Q 2544 4750 2975 4387 
Q 3406 4025 3406 3419 
Q 3406 3131 3298 2873 
Q 3191 2616 2906 2266 
Q 2828 2175 2409 1742 
Q 1991 1309 1228 531 
z
" transform="scale(0.015625)"/>
     </defs>
     <use xlink:href="#DejaVuSans-32"/>
    </g>
   </g>
   <g id="text_5">
    <!-- R -->
    <g transform="translate(269.955054 583.546567) scale(0.3 -0.3)">
     <defs>
      <path id="DejaVuSans-52" d="M 2841 2188 
Q 3044 2119 3236 1894 
Q 3428 1669 3622 1275 
L 4263 0 
L 3584 0 
L 2988 1197 
Q 2756 1666 2539 1819 
Q 2322 1972 1947 1972 
L 1259 1972 
L 1259 0 
L 628 0 
L 628 4666 
L 2053 4666 
Q 2853 4666 3247 4331 
Q 3641 3997 3641 3322 
Q 3641 2881 3436 2590 
Q 3231 2300 2841 2188 
z
M 1259 4147 
L 1259 2491 
L 2053 2491 
Q 2509 2491 2742 2702 
Q 2975 2913 2975 3322 
Q 2975 3731 2742 3939 
Q 2509 4147 2053 4147 
L 1259 4147 
z
" transform="scale(0.015625)"/>
     </defs>
     <use xlink:href="#DejaVuSans-52"/>
    </g>
   </g>
   <g id="text_6">
    <!-- 3 -->
    <g transform="translate(276.560211 603.023692) scale(0.12 -0.12)">
     <defs>
      <path id="DejaVuSans-33" d="M 2597 2516 
Q 3050 2419 3304 2112 
Q 3559 1806 3559 1356 
Q 3559 666 3084 287 
Q 2609 -91 1734 -91 
Q 1441 -91 1130 -33 
Q 819 25 488 141 
L 488 750 
Q 750 597 1062 519 
Q 1375 441 1716 441 
Q 2309 441 2620 675 
Q 2931 909 2931 1356 
Q 2931 1769 2642 2001 
Q 2353 2234 1838 2234 
L 1294 2234 
L 1294 2753 
L 1863 2753 
Q 2328 2753 2575 2939 
Q 2822 3125 2822 3475 
Q 2822 3834 2567 4026 
Q 2313 4219 1838 4219 
Q 1578 4219 1281 4162 
Q 984 4106 628 3988 
L 628 4550 
Q 988 4650 1302 4700 
Q 1616 4750 1894 4750 
Q 2613 4750 3031 4423 
Q 3450 4097 3450 3541 
Q 3450 3153 3228 2886 
Q 3006 2619 2597 2516 
z
" transform="scale(0.015625)"/>
     </defs>
     <use xlink:href="#DejaVuSans-33"/>
    </g>
   </g>
   <g id="text_7">
    <!-- L -->
    <g transform="translate(150.031473 248.386125) scale(0.3 -0.3)">
     <defs>
      <path id="DejaVuSans-4c" d="M 628 4666 
L 1259 4666 
L 1259 531 
L 3531 531 
L 3531 0 
L 628 0 
L 628 4666 
z
" transform="scale(0.015625)"/>
     </defs>
     <use xlink:href="#DejaVuSans-4c"/>
    </g>
   </g>
   <g id="text_8">
    <!-- 4 -->
    <g transform="translate(154.571786 267.86325) scale(0.12 -0.12)">
     <defs>
      <path id="DejaVuSans-34" d="M 2419 4116 
L 825 1625 
L 2419 1625 
L 2419 4116 
z
M 2253 4666 
L 3047 4666 
L 3047 1625 
L 3713 1625 
L 3713 1100 
L 3047 1100 
L 3047 0 
L 2419 0 
L 2419 1100 
L 313 1100 
L 313 1709 
L 2253 4666 
z
" transform="scale(0.015625)"/>
     </defs>
     <use xlink:href="#DejaVuSans-34"/>
    </g>
   </g>
   <g id="text_9">
    <!-- F -->
    <g transform="translate(501.013612 186.450979) scale(0.3 -0.3)">
     <defs>
      <path id="DejaVuSans-46" d="M 628 4666 
L 3309 4666 
L 3309 4134 
L 1259 4134 
L 1259 2759 
L 3109 2759 
L 3109 2228 
L 1259 2228 
L 1259 0 
L 628 0 
L 628 4666 
z
" transform="scale(0.015625)"/>
     </defs>
     <use xlink:href="#DejaVuSans-46"/>
    </g>
   </g>
   <g id="text_10">
    <!-- 5 -->
    <g transform="translate(505.823456 205.928104) scale(0.12 -0.12)">
     <defs>
      <path id="DejaVuSans-35" d="M 691 4666 
L 3169 4666 
L 3169 4134 
L 1269 4134 
L 1269 2991 
Q 1406 3038 1543 3061 
Q 1681 3084 1819 3084 
Q 2600 3084 3056 2656 
Q 3513 2228 3513 1497 
Q 3513 744 3044 326 
Q 2575 -91 1722 -91 
Q 1428 -91 1123 -41 
Q 819 9 494 109 
L 494 744 
Q 775 591 1075 516 
Q 1375 441 1709 441 
Q 2250 441 2565 725 
Q 2881 1009 2881 1497 
Q 2881 1984 2565 2268 
Q 2250 2553 1709 2553 
Q 1456 2553 1204 2497 
Q 953 2441 691 2322 
L 691 4666 
z
" transform="scale(0.015625)"/>
     </defs>
     <use xlink:href="#DejaVuSans-35"/>
    </g>
   </g>
   <g id="text_11">
    <!-- I -->
    <g transform="translate(505.215956 543.121271) scale(0.3 -0.3)">
     <defs>
      <path id="DejaVuSans-49" d="M 628 4666 
L 1259 4666 
L 1259 0 
L 628 0 
L 628 4666 
z
" transform="scale(0.015625)"/>
     </defs>
     <use xlink:href="#DejaVuSans-49"/>
    </g>
   </g>
   <g id="text_12">
    <!-- 6 -->
    <g transform="translate(505.823456 562.598396) scale(0.12 -0.12)">
     <defs>
      <path id="DejaVuSans-36" d="M 2113 2584 
Q 1688 2584 1439 2293 
Q 1191 2003 1191 1497 
Q 1191 994 1439 701 
Q 1688 409 2113 409 
Q 2538 409 2786 701 
Q 3034 994 3034 1497 
Q 3034 2003 2786 2293 
Q 2538 2584 2113 2584 
z
M 3366 4563 
L 3366 3988 
Q 3128 4100 2886 4159 
Q 2644 4219 2406 4219 
Q 1781 4219 1451 3797 
Q 1122 3375 1075 2522 
Q 1259 2794 1537 2939 
Q 1816 3084 2150 3084 
Q 2853 3084 3261 2657 
Q 3669 2231 3669 1497 
Q 3669 778 3244 343 
Q 2819 -91 2113 -91 
Q 1303 -91 875 529 
Q 447 1150 447 2328 
Q 447 3434 972 4092 
Q 1497 4750 2381 4750 
Q 2619 4750 2861 4703 
Q 3103 4656 3366 4563 
z
" transform="scale(0.015625)"/>
     </defs>
     <use xlink:href="#DejaVuSans-36"/>
    </g>
   </g>
   <g id="text_13">
    <!-- E -->
    <g transform="translate(148.911161 481.186125) scale(0.3 -0.3)">
     <defs>
      <path id="DejaVuSans-45" d="M 628 4666 
L 3578 4666 
L 3578 4134 
L 1259 4134 
L 1259 2753 
L 3481 2753 
L 3481 2222 
L 1259 2222 
L 1259 531 
L 3634 531 
L 3634 0 
L 628 0 
L 628 4666 
z
" transform="scale(0.015625)"/>
     </defs>
     <use xlink:href="#DejaVuSans-45"/>
    </g>
   </g>
   <g id="text_14">
    <!-- 7 -->
    <g transform="translate(154.571786 500.66325) scale(0.12 -0.12)">
     <defs>
      <path id="DejaVuSans-37" d="M 525 4666 
L 3525 4666 
L 3525 4397 
L 1831 0 
L 1172 0 
L 2766 4134 
L 525 4134 
L 525 4666 
z
" transform="scale(0.015625)"/>
     </defs>
     <use xlink:href="#DejaVuSans-37"/>
    </g>
   </g>
   <g id="text_15">
    <!-- W -->
    <g transform="translate(265.546461 146.025683) scale(0.3 -0.3)">
     <defs>
      <path id="DejaVuSans-57" d="M 213 4666 
L 850 4666 
L 1831 722 
L 2809 4666 
L 3519 4666 
L 4500 722 
L 5478 4666 
L 6119 4666 
L 4947 0 
L 4153 0 
L 3169 4050 
L 2175 0 
L 1381 0 
L 213 4666 
z
" transform="scale(0.015625)"/>
     </defs>
     <use xlink:href="#DejaVuSans-57"/>
    </g>
   </g>
   <g id="text_16">
    <!-- 8 -->
    <g transform="translate(276.560211 165.502808) scale(0.12 -0.12)">
     <defs>
      <path id="DejaVuSans-38" d="M 2034 2216 
Q 1584 2216 1326 1975 
Q 1069 1734 1069 1313 
Q 1069 891 1326 650 
Q 1584 409 2034 409 
Q 2484 409 2743 651 
Q 3003 894 3003 1313 
Q 3003 1734 2745 1975 
Q 2488 2216 2034 2216 
z
M 1403 2484 
Q 997 2584 770 2862 
Q 544 3141 544 3541 
Q 544 4100 942 4425 
Q 1341 4750 2034 4750 
Q 2731 4750 3128 4425 
Q 3525 4100 3525 3541 
Q 3525 3141 3298 2862 
Q 3072 2584 2669 2484 
Q 3125 2378 3379 2068 
Q 3634 1759 3634 1313 
Q 3634 634 3220 271 
Q 2806 -91 2034 -91 
Q 1263 -91 848 271 
Q 434 634 434 1313 
Q 434 1759 690 2068 
Q 947 2378 1403 2484 
z
M 1172 3481 
Q 1172 3119 1398 2916 
Q 1625 2713 2034 2713 
Q 2441 2713 2670 2916 
Q 2900 3119 2900 3481 
Q 2900 3844 2670 4047 
Q 2441 4250 2034 4250 
Q 1625 4250 1398 4047 
Q 1172 3844 1172 3481 
z
" transform="scale(0.015625)"/>
     </defs>
     <use xlink:href="#DejaVuSans-38"/>
    </g>
   </g>
   <g id="text_17">
    <!-- L -->
    <g transform="translate(580.905432 324.360829) scale(0.3 -0.3)">
     <use xlink:href="#DejaVuSans-4c"/>
    </g>
   </g>
   <g id="text_18">
    <!-- 9 -->
    <g transform="translate(585.445745 343.837954) scale(0.12 -0.12)">
     <defs>
      <path id="DejaVuSans-39" d="M 703 97 
L 703 672 
Q 941 559 1184 500 
Q 1428 441 1663 441 
Q 2288 441 2617 861 
Q 2947 1281 2994 2138 
Q 2813 1869 2534 1725 
Q 2256 1581 1919 1581 
Q 1219 1581 811 2004 
Q 403 2428 403 3163 
Q 403 3881 828 4315 
Q 1253 4750 1959 4750 
Q 2769 4750 3195 4129 
Q 3622 3509 3622 2328 
Q 3622 1225 3098 567 
Q 2575 -91 1691 -91 
Q 1453 -91 1209 -44 
Q 966 3 703 97 
z
M 1959 2075 
Q 2384 2075 2632 2365 
Q 2881 2656 2881 3163 
Q 2881 3666 2632 3958 
Q 2384 4250 1959 4250 
Q 1534 4250 1286 3958 
Q 1038 3666 1038 3163 
Q 1038 2656 1286 2365 
Q 1534 2075 1959 2075 
z
" transform="scale(0.015625)"/>
     </defs>
     <use xlink:href="#DejaVuSans-39"/>
    </g>
   </g>
   <g id="text_19">
    <!-- K -->
    <g transform="translate(350.163281 597.586125) scale(0.3 -0.3)">
     <defs>
      <path id="DejaVuSans-4b" d="M 628 4666 
L 1259 4666 
L 1259 2694 
L 3353 4666 
L 4166 4666 
L 1850 2491 
L 4331 0 
L 3500 0 
L 1259 2247 
L 1259 0 
L 628 0 
L 628 4666 
z
" transform="scale(0.015625)"/>
     </defs>
     <use xlink:href="#DejaVuSans-4b"/>
    </g>
   </g>
   <g id="text_20">
    <!-- 10 -->
    <g transform="translate(352.365 617.06325) scale(0.12 -0.12)">
     <defs>
      <path id="DejaVuSans-30" d="M 2034 4250 
Q 1547 4250 1301 3770 
Q 1056 3291 1056 2328 
Q 1056 1369 1301 889 
Q 1547 409 2034 409 
Q 2525 409 2770 889 
Q 3016 1369 3016 2328 
Q 3016 3291 2770 3770 
Q 2525 4250 2034 4250 
z
M 2034 4750 
Q 2819 4750 3233 4129 
Q 3647 3509 3647 2328 
Q 3647 1150 3233 529 
Q 2819 -91 2034 -91 
Q 1250 -91 836 529 
Q 422 1150 422 2328 
Q 422 3509 836 4129 
Q 1250 4750 2034 4750 
z
" transform="scale(0.015625)"/>
     </defs>
     <use xlink:href="#DejaVuSans-31"/>
     <use xlink:href="#DejaVuSans-30" x="63.623047"/>
    </g>
   </g>
   <g id="text_21">
    <!-- N -->
    <g transform="translate(119.51488 324.360829) scale(0.3 -0.3)">
     <defs>
      <path id="DejaVuSans-4e" d="M 628 4666 
L 1478 4666 
L 3547 763 
L 3547 4666 
L 4159 4666 
L 4159 0 
L 3309 0 
L 1241 3903 
L 1241 0 
L 628 0 
L 628 4666 
z
" transform="scale(0.015625)"/>
     </defs>
     <use xlink:href="#DejaVuSans-4e"/>
    </g>
   </g>
   <g id="text_22">
    <!-- 11 -->
    <g transform="translate(123.101755 343.837954) scale(0.12 -0.12)">
     <use xlink:href="#DejaVuSans-31"/>
     <use xlink:href="#DejaVuSans-31" x="63.623047"/>
    </g>
   </g>
   <g id="text_23">
    <!-- G -->
    <g transform="translate(427.999633 146.025683) scale(0.3 -0.3)">
     <defs>
      <path id="DejaVuSans-47" d="M 3809 666 
L 3809 1919 
L 2778 1919 
L 2778 2438 
L 4434 2438 
L 4434 434 
Q 4069 175 3628 42 
Q 3188 -91 2688 -91 
Q 1594 -91 976 548 
Q 359 1188 359 2328 
Q 359 3472 976 4111 
Q 1594 4750 2688 4750 
Q 3144 4750 3555 4637 
Q 3966 4525 4313 4306 
L 4313 3634 
Q 3963 3931 3569 4081 
Q 3175 4231 2741 4231 
Q 1884 4231 1454 3753 
Q 1025 3275 1025 2328 
Q 1025 1384 1454 906 
Q 1884 428 2741 428 
Q 3075 428 3337 486 
Q 3600 544 3809 666 
z
" transform="scale(0.015625)"/>
     </defs>
     <use xlink:href="#DejaVuSans-47"/>
    </g>
   </g>
   <g id="text_24">
    <!-- 12 -->
    <g transform="translate(431.987289 165.502808) scale(0.12 -0.12)">
     <use xlink:href="#DejaVuSans-31"/>
     <use xlink:href="#DejaVuSans-32" x="63.623047"/>
    </g>
   </g>
   <g id="text_25">
    <!-- G -->
    <g transform="translate(549.988058 481.186125) scale(0.3 -0.3)">
     <use xlink:href="#DejaVuSans-47"/>
    </g>
   </g>
   <g id="text_26">
    <!-- 13 -->
    <g transform="translate(553.975714 500.66325) scale(0.12 -0.12)">
     <use xlink:href="#DejaVuSans-31"/>
     <use xlink:href="#DejaVuSans-33" x="63.623047"/>
    </g>
   </g>
   <g id="text_27">
    <!-- P -->
    <g transform="translate(201.314513 543.121271) scale(0.3 -0.3)">
     <defs>
      <path id="DejaVuSans-50" d="M 1259 4147 
L 1259 2394 
L 2053 2394 
Q 2494 2394 2734 2622 
Q 2975 2850 2975 3272 
Q 2975 3691 2734 3919 
Q 2494 4147 2053 4147 
L 1259 4147 
z
M 628 4666 
L 2053 4666 
Q 2838 4666 3239 4311 
Q 3641 3956 3641 3272 
Q 3641 2581 3239 2228 
Q 2838 1875 2053 1875 
L 1259 1875 
L 1259 0 
L 628 0 
L 628 4666 
z
" transform="scale(0.015625)"/>
     </defs>
     <use xlink:href="#DejaVuSans-50"/>
    </g>
   </g>
   <g id="text_28">
    <!-- 14 -->
    <g transform="translate(202.724044 562.598396) scale(0.12 -0.12)">
     <use xlink:href="#DejaVuSans-31"/>
     <use xlink:href="#DejaVuSans-34" x="63.623047"/>
    </g>
   </g>
   <g id="text_29">
    <!-- S -->
    <g transform="translate(200.836388 186.450979) scale(0.3 -0.3)">
     <defs>
      <path id="DejaVuSans-53" d="M 3425 4513 
L 3425 3897 
Q 3066 4069 2747 4153 
Q 2428 4238 2131 4238 
Q 1616 4238 1336 4038 
Q 1056 3838 1056 3469 
Q 1056 3159 1242 3001 
Q 1428 2844 1947 2747 
L 2328 2669 
Q 3034 2534 3370 2195 
Q 3706 1856 3706 1288 
Q 3706 609 3251 259 
Q 2797 -91 1919 -91 
Q 1588 -91 1214 -16 
Q 841 59 441 206 
L 441 856 
Q 825 641 1194 531 
Q 1563 422 1919 422 
Q 2459 422 2753 634 
Q 3047 847 3047 1241 
Q 3047 1584 2836 1778 
Q 2625 1972 2144 2069 
L 1759 2144 
Q 1053 2284 737 2584 
Q 422 2884 422 3419 
Q 422 4038 858 4394 
Q 1294 4750 2059 4750 
Q 2388 4750 2728 4690 
Q 3069 4631 3425 4513 
z
" transform="scale(0.015625)"/>
     </defs>
     <use xlink:href="#DejaVuSans-53"/>
    </g>
   </g>
   <g id="text_30">
    <!-- 15 -->
    <g transform="translate(202.724044 205.928104) scale(0.12 -0.12)">
     <use xlink:href="#DejaVuSans-31"/>
     <use xlink:href="#DejaVuSans-35" x="63.623047"/>
    </g>
   </g>
   <g id="text_31">
    <!-- S -->
    <g transform="translate(552.088058 248.386125) scale(0.3 -0.3)">
     <use xlink:href="#DejaVuSans-53"/>
    </g>
   </g>
   <g id="text_32">
    <!-- 16 -->
    <g transform="translate(553.975714 267.86325) scale(0.12 -0.12)">
     <use xlink:href="#DejaVuSans-31"/>
     <use xlink:href="#DejaVuSans-36" x="63.623047"/>
    </g>
   </g>
   <g id="text_33">
    <!-- G -->
    <g transform="translate(427.999633 583.546567) scale(0.3 -0.3)">
     <use xlink:href="#DejaVuSans-47"/>
    </g>
   </g>
   <g id="text_34">
    <!-- 17 -->
    <g transform="translate(431.987289 603.023692) scale(0.12 -0.12)">
     <use xlink:href="#DejaVuSans-31"/>
     <use xlink:href="#DejaVuSans-37" x="63.623047"/>
    </g>
   </g>
   <g id="text_35">
    <!-- A -->
    <g transform="translate(120.475818 405.211421) scale(0.3 -0.3)">
     <use xlink:href="#DejaVuSans-41"/>
    </g>
   </g>
   <g id="text_36">
    <!-- 18 -->
    <g transform="translate(123.101755 424.688546) scale(0.12 -0.12)">
     <use xlink:href="#DejaVuSans-31"/>
     <use xlink:href="#DejaVuSans-38" x="63.623047"/>
    </g>
   </g>
   <g id="text_37">
    <!-- P -->
    <g transform="translate(350.955469 57.490125) scale(0.3 -0.3)">
     <use xlink:href="#DejaVuSans-50"/>
    </g>
   </g>
   <g id="text_38">
    <!-- 19 -->
    <g transform="translate(352.365 76.96725) scale(0.12 -0.12)">
     <use xlink:href="#DejaVuSans-31"/>
     <use xlink:href="#DejaVuSans-39" x="63.623047"/>
    </g>
   </g>
   <g id="text_39">
    <!-- P -->
    <g transform="translate(653.582952 418.147515) scale(0.3 -0.3)">
     <use xlink:href="#DejaVuSans-50"/>
    </g>
   </g>
   <g id="text_40">
    <!-- 20 -->
    <g transform="translate(654.992483 437.62464) scale(0.12 -0.12)">
     <use xlink:href="#DejaVuSans-32"/>
     <use xlink:href="#DejaVuSans-30" x="63.623047"/>
    </g>
   </g>
  </g>
 </g>
 <defs>
  <clipPath id="p37c147987f">
   <rect x="10.8" y="10.8" width="698.4" height="698.4"/>
  </clipPath>
 </defs>
</svg>
