<?xml version="1.0" encoding="utf-8" standalone="no"?>
<!DOCTYPE svg PUBLIC "-//W3C//DTD SVG 1.1//EN"
  "http://www.w3.org/Graphics/SVG/1.1/DTD/svg11.dtd">
<svg xmlns:xlink="http://www.w3.org/1999/xlink" width="414.46375pt" height="310.86825pt" viewBox="0 0 414.46375 310.86825" xmlns="http://www.w3.org/2000/svg" version="1.1">
 <metadata>
  <rdf:RDF xmlns:dc="http://purl.org/dc/elements/1.1/" xmlns:cc="http://creativecommons.org/ns#" xmlns:rdf="http://www.w3.org/1999/02/22-rdf-syntax-ns#">
   <cc:Work>
    <dc:type rdf:resource="http://purl.org/dc/dcmitype/StillImage"/>
    <dc:date>2023-07-07T15:50:40.276434</dc:date>
    <dc:format>image/svg+xml</dc:format>
    <dc:creator>
     <cc:Agent>
      <dc:title>Matplotlib v3.7.1, https://matplotlib.org/</dc:title>
     </cc:Agent>
    </dc:creator>
   </cc:Work>
  </rdf:RDF>
 </metadata>
 <defs>
  <style type="text/css">*{stroke-linejoin: round; stroke-linecap: butt}</style>
 </defs>
 <g id="figure_1">
  <g id="patch_1">
   <path d="M 0 310.86825 
L 414.46375 310.86825 
L 414.46375 0 
L 0 0 
z
" style="fill: #ffffff"/>
  </g>
  <g id="axes_1">
   <g id="patch_2">
    <path d="M 50.14375 273.312 
L 407.26375 273.312 
L 407.26375 7.2 
L 50.14375 7.2 
z
" style="fill: #ffffff"/>
   </g>
   <g id="PolyCollection_1">
    <defs>
     <path id="m86ee460986" d="M 66.376477 -271.975705 
L 66.376477 -37.55625 
L 68.007907 -37.55625 
L 69.639337 -37.55625 
L 71.270767 -37.55625 
L 72.902197 -37.55625 
L 74.533627 -37.55625 
L 76.165057 -37.55625 
L 77.796486 -37.55625 
L 79.427916 -37.55625 
L 81.059346 -37.55625 
L 82.690776 -37.55625 
L 84.322206 -37.55625 
L 85.953636 -37.55625 
L 87.585066 -37.55625 
L 89.216496 -37.55625 
L 90.847925 -37.55625 
L 92.479355 -37.55625 
L 94.110785 -37.55625 
L 95.742215 -37.55625 
L 97.373645 -37.55625 
L 99.005075 -37.55625 
L 100.636505 -37.55625 
L 102.267935 -37.55625 
L 103.899364 -37.55625 
L 105.530794 -37.55625 
L 107.162224 -37.55625 
L 108.793654 -37.55625 
L 110.425084 -37.55625 
L 112.056514 -37.55625 
L 113.687944 -37.55625 
L 115.319374 -37.55625 
L 116.950803 -37.55625 
L 118.582233 -37.55625 
L 120.213663 -37.55625 
L 121.845093 -37.55625 
L 123.476523 -37.55625 
L 125.107953 -37.55625 
L 126.739383 -37.55625 
L 128.370813 -37.55625 
L 130.002242 -37.55625 
L 131.633672 -37.55625 
L 133.265102 -37.55625 
L 134.896532 -37.55625 
L 136.527962 -37.55625 
L 138.159392 -37.55625 
L 139.790822 -37.55625 
L 141.422252 -37.55625 
L 143.053681 -37.55625 
L 144.685111 -37.55625 
L 146.316541 -37.55625 
L 147.947971 -37.55625 
L 149.579401 -37.55625 
L 151.210831 -37.55625 
L 152.842261 -37.55625 
L 154.473691 -37.55625 
L 156.10512 -37.55625 
L 157.73655 -37.55625 
L 159.36798 -37.55625 
L 160.99941 -37.55625 
L 162.63084 -37.55625 
L 164.26227 -37.55625 
L 165.8937 -37.55625 
L 167.52513 -37.55625 
L 169.15656 -37.55625 
L 170.787989 -37.55625 
L 172.419419 -37.55625 
L 174.050849 -37.55625 
L 175.682279 -37.55625 
L 177.313709 -37.55625 
L 178.945139 -37.55625 
L 180.576569 -37.55625 
L 182.207999 -37.55625 
L 183.839428 -37.55625 
L 185.470858 -37.55625 
L 187.102288 -37.55625 
L 188.733718 -37.55625 
L 190.365148 -37.55625 
L 191.996578 -37.55625 
L 193.628008 -37.55625 
L 195.259438 -37.55625 
L 196.890867 -37.55625 
L 198.522297 -37.55625 
L 200.153727 -37.55625 
L 201.785157 -37.55625 
L 203.416587 -37.55625 
L 205.048017 -37.55625 
L 206.679447 -37.55625 
L 208.310877 -37.55625 
L 209.942306 -37.55625 
L 211.573736 -37.55625 
L 213.205166 -37.55625 
L 214.836596 -37.55625 
L 216.468026 -37.55625 
L 218.099456 -37.55625 
L 219.730886 -37.55625 
L 221.362316 -37.55625 
L 222.993745 -37.55625 
L 224.625175 -37.55625 
L 226.256605 -37.55625 
L 227.888035 -37.55625 
L 229.519465 -37.55625 
L 231.150895 -37.55625 
L 232.782325 -37.55625 
L 234.413755 -37.55625 
L 236.045184 -37.55625 
L 237.676614 -37.55625 
L 239.308044 -37.55625 
L 240.939474 -37.55625 
L 242.570904 -37.55625 
L 244.202334 -37.55625 
L 245.833764 -37.55625 
L 247.465194 -37.55625 
L 249.096623 -37.55625 
L 250.728053 -37.55625 
L 252.359483 -37.55625 
L 253.990913 -37.55625 
L 255.622343 -37.55625 
L 257.253773 -37.55625 
L 258.885203 -37.55625 
L 260.516633 -37.55625 
L 262.148062 -37.55625 
L 263.779492 -37.55625 
L 265.410922 -37.55625 
L 267.042352 -37.55625 
L 268.673782 -37.55625 
L 270.305212 -37.55625 
L 271.936642 -37.55625 
L 273.568072 -37.55625 
L 275.199501 -37.55625 
L 276.830931 -37.55625 
L 278.462361 -37.55625 
L 280.093791 -37.55625 
L 281.725221 -37.55625 
L 283.356651 -37.55625 
L 284.988081 -37.55625 
L 286.619511 -37.55625 
L 288.25094 -37.55625 
L 289.88237 -37.55625 
L 291.5138 -37.55625 
L 293.14523 -37.55625 
L 294.77666 -37.55625 
L 296.40809 -37.55625 
L 298.03952 -37.55625 
L 299.67095 -37.55625 
L 301.30238 -37.55625 
L 302.933809 -37.55625 
L 304.565239 -37.55625 
L 306.196669 -37.55625 
L 307.828099 -37.55625 
L 309.459529 -37.55625 
L 311.090959 -37.55625 
L 312.722389 -37.55625 
L 314.353819 -37.55625 
L 315.985248 -37.55625 
L 317.616678 -37.55625 
L 319.248108 -37.55625 
L 320.879538 -37.55625 
L 322.510968 -37.55625 
L 324.142398 -37.55625 
L 325.773828 -37.55625 
L 327.405258 -37.55625 
L 329.036687 -37.55625 
L 330.668117 -37.55625 
L 332.299547 -37.55625 
L 333.930977 -37.55625 
L 335.562407 -37.55625 
L 337.193837 -37.55625 
L 338.825267 -37.55625 
L 340.456697 -37.55625 
L 342.088126 -37.55625 
L 343.719556 -37.55625 
L 345.350986 -37.55625 
L 346.982416 -37.55625 
L 348.613846 -37.55625 
L 350.245276 -37.55625 
L 351.876706 -37.55625 
L 353.508136 -37.55625 
L 355.139565 -37.55625 
L 356.770995 -37.55625 
L 358.402425 -37.55625 
L 360.033855 -37.55625 
L 361.665285 -37.55625 
L 363.296715 -37.55625 
L 364.928145 -37.55625 
L 366.559575 -37.55625 
L 368.191004 -37.55625 
L 369.822434 -37.55625 
L 371.453864 -37.55625 
L 373.085294 -37.55625 
L 374.716724 -37.55625 
L 376.348154 -37.55625 
L 377.979584 -37.55625 
L 379.611014 -37.55625 
L 381.242443 -37.55625 
L 382.873873 -37.55625 
L 384.505303 -37.55625 
L 386.136733 -37.55625 
L 387.768163 -37.55625 
L 389.399593 -37.55625 
L 391.031023 -37.55625 
L 391.031023 -44.758284 
L 391.031023 -44.758284 
L 389.399593 -44.87412 
L 387.768163 -44.959029 
L 386.136733 -45.012265 
L 384.505303 -45.03355 
L 382.873873 -45.023079 
L 381.242443 -44.981523 
L 379.611014 -44.910012 
L 377.979584 -44.810115 
L 376.348154 -44.683803 
L 374.716724 -44.533417 
L 373.085294 -44.361609 
L 371.453864 -44.171295 
L 369.822434 -43.965591 
L 368.191004 -43.74775 
L 366.559575 -43.521099 
L 364.928145 -43.28897 
L 363.296715 -43.054639 
L 361.665285 -42.821261 
L 360.033855 -42.591814 
L 358.402425 -42.369041 
L 356.770995 -42.15541 
L 355.139565 -41.95307 
L 353.508136 -41.763818 
L 351.876706 -41.589078 
L 350.245276 -41.429883 
L 348.613846 -41.286873 
L 346.982416 -41.160296 
L 345.350986 -41.050017 
L 343.719556 -40.955544 
L 342.088126 -40.876055 
L 340.456697 -40.810427 
L 338.825267 -40.757288 
L 337.193837 -40.715056 
L 335.562407 -40.681992 
L 333.930977 -40.656255 
L 332.299547 -40.635956 
L 330.668117 -40.619213 
L 329.036687 -40.604207 
L 327.405258 -40.589228 
L 325.773828 -40.572729 
L 324.142398 -40.553364 
L 322.510968 -40.530029 
L 320.879538 -40.501888 
L 319.248108 -40.468399 
L 317.616678 -40.429327 
L 315.985248 -40.384755 
L 314.353819 -40.335081 
L 312.722389 -40.281014 
L 311.090959 -40.223554 
L 309.459529 -40.16398 
L 307.828099 -40.103814 
L 306.196669 -40.044797 
L 304.565239 -39.98885 
L 302.933809 -39.938036 
L 301.30238 -39.894522 
L 299.67095 -39.860534 
L 298.03952 -39.838317 
L 296.40809 -39.830092 
L 294.77666 -39.838016 
L 293.14523 -39.864143 
L 291.5138 -39.910386 
L 289.88237 -39.978487 
L 288.25094 -40.069978 
L 286.619511 -40.186165 
L 284.988081 -40.328093 
L 283.356651 -40.496535 
L 281.725221 -40.691969 
L 280.093791 -40.914575 
L 278.462361 -41.16422 
L 276.830931 -41.440459 
L 275.199501 -41.742537 
L 273.568072 -42.06939 
L 271.936642 -42.419661 
L 270.305212 -42.791706 
L 268.673782 -43.183615 
L 267.042352 -43.593229 
L 265.410922 -44.018164 
L 263.779492 -44.455834 
L 262.148062 -44.903476 
L 260.516633 -45.358182 
L 258.885203 -45.816924 
L 257.253773 -46.276587 
L 255.622343 -46.734002 
L 253.990913 -47.185974 
L 252.359483 -47.629317 
L 250.728053 -48.06089 
L 249.096623 -48.47763 
L 247.465194 -48.876587 
L 245.833764 -49.254964 
L 244.202334 -49.610154 
L 242.570904 -49.939779 
L 240.939474 -50.241734 
L 239.308044 -50.514225 
L 237.676614 -50.755813 
L 236.045184 -50.965456 
L 234.413755 -51.142549 
L 232.782325 -51.286963 
L 231.150895 -51.39908 
L 229.519465 -51.479824 
L 227.888035 -51.530683 
L 226.256605 -51.55373 
L 224.625175 -51.551628 
L 222.993745 -51.52763 
L 221.362316 -51.485567 
L 219.730886 -51.429819 
L 218.099456 -51.365285 
L 216.468026 -51.297328 
L 214.836596 -51.231716 
L 213.205166 -51.17455 
L 211.573736 -51.132178 
L 209.942306 -51.111104 
L 208.310877 -51.117885 
L 206.679447 -51.159026 
L 205.048017 -51.240871 
L 203.416587 -51.36949 
L 201.785157 -51.550572 
L 200.153727 -51.789314 
L 198.522297 -52.09033 
L 196.890867 -52.457554 
L 195.259438 -52.894163 
L 193.628008 -53.402517 
L 191.996578 -53.984104 
L 190.365148 -54.639514 
L 188.733718 -55.368424 
L 187.102288 -56.16961 
L 185.470858 -57.040976 
L 183.839428 -57.979603 
L 182.207999 -58.981828 
L 180.576569 -60.043335 
L 178.945139 -61.159271 
L 177.313709 -62.32438 
L 175.682279 -63.533152 
L 174.050849 -64.779985 
L 172.419419 -66.059366 
L 170.787989 -67.366045 
L 169.15656 -68.695228 
L 167.52513 -70.042757 
L 165.8937 -71.405293 
L 164.26227 -72.780484 
L 162.63084 -74.167126 
L 160.99941 -75.565294 
L 159.36798 -76.976463 
L 157.73655 -78.403598 
L 156.10512 -79.851212 
L 154.473691 -81.325396 
L 152.842261 -82.833818 
L 151.210831 -84.385684 
L 149.579401 -85.991671 
L 147.947971 -87.66382 
L 146.316541 -89.41541 
L 144.685111 -91.260793 
L 143.053681 -93.215215 
L 141.422252 -95.294608 
L 139.790822 -97.515372 
L 138.159392 -99.894142 
L 136.527962 -102.447547 
L 134.896532 -105.191964 
L 133.265102 -108.143273 
L 131.633672 -111.316604 
L 130.002242 -114.726098 
L 128.370813 -118.384655 
L 126.739383 -122.303696 
L 125.107953 -126.492911 
L 123.476523 -130.96002 
L 121.845093 -135.710509 
L 120.213663 -140.747378 
L 118.582233 -146.070865 
L 116.950803 -151.678164 
L 115.319374 -157.563135 
L 113.687944 -163.716004 
L 112.056514 -170.123056 
L 110.425084 -176.766339 
L 108.793654 -183.623378 
L 107.162224 -190.666909 
L 105.530794 -197.864664 
L 103.899364 -205.179207 
L 102.267935 -212.567845 
L 100.636505 -219.98264 
L 99.005075 -227.370524 
L 97.373645 -234.673556 
L 95.742215 -241.829316 
L 94.110785 -248.771457 
L 92.479355 -255.43042 
L 90.847925 -261.734306 
L 89.216496 -267.609913 
L 87.585066 -272.983902 
L 85.953636 -277.784097 
L 84.322206 -281.940863 
L 82.690776 -285.388557 
L 81.059346 -288.066987 
L 79.427916 -289.922855 
L 77.796486 -290.911121 
L 76.165057 -290.99625 
L 74.533627 -290.153304 
L 72.902197 -288.368815 
L 71.270767 -285.641431 
L 69.639337 -281.982275 
L 68.007907 -277.415029 
L 66.376477 -271.975705 
z
" style="stroke: #ffd700"/>
    </defs>
    <g clip-path="url(#p3cf5b820c6)">
     <use xlink:href="#m86ee460986" x="0" y="310.86825" style="fill: #ffd700; fill-opacity: 0.25; stroke: #ffd700"/>
    </g>
   </g>
   <g id="matplotlib.axis_1">
    <g id="xtick_1">
     <g id="line2d_1">
      <defs>
       <path id="mc2c460ff34" d="M 0 0 
L 0 3.5 
" style="stroke: #000000; stroke-width: 0.8"/>
      </defs>
      <g>
       <use xlink:href="#mc2c460ff34" x="58.553476" y="273.312" style="stroke: #000000; stroke-width: 0.8"/>
      </g>
     </g>
     <g id="text_1">
      <!-- 0 -->
      <g transform="translate(55.372226 287.910437) scale(0.1 -0.1)">
       <defs>
        <path id="DejaVuSans-30" d="M 2034 4250 
Q 1547 4250 1301 3770 
Q 1056 3291 1056 2328 
Q 1056 1369 1301 889 
Q 1547 409 2034 409 
Q 2525 409 2770 889 
Q 3016 1369 3016 2328 
Q 3016 3291 2770 3770 
Q 2525 4250 2034 4250 
z
M 2034 4750 
Q 2819 4750 3233 4129 
Q 3647 3509 3647 2328 
Q 3647 1150 3233 529 
Q 2819 -91 2034 -91 
Q 1250 -91 836 529 
Q 422 1150 422 2328 
Q 422 3509 836 4129 
Q 1250 4750 2034 4750 
z
" transform="scale(0.015625)"/>
       </defs>
       <use xlink:href="#DejaVuSans-30"/>
      </g>
     </g>
    </g>
    <g id="xtick_2">
     <g id="line2d_2">
      <g>
       <use xlink:href="#mc2c460ff34" x="136.783487" y="273.312" style="stroke: #000000; stroke-width: 0.8"/>
      </g>
     </g>
     <g id="text_2">
      <!-- 10 -->
      <g transform="translate(130.420987 287.910437) scale(0.1 -0.1)">
       <defs>
        <path id="DejaVuSans-31" d="M 794 531 
L 1825 531 
L 1825 4091 
L 703 3866 
L 703 4441 
L 1819 4666 
L 2450 4666 
L 2450 531 
L 3481 531 
L 3481 0 
L 794 0 
L 794 531 
z
" transform="scale(0.015625)"/>
       </defs>
       <use xlink:href="#DejaVuSans-31"/>
       <use xlink:href="#DejaVuSans-30" x="63.623047"/>
      </g>
     </g>
    </g>
    <g id="xtick_3">
     <g id="line2d_3">
      <g>
       <use xlink:href="#mc2c460ff34" x="215.013498" y="273.312" style="stroke: #000000; stroke-width: 0.8"/>
      </g>
     </g>
     <g id="text_3">
      <!-- 20 -->
      <g transform="translate(208.650998 287.910437) scale(0.1 -0.1)">
       <defs>
        <path id="DejaVuSans-32" d="M 1228 531 
L 3431 531 
L 3431 0 
L 469 0 
L 469 531 
Q 828 903 1448 1529 
Q 2069 2156 2228 2338 
Q 2531 2678 2651 2914 
Q 2772 3150 2772 3378 
Q 2772 3750 2511 3984 
Q 2250 4219 1831 4219 
Q 1534 4219 1204 4116 
Q 875 4013 500 3803 
L 500 4441 
Q 881 4594 1212 4672 
Q 1544 4750 1819 4750 
Q 2544 4750 2975 4387 
Q 3406 4025 3406 3419 
Q 3406 3131 3298 2873 
Q 3191 2616 2906 2266 
Q 2828 2175 2409 1742 
Q 1991 1309 1228 531 
z
" transform="scale(0.015625)"/>
       </defs>
       <use xlink:href="#DejaVuSans-32"/>
       <use xlink:href="#DejaVuSans-30" x="63.623047"/>
      </g>
     </g>
    </g>
    <g id="xtick_4">
     <g id="line2d_4">
      <g>
       <use xlink:href="#mc2c460ff34" x="293.243509" y="273.312" style="stroke: #000000; stroke-width: 0.8"/>
      </g>
     </g>
     <g id="text_4">
      <!-- 30 -->
      <g transform="translate(286.881009 287.910437) scale(0.1 -0.1)">
       <defs>
        <path id="DejaVuSans-33" d="M 2597 2516 
Q 3050 2419 3304 2112 
Q 3559 1806 3559 1356 
Q 3559 666 3084 287 
Q 2609 -91 1734 -91 
Q 1441 -91 1130 -33 
Q 819 25 488 141 
L 488 750 
Q 750 597 1062 519 
Q 1375 441 1716 441 
Q 2309 441 2620 675 
Q 2931 909 2931 1356 
Q 2931 1769 2642 2001 
Q 2353 2234 1838 2234 
L 1294 2234 
L 1294 2753 
L 1863 2753 
Q 2328 2753 2575 2939 
Q 2822 3125 2822 3475 
Q 2822 3834 2567 4026 
Q 2313 4219 1838 4219 
Q 1578 4219 1281 4162 
Q 984 4106 628 3988 
L 628 4550 
Q 988 4650 1302 4700 
Q 1616 4750 1894 4750 
Q 2613 4750 3031 4423 
Q 3450 4097 3450 3541 
Q 3450 3153 3228 2886 
Q 3006 2619 2597 2516 
z
" transform="scale(0.015625)"/>
       </defs>
       <use xlink:href="#DejaVuSans-33"/>
       <use xlink:href="#DejaVuSans-30" x="63.623047"/>
      </g>
     </g>
    </g>
    <g id="xtick_5">
     <g id="line2d_5">
      <g>
       <use xlink:href="#mc2c460ff34" x="371.47352" y="273.312" style="stroke: #000000; stroke-width: 0.8"/>
      </g>
     </g>
     <g id="text_5">
      <!-- 40 -->
      <g transform="translate(365.11102 287.910437) scale(0.1 -0.1)">
       <defs>
        <path id="DejaVuSans-34" d="M 2419 4116 
L 825 1625 
L 2419 1625 
L 2419 4116 
z
M 2253 4666 
L 3047 4666 
L 3047 1625 
L 3713 1625 
L 3713 1100 
L 3047 1100 
L 3047 0 
L 2419 0 
L 2419 1100 
L 313 1100 
L 313 1709 
L 2253 4666 
z
" transform="scale(0.015625)"/>
       </defs>
       <use xlink:href="#DejaVuSans-34"/>
       <use xlink:href="#DejaVuSans-30" x="63.623047"/>
      </g>
     </g>
    </g>
    <g id="text_6">
     <!-- Helicity (AGADIR score) -->
     <g transform="translate(170.092031 301.588562) scale(0.1 -0.1)">
      <defs>
       <path id="DejaVuSans-48" d="M 628 4666 
L 1259 4666 
L 1259 2753 
L 3553 2753 
L 3553 4666 
L 4184 4666 
L 4184 0 
L 3553 0 
L 3553 2222 
L 1259 2222 
L 1259 0 
L 628 0 
L 628 4666 
z
" transform="scale(0.015625)"/>
       <path id="DejaVuSans-65" d="M 3597 1894 
L 3597 1613 
L 953 1613 
Q 991 1019 1311 708 
Q 1631 397 2203 397 
Q 2534 397 2845 478 
Q 3156 559 3463 722 
L 3463 178 
Q 3153 47 2828 -22 
Q 2503 -91 2169 -91 
Q 1331 -91 842 396 
Q 353 884 353 1716 
Q 353 2575 817 3079 
Q 1281 3584 2069 3584 
Q 2775 3584 3186 3129 
Q 3597 2675 3597 1894 
z
M 3022 2063 
Q 3016 2534 2758 2815 
Q 2500 3097 2075 3097 
Q 1594 3097 1305 2825 
Q 1016 2553 972 2059 
L 3022 2063 
z
" transform="scale(0.015625)"/>
       <path id="DejaVuSans-6c" d="M 603 4863 
L 1178 4863 
L 1178 0 
L 603 0 
L 603 4863 
z
" transform="scale(0.015625)"/>
       <path id="DejaVuSans-69" d="M 603 3500 
L 1178 3500 
L 1178 0 
L 603 0 
L 603 3500 
z
M 603 4863 
L 1178 4863 
L 1178 4134 
L 603 4134 
L 603 4863 
z
" transform="scale(0.015625)"/>
       <path id="DejaVuSans-63" d="M 3122 3366 
L 3122 2828 
Q 2878 2963 2633 3030 
Q 2388 3097 2138 3097 
Q 1578 3097 1268 2742 
Q 959 2388 959 1747 
Q 959 1106 1268 751 
Q 1578 397 2138 397 
Q 2388 397 2633 464 
Q 2878 531 3122 666 
L 3122 134 
Q 2881 22 2623 -34 
Q 2366 -91 2075 -91 
Q 1284 -91 818 406 
Q 353 903 353 1747 
Q 353 2603 823 3093 
Q 1294 3584 2113 3584 
Q 2378 3584 2631 3529 
Q 2884 3475 3122 3366 
z
" transform="scale(0.015625)"/>
       <path id="DejaVuSans-74" d="M 1172 4494 
L 1172 3500 
L 2356 3500 
L 2356 3053 
L 1172 3053 
L 1172 1153 
Q 1172 725 1289 603 
Q 1406 481 1766 481 
L 2356 481 
L 2356 0 
L 1766 0 
Q 1100 0 847 248 
Q 594 497 594 1153 
L 594 3053 
L 172 3053 
L 172 3500 
L 594 3500 
L 594 4494 
L 1172 4494 
z
" transform="scale(0.015625)"/>
       <path id="DejaVuSans-79" d="M 2059 -325 
Q 1816 -950 1584 -1140 
Q 1353 -1331 966 -1331 
L 506 -1331 
L 506 -850 
L 844 -850 
Q 1081 -850 1212 -737 
Q 1344 -625 1503 -206 
L 1606 56 
L 191 3500 
L 800 3500 
L 1894 763 
L 2988 3500 
L 3597 3500 
L 2059 -325 
z
" transform="scale(0.015625)"/>
       <path id="DejaVuSans-20" transform="scale(0.015625)"/>
       <path id="DejaVuSans-28" d="M 1984 4856 
Q 1566 4138 1362 3434 
Q 1159 2731 1159 2009 
Q 1159 1288 1364 580 
Q 1569 -128 1984 -844 
L 1484 -844 
Q 1016 -109 783 600 
Q 550 1309 550 2009 
Q 550 2706 781 3412 
Q 1013 4119 1484 4856 
L 1984 4856 
z
" transform="scale(0.015625)"/>
       <path id="DejaVuSans-41" d="M 2188 4044 
L 1331 1722 
L 3047 1722 
L 2188 4044 
z
M 1831 4666 
L 2547 4666 
L 4325 0 
L 3669 0 
L 3244 1197 
L 1141 1197 
L 716 0 
L 50 0 
L 1831 4666 
z
" transform="scale(0.015625)"/>
       <path id="DejaVuSans-47" d="M 3809 666 
L 3809 1919 
L 2778 1919 
L 2778 2438 
L 4434 2438 
L 4434 434 
Q 4069 175 3628 42 
Q 3188 -91 2688 -91 
Q 1594 -91 976 548 
Q 359 1188 359 2328 
Q 359 3472 976 4111 
Q 1594 4750 2688 4750 
Q 3144 4750 3555 4637 
Q 3966 4525 4313 4306 
L 4313 3634 
Q 3963 3931 3569 4081 
Q 3175 4231 2741 4231 
Q 1884 4231 1454 3753 
Q 1025 3275 1025 2328 
Q 1025 1384 1454 906 
Q 1884 428 2741 428 
Q 3075 428 3337 486 
Q 3600 544 3809 666 
z
" transform="scale(0.015625)"/>
       <path id="DejaVuSans-44" d="M 1259 4147 
L 1259 519 
L 2022 519 
Q 2988 519 3436 956 
Q 3884 1394 3884 2338 
Q 3884 3275 3436 3711 
Q 2988 4147 2022 4147 
L 1259 4147 
z
M 628 4666 
L 1925 4666 
Q 3281 4666 3915 4102 
Q 4550 3538 4550 2338 
Q 4550 1131 3912 565 
Q 3275 0 1925 0 
L 628 0 
L 628 4666 
z
" transform="scale(0.015625)"/>
       <path id="DejaVuSans-49" d="M 628 4666 
L 1259 4666 
L 1259 0 
L 628 0 
L 628 4666 
z
" transform="scale(0.015625)"/>
       <path id="DejaVuSans-52" d="M 2841 2188 
Q 3044 2119 3236 1894 
Q 3428 1669 3622 1275 
L 4263 0 
L 3584 0 
L 2988 1197 
Q 2756 1666 2539 1819 
Q 2322 1972 1947 1972 
L 1259 1972 
L 1259 0 
L 628 0 
L 628 4666 
L 2053 4666 
Q 2853 4666 3247 4331 
Q 3641 3997 3641 3322 
Q 3641 2881 3436 2590 
Q 3231 2300 2841 2188 
z
M 1259 4147 
L 1259 2491 
L 2053 2491 
Q 2509 2491 2742 2702 
Q 2975 2913 2975 3322 
Q 2975 3731 2742 3939 
Q 2509 4147 2053 4147 
L 1259 4147 
z
" transform="scale(0.015625)"/>
       <path id="DejaVuSans-73" d="M 2834 3397 
L 2834 2853 
Q 2591 2978 2328 3040 
Q 2066 3103 1784 3103 
Q 1356 3103 1142 2972 
Q 928 2841 928 2578 
Q 928 2378 1081 2264 
Q 1234 2150 1697 2047 
L 1894 2003 
Q 2506 1872 2764 1633 
Q 3022 1394 3022 966 
Q 3022 478 2636 193 
Q 2250 -91 1575 -91 
Q 1294 -91 989 -36 
Q 684 19 347 128 
L 347 722 
Q 666 556 975 473 
Q 1284 391 1588 391 
Q 1994 391 2212 530 
Q 2431 669 2431 922 
Q 2431 1156 2273 1281 
Q 2116 1406 1581 1522 
L 1381 1569 
Q 847 1681 609 1914 
Q 372 2147 372 2553 
Q 372 3047 722 3315 
Q 1072 3584 1716 3584 
Q 2034 3584 2315 3537 
Q 2597 3491 2834 3397 
z
" transform="scale(0.015625)"/>
       <path id="DejaVuSans-6f" d="M 1959 3097 
Q 1497 3097 1228 2736 
Q 959 2375 959 1747 
Q 959 1119 1226 758 
Q 1494 397 1959 397 
Q 2419 397 2687 759 
Q 2956 1122 2956 1747 
Q 2956 2369 2687 2733 
Q 2419 3097 1959 3097 
z
M 1959 3584 
Q 2709 3584 3137 3096 
Q 3566 2609 3566 1747 
Q 3566 888 3137 398 
Q 2709 -91 1959 -91 
Q 1206 -91 779 398 
Q 353 888 353 1747 
Q 353 2609 779 3096 
Q 1206 3584 1959 3584 
z
" transform="scale(0.015625)"/>
       <path id="DejaVuSans-72" d="M 2631 2963 
Q 2534 3019 2420 3045 
Q 2306 3072 2169 3072 
Q 1681 3072 1420 2755 
Q 1159 2438 1159 1844 
L 1159 0 
L 581 0 
L 581 3500 
L 1159 3500 
L 1159 2956 
Q 1341 3275 1631 3429 
Q 1922 3584 2338 3584 
Q 2397 3584 2469 3576 
Q 2541 3569 2628 3553 
L 2631 2963 
z
" transform="scale(0.015625)"/>
       <path id="DejaVuSans-29" d="M 513 4856 
L 1013 4856 
Q 1481 4119 1714 3412 
Q 1947 2706 1947 2009 
Q 1947 1309 1714 600 
Q 1481 -109 1013 -844 
L 513 -844 
Q 928 -128 1133 580 
Q 1338 1288 1338 2009 
Q 1338 2731 1133 3434 
Q 928 4138 513 4856 
z
" transform="scale(0.015625)"/>
      </defs>
      <use xlink:href="#DejaVuSans-48"/>
      <use xlink:href="#DejaVuSans-65" x="75.195312"/>
      <use xlink:href="#DejaVuSans-6c" x="136.71875"/>
      <use xlink:href="#DejaVuSans-69" x="164.501953"/>
      <use xlink:href="#DejaVuSans-63" x="192.285156"/>
      <use xlink:href="#DejaVuSans-69" x="247.265625"/>
      <use xlink:href="#DejaVuSans-74" x="275.048828"/>
      <use xlink:href="#DejaVuSans-79" x="314.257812"/>
      <use xlink:href="#DejaVuSans-20" x="373.4375"/>
      <use xlink:href="#DejaVuSans-28" x="405.224609"/>
      <use xlink:href="#DejaVuSans-41" x="444.238281"/>
      <use xlink:href="#DejaVuSans-47" x="510.896484"/>
      <use xlink:href="#DejaVuSans-41" x="588.386719"/>
      <use xlink:href="#DejaVuSans-44" x="656.794922"/>
      <use xlink:href="#DejaVuSans-49" x="733.796875"/>
      <use xlink:href="#DejaVuSans-52" x="763.289062"/>
      <use xlink:href="#DejaVuSans-20" x="832.771484"/>
      <use xlink:href="#DejaVuSans-73" x="864.558594"/>
      <use xlink:href="#DejaVuSans-63" x="916.658203"/>
      <use xlink:href="#DejaVuSans-6f" x="971.638672"/>
      <use xlink:href="#DejaVuSans-72" x="1032.820312"/>
      <use xlink:href="#DejaVuSans-65" x="1071.683594"/>
      <use xlink:href="#DejaVuSans-29" x="1133.207031"/>
     </g>
    </g>
   </g>
   <g id="matplotlib.axis_2">
    <g id="ytick_1">
     <g id="line2d_6">
      <defs>
       <path id="ma2caea476d" d="M 0 0 
L -3.5 0 
" style="stroke: #000000; stroke-width: 0.8"/>
      </defs>
      <g>
       <use xlink:href="#ma2caea476d" x="50.14375" y="273.312" style="stroke: #000000; stroke-width: 0.8"/>
      </g>
     </g>
     <g id="text_7">
      <!-- 0.00 -->
      <g transform="translate(20.878125 277.111219) scale(0.1 -0.1)">
       <defs>
        <path id="DejaVuSans-2e" d="M 684 794 
L 1344 794 
L 1344 0 
L 684 0 
L 684 794 
z
" transform="scale(0.015625)"/>
       </defs>
       <use xlink:href="#DejaVuSans-30"/>
       <use xlink:href="#DejaVuSans-2e" x="63.623047"/>
       <use xlink:href="#DejaVuSans-30" x="95.410156"/>
       <use xlink:href="#DejaVuSans-30" x="159.033203"/>
      </g>
     </g>
    </g>
    <g id="ytick_2">
     <g id="line2d_7">
      <g>
       <use xlink:href="#ma2caea476d" x="50.14375" y="219.199102" style="stroke: #000000; stroke-width: 0.8"/>
      </g>
     </g>
     <g id="text_8">
      <!-- 0.02 -->
      <g transform="translate(20.878125 222.998321) scale(0.1 -0.1)">
       <use xlink:href="#DejaVuSans-30"/>
       <use xlink:href="#DejaVuSans-2e" x="63.623047"/>
       <use xlink:href="#DejaVuSans-30" x="95.410156"/>
       <use xlink:href="#DejaVuSans-32" x="159.033203"/>
      </g>
     </g>
    </g>
    <g id="ytick_3">
     <g id="line2d_8">
      <g>
       <use xlink:href="#ma2caea476d" x="50.14375" y="165.086205" style="stroke: #000000; stroke-width: 0.8"/>
      </g>
     </g>
     <g id="text_9">
      <!-- 0.04 -->
      <g transform="translate(20.878125 168.885424) scale(0.1 -0.1)">
       <use xlink:href="#DejaVuSans-30"/>
       <use xlink:href="#DejaVuSans-2e" x="63.623047"/>
       <use xlink:href="#DejaVuSans-30" x="95.410156"/>
       <use xlink:href="#DejaVuSans-34" x="159.033203"/>
      </g>
     </g>
    </g>
    <g id="ytick_4">
     <g id="line2d_9">
      <g>
       <use xlink:href="#ma2caea476d" x="50.14375" y="110.973307" style="stroke: #000000; stroke-width: 0.8"/>
      </g>
     </g>
     <g id="text_10">
      <!-- 0.06 -->
      <g transform="translate(20.878125 114.772526) scale(0.1 -0.1)">
       <defs>
        <path id="DejaVuSans-36" d="M 2113 2584 
Q 1688 2584 1439 2293 
Q 1191 2003 1191 1497 
Q 1191 994 1439 701 
Q 1688 409 2113 409 
Q 2538 409 2786 701 
Q 3034 994 3034 1497 
Q 3034 2003 2786 2293 
Q 2538 2584 2113 2584 
z
M 3366 4563 
L 3366 3988 
Q 3128 4100 2886 4159 
Q 2644 4219 2406 4219 
Q 1781 4219 1451 3797 
Q 1122 3375 1075 2522 
Q 1259 2794 1537 2939 
Q 1816 3084 2150 3084 
Q 2853 3084 3261 2657 
Q 3669 2231 3669 1497 
Q 3669 778 3244 343 
Q 2819 -91 2113 -91 
Q 1303 -91 875 529 
Q 447 1150 447 2328 
Q 447 3434 972 4092 
Q 1497 4750 2381 4750 
Q 2619 4750 2861 4703 
Q 3103 4656 3366 4563 
z
" transform="scale(0.015625)"/>
       </defs>
       <use xlink:href="#DejaVuSans-30"/>
       <use xlink:href="#DejaVuSans-2e" x="63.623047"/>
       <use xlink:href="#DejaVuSans-30" x="95.410156"/>
       <use xlink:href="#DejaVuSans-36" x="159.033203"/>
      </g>
     </g>
    </g>
    <g id="ytick_5">
     <g id="line2d_10">
      <g>
       <use xlink:href="#ma2caea476d" x="50.14375" y="56.86041" style="stroke: #000000; stroke-width: 0.8"/>
      </g>
     </g>
     <g id="text_11">
      <!-- 0.08 -->
      <g transform="translate(20.878125 60.659629) scale(0.1 -0.1)">
       <defs>
        <path id="DejaVuSans-38" d="M 2034 2216 
Q 1584 2216 1326 1975 
Q 1069 1734 1069 1313 
Q 1069 891 1326 650 
Q 1584 409 2034 409 
Q 2484 409 2743 651 
Q 3003 894 3003 1313 
Q 3003 1734 2745 1975 
Q 2488 2216 2034 2216 
z
M 1403 2484 
Q 997 2584 770 2862 
Q 544 3141 544 3541 
Q 544 4100 942 4425 
Q 1341 4750 2034 4750 
Q 2731 4750 3128 4425 
Q 3525 4100 3525 3541 
Q 3525 3141 3298 2862 
Q 3072 2584 2669 2484 
Q 3125 2378 3379 2068 
Q 3634 1759 3634 1313 
Q 3634 634 3220 271 
Q 2806 -91 2034 -91 
Q 1263 -91 848 271 
Q 434 634 434 1313 
Q 434 1759 690 2068 
Q 947 2378 1403 2484 
z
M 1172 3481 
Q 1172 3119 1398 2916 
Q 1625 2713 2034 2713 
Q 2441 2713 2670 2916 
Q 2900 3119 2900 3481 
Q 2900 3844 2670 4047 
Q 2441 4250 2034 4250 
Q 1625 4250 1398 4047 
Q 1172 3844 1172 3481 
z
" transform="scale(0.015625)"/>
       </defs>
       <use xlink:href="#DejaVuSans-30"/>
       <use xlink:href="#DejaVuSans-2e" x="63.623047"/>
       <use xlink:href="#DejaVuSans-30" x="95.410156"/>
       <use xlink:href="#DejaVuSans-38" x="159.033203"/>
      </g>
     </g>
    </g>
    <g id="text_12">
     <!-- Density -->
     <g transform="translate(14.798438 159.264594) rotate(-90) scale(0.1 -0.1)">
      <defs>
       <path id="DejaVuSans-6e" d="M 3513 2113 
L 3513 0 
L 2938 0 
L 2938 2094 
Q 2938 2591 2744 2837 
Q 2550 3084 2163 3084 
Q 1697 3084 1428 2787 
Q 1159 2491 1159 1978 
L 1159 0 
L 581 0 
L 581 3500 
L 1159 3500 
L 1159 2956 
Q 1366 3272 1645 3428 
Q 1925 3584 2291 3584 
Q 2894 3584 3203 3211 
Q 3513 2838 3513 2113 
z
" transform="scale(0.015625)"/>
      </defs>
      <use xlink:href="#DejaVuSans-44"/>
      <use xlink:href="#DejaVuSans-65" x="77.001953"/>
      <use xlink:href="#DejaVuSans-6e" x="138.525391"/>
      <use xlink:href="#DejaVuSans-73" x="201.904297"/>
      <use xlink:href="#DejaVuSans-69" x="254.003906"/>
      <use xlink:href="#DejaVuSans-74" x="281.787109"/>
      <use xlink:href="#DejaVuSans-79" x="320.996094"/>
     </g>
    </g>
   </g>
   <g id="patch_3">
    <path d="M 50.14375 273.312 
L 50.14375 7.2 
" style="fill: none; stroke: #000000; stroke-width: 0.8; stroke-linejoin: miter; stroke-linecap: square"/>
   </g>
   <g id="patch_4">
    <path d="M 407.26375 273.312 
L 407.26375 7.2 
" style="fill: none; stroke: #000000; stroke-width: 0.8; stroke-linejoin: miter; stroke-linecap: square"/>
   </g>
   <g id="patch_5">
    <path d="M 50.14375 273.312 
L 407.26375 273.312 
" style="fill: none; stroke: #000000; stroke-width: 0.8; stroke-linejoin: miter; stroke-linecap: square"/>
   </g>
   <g id="patch_6">
    <path d="M 50.14375 7.2 
L 407.26375 7.2 
" style="fill: none; stroke: #000000; stroke-width: 0.8; stroke-linejoin: miter; stroke-linecap: square"/>
   </g>
  </g>
 </g>
 <defs>
  <clipPath id="p3cf5b820c6">
   <rect x="50.14375" y="7.2" width="357.12" height="266.112"/>
  </clipPath>
 </defs>
</svg>
