<?xml version="1.0" encoding="utf-8" standalone="no"?>
<!DOCTYPE svg PUBLIC "-//W3C//DTD SVG 1.1//EN"
  "http://www.w3.org/Graphics/SVG/1.1/DTD/svg11.dtd">
<svg xmlns:xlink="http://www.w3.org/1999/xlink" width="406.512187pt" height="310.86825pt" viewBox="0 0 406.512187 310.86825" xmlns="http://www.w3.org/2000/svg" version="1.1">
 <metadata>
  <rdf:RDF xmlns:dc="http://purl.org/dc/elements/1.1/" xmlns:cc="http://creativecommons.org/ns#" xmlns:rdf="http://www.w3.org/1999/02/22-rdf-syntax-ns#">
   <cc:Work>
    <dc:type rdf:resource="http://purl.org/dc/dcmitype/StillImage"/>
    <dc:date>2023-07-07T15:54:20.379282</dc:date>
    <dc:format>image/svg+xml</dc:format>
    <dc:creator>
     <cc:Agent>
      <dc:title>Matplotlib v3.7.1, https://matplotlib.org/</dc:title>
     </cc:Agent>
    </dc:creator>
   </cc:Work>
  </rdf:RDF>
 </metadata>
 <defs>
  <style type="text/css">*{stroke-linejoin: round; stroke-linecap: butt}</style>
 </defs>
 <g id="figure_1">
  <g id="patch_1">
   <path d="M 0 310.86825 
L 406.512187 310.86825 
L 406.512187 0 
L 0 0 
z
" style="fill: #ffffff"/>
  </g>
  <g id="axes_1">
   <g id="patch_2">
    <path d="M 34.240625 273.312 
L 391.360625 273.312 
L 391.360625 7.2 
L 34.240625 7.2 
z
" style="fill: #ffffff"/>
   </g>
   <g id="PolyCollection_1">
    <path d="M 105.664625 162.231765 
L 105.664625 273.312 
L 108.057389 273.312 
L 110.450153 273.312 
L 112.842916 273.312 
L 115.23568 273.312 
L 117.628444 273.312 
L 120.021208 273.312 
L 122.413972 273.312 
L 124.806736 273.312 
L 127.199499 273.312 
L 129.592263 273.312 
L 131.985027 273.312 
L 134.377791 273.312 
L 136.770555 273.312 
L 139.163318 273.312 
L 141.556082 273.312 
L 143.948846 273.312 
L 146.34161 273.312 
L 148.734374 273.312 
L 151.127138 273.312 
L 153.519901 273.312 
L 155.912665 273.312 
L 158.305429 273.312 
L 160.698193 273.312 
L 163.090957 273.312 
L 165.48372 273.312 
L 167.876484 273.312 
L 170.269248 273.312 
L 172.662012 273.312 
L 175.054776 273.312 
L 177.44754 273.312 
L 179.840303 273.312 
L 182.233067 273.312 
L 184.625831 273.312 
L 187.018595 273.312 
L 189.411359 273.312 
L 191.804122 273.312 
L 194.196886 273.312 
L 196.58965 273.312 
L 198.982414 273.312 
L 201.375178 273.312 
L 203.767942 273.312 
L 206.160705 273.312 
L 208.553469 273.312 
L 210.946233 273.312 
L 213.338997 273.312 
L 215.731761 273.312 
L 218.124524 273.312 
L 220.517288 273.312 
L 222.910052 273.312 
L 225.302816 273.312 
L 227.69558 273.312 
L 230.088344 273.312 
L 232.481107 273.312 
L 234.873871 273.312 
L 237.266635 273.312 
L 239.659399 273.312 
L 242.052163 273.312 
L 244.444927 273.312 
L 246.83769 273.312 
L 249.230454 273.312 
L 251.623218 273.312 
L 254.015982 273.312 
L 256.408746 273.312 
L 258.801509 273.312 
L 261.194273 273.312 
L 263.587037 273.312 
L 265.979801 273.312 
L 268.372565 273.312 
L 270.765329 273.312 
L 273.158092 273.312 
L 275.550856 273.312 
L 277.94362 273.312 
L 280.336384 273.312 
L 282.729148 273.312 
L 285.121911 273.312 
L 287.514675 273.312 
L 289.907439 273.312 
L 292.300203 273.312 
L 294.692967 273.312 
L 297.085731 273.312 
L 299.478494 273.312 
L 301.871258 273.312 
L 304.264022 273.312 
L 306.656786 273.312 
L 309.04955 273.312 
L 311.442313 273.312 
L 313.835077 273.312 
L 316.227841 273.312 
L 318.620605 273.312 
L 321.013369 273.312 
L 323.406133 273.312 
L 325.798896 273.312 
L 328.19166 273.312 
L 330.584424 273.312 
L 332.977188 273.312 
L 335.369952 273.312 
L 337.762715 273.312 
L 340.155479 273.312 
L 342.548243 273.312 
L 344.941007 273.312 
L 347.333771 273.312 
L 349.726535 273.312 
L 352.119298 273.312 
L 354.512062 273.312 
L 356.904826 273.312 
L 359.29759 273.312 
L 361.690354 273.312 
L 364.083117 273.312 
L 366.475881 273.312 
L 368.868645 273.312 
L 371.261409 273.312 
L 373.654173 273.312 
L 376.046937 273.312 
L 378.4397 273.312 
L 380.832464 273.312 
L 383.225228 273.312 
L 385.617992 273.312 
L 388.010756 273.312 
L 390.403519 273.312 
L 392.796283 273.312 
L 395.189047 273.312 
L 397.581811 273.312 
L 399.974575 273.312 
L 402.367339 273.312 
L 404.760102 273.312 
L 407.152866 273.312 
L 409.54563 273.312 
L 411.938394 273.312 
L 414.331158 273.312 
L 416.723921 273.312 
L 419.116685 273.312 
L 421.509449 273.312 
L 423.902213 273.312 
L 426.294977 273.312 
L 428.687741 273.312 
L 431.080504 273.312 
L 433.473268 273.312 
L 435.866032 273.312 
L 438.258796 273.312 
L 440.65156 273.312 
L 443.044323 273.312 
L 445.437087 273.312 
L 447.829851 273.312 
L 450.222615 273.312 
L 452.615379 273.312 
L 455.008143 273.312 
L 457.400906 273.312 
L 459.79367 273.312 
L 462.186434 273.312 
L 464.579198 273.312 
L 466.971962 273.312 
L 469.364726 273.312 
L 471.757489 273.312 
L 474.150253 273.312 
L 476.543017 273.312 
L 478.935781 273.312 
L 481.328545 273.312 
L 483.721308 273.312 
L 486.114072 273.312 
L 488.506836 273.312 
L 490.8996 273.312 
L 493.292364 273.312 
L 495.685128 273.312 
L 498.077891 273.312 
L 500.470655 273.312 
L 502.863419 273.312 
L 505.256183 273.312 
L 507.648947 273.312 
L 510.04171 273.312 
L 512.434474 273.312 
L 514.827238 273.312 
L 517.220002 273.312 
L 519.612766 273.312 
L 522.00553 273.312 
L 524.398293 273.312 
L 526.791057 273.312 
L 529.183821 273.312 
L 531.576585 273.312 
L 533.969349 273.312 
L 536.362112 273.312 
L 538.754876 273.312 
L 541.14764 273.312 
L 543.540404 273.312 
L 545.933168 273.312 
L 548.325932 273.312 
L 550.718695 273.312 
L 553.111459 273.312 
L 555.504223 273.312 
L 557.896987 273.312 
L 560.289751 273.312 
L 562.682514 273.312 
L 565.075278 273.312 
L 567.468042 273.312 
L 569.860806 273.312 
L 572.25357 273.312 
L 574.646334 273.312 
L 577.039097 273.312 
L 579.431861 273.312 
L 581.824625 273.312 
L 581.824625 269.437179 
L 581.824625 269.437179 
L 579.431861 269.409871 
L 577.039097 269.394871 
L 574.646334 269.391333 
L 572.25357 269.398173 
L 569.860806 269.414097 
L 567.468042 269.437625 
L 565.075278 269.467132 
L 562.682514 269.500882 
L 560.289751 269.537074 
L 557.896987 269.57388 
L 555.504223 269.609495 
L 553.111459 269.642174 
L 550.718695 269.670269 
L 548.325932 269.692268 
L 545.933168 269.706819 
L 543.540404 269.71275 
L 541.14764 269.709084 
L 538.754876 269.695038 
L 536.362112 269.670023 
L 533.969349 269.633618 
L 531.576585 269.585555 
L 529.183821 269.525673 
L 526.791057 269.453883 
L 524.398293 269.370113 
L 522.00553 269.27425 
L 519.612766 269.166082 
L 517.220002 269.045231 
L 514.827238 268.911092 
L 512.434474 268.76277 
L 510.04171 268.599026 
L 507.648947 268.418222 
L 505.256183 268.218286 
L 502.863419 267.996679 
L 500.470655 267.750385 
L 498.077891 267.475906 
L 495.685128 267.169285 
L 493.292364 266.826139 
L 490.8996 266.441719 
L 488.506836 266.010976 
L 486.114072 265.528662 
L 483.721308 264.989435 
L 481.328545 264.387987 
L 478.935781 263.719182 
L 476.543017 262.978205 
L 474.150253 262.160722 
L 471.757489 261.263035 
L 469.364726 260.282245 
L 466.971962 259.216399 
L 464.579198 258.064639 
L 462.186434 256.82732 
L 459.79367 255.506124 
L 457.400906 254.104134 
L 455.008143 252.625892 
L 452.615379 251.077415 
L 450.222615 249.466185 
L 447.829851 247.801098 
L 445.437087 246.092373 
L 443.044323 244.351433 
L 440.65156 242.590743 
L 438.258796 240.82362 
L 435.866032 239.064011 
L 433.473268 237.326252 
L 431.080504 235.624801 
L 428.687741 233.973966 
L 426.294977 232.387624 
L 423.902213 230.878944 
L 421.509449 229.460117 
L 419.116685 228.142102 
L 416.723921 226.934401 
L 414.331158 225.844857 
L 411.938394 224.879486 
L 409.54563 224.042355 
L 407.152866 223.335495 
L 404.760102 222.758863 
L 402.367339 222.310339 
L 399.974575 221.985784 
L 397.581811 221.779119 
L 395.189047 221.68246 
L 392.796283 221.686275 
L 390.403519 221.77958 
L 388.010756 221.950149 
L 385.617992 222.184749 
L 383.225228 222.469383 
L 380.832464 222.78954 
L 378.4397 223.130438 
L 376.046937 223.477267 
L 373.654173 223.815415 
L 371.261409 224.130679 
L 368.868645 224.409459 
L 366.475881 224.63892 
L 364.083117 224.80714 
L 361.690354 224.903225 
L 359.29759 224.917401 
L 356.904826 224.841077 
L 354.512062 224.666889 
L 352.119298 224.388721 
L 349.726535 224.001698 
L 347.333771 223.50217 
L 344.941007 222.887678 
L 342.548243 222.156905 
L 340.155479 221.309619 
L 337.762715 220.346606 
L 335.369952 219.2696 
L 332.977188 218.081205 
L 330.584424 216.784817 
L 328.19166 215.38454 
L 325.798896 213.885108 
L 323.406133 212.291799 
L 321.013369 210.610351 
L 318.620605 208.84688 
L 316.227841 207.007793 
L 313.835077 205.099704 
L 311.442313 203.129349 
L 309.04955 201.103501 
L 306.656786 199.02888 
L 304.264022 196.912076 
L 301.871258 194.759461 
L 299.478494 192.577108 
L 297.085731 190.370721 
L 294.692967 188.145558 
L 292.300203 185.906373 
L 289.907439 183.657357 
L 287.514675 181.402095 
L 285.121911 179.143529 
L 282.729148 176.883939 
L 280.336384 174.624927 
L 277.94362 172.367417 
L 275.550856 170.111665 
L 273.158092 167.857279 
L 270.765329 165.603241 
L 268.372565 163.34794 
L 265.979801 161.089201 
L 263.587037 158.824312 
L 261.194273 156.550059 
L 258.801509 154.262736 
L 256.408746 151.958162 
L 254.015982 149.631686 
L 251.623218 147.278174 
L 249.230454 144.892002 
L 246.83769 142.467034 
L 244.444927 139.996603 
L 242.052163 137.473499 
L 239.659399 134.889961 
L 237.266635 132.237697 
L 234.873871 129.507921 
L 232.481107 126.691435 
L 230.088344 123.778747 
L 227.69558 120.760242 
L 225.302816 117.626405 
L 222.910052 114.368106 
L 220.517288 110.976945 
L 218.124524 107.445647 
L 215.731761 103.768512 
L 213.338997 99.941906 
L 210.946233 95.964779 
L 208.553469 91.839193 
L 206.160705 87.570843 
L 203.767942 83.169546 
L 201.375178 78.649678 
L 198.982414 74.030534 
L 196.58965 69.336586 
L 194.196886 64.597622 
L 191.804122 59.848738 
L 189.411359 55.130176 
L 187.018595 50.487005 
L 184.625831 45.968614 
L 182.233067 41.628059 
L 179.840303 37.521229 
L 177.44754 33.70589 
L 175.054776 30.240592 
L 172.662012 27.183489 
L 170.269248 24.591105 
L 167.876484 22.517064 
L 165.48372 21.010845 
L 163.090957 20.116589 
L 160.698193 19.872 
L 158.305429 20.307374 
L 155.912665 21.444792 
L 153.519901 23.297507 
L 151.127138 25.86953 
L 148.734374 29.155449 
L 146.34161 33.140473 
L 143.948846 37.8007 
L 141.556082 43.1036 
L 139.163318 49.008698 
L 136.770555 55.468431 
L 134.377791 62.429141 
L 131.985027 69.832191 
L 129.592263 77.61514 
L 127.199499 85.712976 
L 124.806736 94.05933 
L 122.413972 102.587673 
L 120.021208 111.232441 
L 117.628444 119.930074 
L 115.23568 128.619935 
L 112.842916 137.245107 
L 110.450153 145.753044 
L 108.057389 154.096075 
L 105.664625 162.231765 
z
" clip-path="url(#p49da002fb0)" style="fill: #0000ff; fill-opacity: 0.25; stroke: #0000ff"/>
   </g>
   <g id="matplotlib.axis_1">
    <g id="xtick_1">
     <g id="line2d_1">
      <defs>
       <path id="ma9a6189004" d="M 0 0 
L 0 3.5 
" style="stroke: #000000; stroke-width: 0.8"/>
      </defs>
      <g>
       <use xlink:href="#ma9a6189004" x="34.240625" y="273.312" style="stroke: #000000; stroke-width: 0.8"/>
      </g>
     </g>
     <g id="text_1">
      <!-- 0 -->
      <g transform="translate(31.059375 287.910437) scale(0.1 -0.1)">
       <defs>
        <path id="DejaVuSans-30" d="M 2034 4250 
Q 1547 4250 1301 3770 
Q 1056 3291 1056 2328 
Q 1056 1369 1301 889 
Q 1547 409 2034 409 
Q 2525 409 2770 889 
Q 3016 1369 3016 2328 
Q 3016 3291 2770 3770 
Q 2525 4250 2034 4250 
z
M 2034 4750 
Q 2819 4750 3233 4129 
Q 3647 3509 3647 2328 
Q 3647 1150 3233 529 
Q 2819 -91 2034 -91 
Q 1250 -91 836 529 
Q 422 1150 422 2328 
Q 422 3509 836 4129 
Q 1250 4750 2034 4750 
z
" transform="scale(0.015625)"/>
       </defs>
       <use xlink:href="#DejaVuSans-30"/>
      </g>
     </g>
    </g>
    <g id="xtick_2">
     <g id="line2d_2">
      <g>
       <use xlink:href="#ma9a6189004" x="153.280625" y="273.312" style="stroke: #000000; stroke-width: 0.8"/>
      </g>
     </g>
     <g id="text_2">
      <!-- 0.1 -->
      <g transform="translate(145.329063 287.910437) scale(0.1 -0.1)">
       <defs>
        <path id="DejaVuSans-2e" d="M 684 794 
L 1344 794 
L 1344 0 
L 684 0 
L 684 794 
z
" transform="scale(0.015625)"/>
        <path id="DejaVuSans-31" d="M 794 531 
L 1825 531 
L 1825 4091 
L 703 3866 
L 703 4441 
L 1819 4666 
L 2450 4666 
L 2450 531 
L 3481 531 
L 3481 0 
L 794 0 
L 794 531 
z
" transform="scale(0.015625)"/>
       </defs>
       <use xlink:href="#DejaVuSans-30"/>
       <use xlink:href="#DejaVuSans-2e" x="63.623047"/>
       <use xlink:href="#DejaVuSans-31" x="95.410156"/>
      </g>
     </g>
    </g>
    <g id="xtick_3">
     <g id="line2d_3">
      <g>
       <use xlink:href="#ma9a6189004" x="272.320625" y="273.312" style="stroke: #000000; stroke-width: 0.8"/>
      </g>
     </g>
     <g id="text_3">
      <!-- 0.2 -->
      <g transform="translate(264.369063 287.910437) scale(0.1 -0.1)">
       <defs>
        <path id="DejaVuSans-32" d="M 1228 531 
L 3431 531 
L 3431 0 
L 469 0 
L 469 531 
Q 828 903 1448 1529 
Q 2069 2156 2228 2338 
Q 2531 2678 2651 2914 
Q 2772 3150 2772 3378 
Q 2772 3750 2511 3984 
Q 2250 4219 1831 4219 
Q 1534 4219 1204 4116 
Q 875 4013 500 3803 
L 500 4441 
Q 881 4594 1212 4672 
Q 1544 4750 1819 4750 
Q 2544 4750 2975 4387 
Q 3406 4025 3406 3419 
Q 3406 3131 3298 2873 
Q 3191 2616 2906 2266 
Q 2828 2175 2409 1742 
Q 1991 1309 1228 531 
z
" transform="scale(0.015625)"/>
       </defs>
       <use xlink:href="#DejaVuSans-30"/>
       <use xlink:href="#DejaVuSans-2e" x="63.623047"/>
       <use xlink:href="#DejaVuSans-32" x="95.410156"/>
      </g>
     </g>
    </g>
    <g id="xtick_4">
     <g id="line2d_4">
      <g>
       <use xlink:href="#ma9a6189004" x="391.360625" y="273.312" style="stroke: #000000; stroke-width: 0.8"/>
      </g>
     </g>
     <g id="text_4">
      <!-- 0.3 -->
      <g transform="translate(383.409063 287.910437) scale(0.1 -0.1)">
       <defs>
        <path id="DejaVuSans-33" d="M 2597 2516 
Q 3050 2419 3304 2112 
Q 3559 1806 3559 1356 
Q 3559 666 3084 287 
Q 2609 -91 1734 -91 
Q 1441 -91 1130 -33 
Q 819 25 488 141 
L 488 750 
Q 750 597 1062 519 
Q 1375 441 1716 441 
Q 2309 441 2620 675 
Q 2931 909 2931 1356 
Q 2931 1769 2642 2001 
Q 2353 2234 1838 2234 
L 1294 2234 
L 1294 2753 
L 1863 2753 
Q 2328 2753 2575 2939 
Q 2822 3125 2822 3475 
Q 2822 3834 2567 4026 
Q 2313 4219 1838 4219 
Q 1578 4219 1281 4162 
Q 984 4106 628 3988 
L 628 4550 
Q 988 4650 1302 4700 
Q 1616 4750 1894 4750 
Q 2613 4750 3031 4423 
Q 3450 4097 3450 3541 
Q 3450 3153 3228 2886 
Q 3006 2619 2597 2516 
z
" transform="scale(0.015625)"/>
       </defs>
       <use xlink:href="#DejaVuSans-30"/>
       <use xlink:href="#DejaVuSans-2e" x="63.623047"/>
       <use xlink:href="#DejaVuSans-33" x="95.410156"/>
      </g>
     </g>
    </g>
    <g id="text_5">
     <!-- Net positive charge per residue -->
     <g transform="translate(134.114688 301.588562) scale(0.1 -0.1)">
      <defs>
       <path id="DejaVuSans-4e" d="M 628 4666 
L 1478 4666 
L 3547 763 
L 3547 4666 
L 4159 4666 
L 4159 0 
L 3309 0 
L 1241 3903 
L 1241 0 
L 628 0 
L 628 4666 
z
" transform="scale(0.015625)"/>
       <path id="DejaVuSans-65" d="M 3597 1894 
L 3597 1613 
L 953 1613 
Q 991 1019 1311 708 
Q 1631 397 2203 397 
Q 2534 397 2845 478 
Q 3156 559 3463 722 
L 3463 178 
Q 3153 47 2828 -22 
Q 2503 -91 2169 -91 
Q 1331 -91 842 396 
Q 353 884 353 1716 
Q 353 2575 817 3079 
Q 1281 3584 2069 3584 
Q 2775 3584 3186 3129 
Q 3597 2675 3597 1894 
z
M 3022 2063 
Q 3016 2534 2758 2815 
Q 2500 3097 2075 3097 
Q 1594 3097 1305 2825 
Q 1016 2553 972 2059 
L 3022 2063 
z
" transform="scale(0.015625)"/>
       <path id="DejaVuSans-74" d="M 1172 4494 
L 1172 3500 
L 2356 3500 
L 2356 3053 
L 1172 3053 
L 1172 1153 
Q 1172 725 1289 603 
Q 1406 481 1766 481 
L 2356 481 
L 2356 0 
L 1766 0 
Q 1100 0 847 248 
Q 594 497 594 1153 
L 594 3053 
L 172 3053 
L 172 3500 
L 594 3500 
L 594 4494 
L 1172 4494 
z
" transform="scale(0.015625)"/>
       <path id="DejaVuSans-20" transform="scale(0.015625)"/>
       <path id="DejaVuSans-70" d="M 1159 525 
L 1159 -1331 
L 581 -1331 
L 581 3500 
L 1159 3500 
L 1159 2969 
Q 1341 3281 1617 3432 
Q 1894 3584 2278 3584 
Q 2916 3584 3314 3078 
Q 3713 2572 3713 1747 
Q 3713 922 3314 415 
Q 2916 -91 2278 -91 
Q 1894 -91 1617 61 
Q 1341 213 1159 525 
z
M 3116 1747 
Q 3116 2381 2855 2742 
Q 2594 3103 2138 3103 
Q 1681 3103 1420 2742 
Q 1159 2381 1159 1747 
Q 1159 1113 1420 752 
Q 1681 391 2138 391 
Q 2594 391 2855 752 
Q 3116 1113 3116 1747 
z
" transform="scale(0.015625)"/>
       <path id="DejaVuSans-6f" d="M 1959 3097 
Q 1497 3097 1228 2736 
Q 959 2375 959 1747 
Q 959 1119 1226 758 
Q 1494 397 1959 397 
Q 2419 397 2687 759 
Q 2956 1122 2956 1747 
Q 2956 2369 2687 2733 
Q 2419 3097 1959 3097 
z
M 1959 3584 
Q 2709 3584 3137 3096 
Q 3566 2609 3566 1747 
Q 3566 888 3137 398 
Q 2709 -91 1959 -91 
Q 1206 -91 779 398 
Q 353 888 353 1747 
Q 353 2609 779 3096 
Q 1206 3584 1959 3584 
z
" transform="scale(0.015625)"/>
       <path id="DejaVuSans-73" d="M 2834 3397 
L 2834 2853 
Q 2591 2978 2328 3040 
Q 2066 3103 1784 3103 
Q 1356 3103 1142 2972 
Q 928 2841 928 2578 
Q 928 2378 1081 2264 
Q 1234 2150 1697 2047 
L 1894 2003 
Q 2506 1872 2764 1633 
Q 3022 1394 3022 966 
Q 3022 478 2636 193 
Q 2250 -91 1575 -91 
Q 1294 -91 989 -36 
Q 684 19 347 128 
L 347 722 
Q 666 556 975 473 
Q 1284 391 1588 391 
Q 1994 391 2212 530 
Q 2431 669 2431 922 
Q 2431 1156 2273 1281 
Q 2116 1406 1581 1522 
L 1381 1569 
Q 847 1681 609 1914 
Q 372 2147 372 2553 
Q 372 3047 722 3315 
Q 1072 3584 1716 3584 
Q 2034 3584 2315 3537 
Q 2597 3491 2834 3397 
z
" transform="scale(0.015625)"/>
       <path id="DejaVuSans-69" d="M 603 3500 
L 1178 3500 
L 1178 0 
L 603 0 
L 603 3500 
z
M 603 4863 
L 1178 4863 
L 1178 4134 
L 603 4134 
L 603 4863 
z
" transform="scale(0.015625)"/>
       <path id="DejaVuSans-76" d="M 191 3500 
L 800 3500 
L 1894 563 
L 2988 3500 
L 3597 3500 
L 2284 0 
L 1503 0 
L 191 3500 
z
" transform="scale(0.015625)"/>
       <path id="DejaVuSans-63" d="M 3122 3366 
L 3122 2828 
Q 2878 2963 2633 3030 
Q 2388 3097 2138 3097 
Q 1578 3097 1268 2742 
Q 959 2388 959 1747 
Q 959 1106 1268 751 
Q 1578 397 2138 397 
Q 2388 397 2633 464 
Q 2878 531 3122 666 
L 3122 134 
Q 2881 22 2623 -34 
Q 2366 -91 2075 -91 
Q 1284 -91 818 406 
Q 353 903 353 1747 
Q 353 2603 823 3093 
Q 1294 3584 2113 3584 
Q 2378 3584 2631 3529 
Q 2884 3475 3122 3366 
z
" transform="scale(0.015625)"/>
       <path id="DejaVuSans-68" d="M 3513 2113 
L 3513 0 
L 2938 0 
L 2938 2094 
Q 2938 2591 2744 2837 
Q 2550 3084 2163 3084 
Q 1697 3084 1428 2787 
Q 1159 2491 1159 1978 
L 1159 0 
L 581 0 
L 581 4863 
L 1159 4863 
L 1159 2956 
Q 1366 3272 1645 3428 
Q 1925 3584 2291 3584 
Q 2894 3584 3203 3211 
Q 3513 2838 3513 2113 
z
" transform="scale(0.015625)"/>
       <path id="DejaVuSans-61" d="M 2194 1759 
Q 1497 1759 1228 1600 
Q 959 1441 959 1056 
Q 959 750 1161 570 
Q 1363 391 1709 391 
Q 2188 391 2477 730 
Q 2766 1069 2766 1631 
L 2766 1759 
L 2194 1759 
z
M 3341 1997 
L 3341 0 
L 2766 0 
L 2766 531 
Q 2569 213 2275 61 
Q 1981 -91 1556 -91 
Q 1019 -91 701 211 
Q 384 513 384 1019 
Q 384 1609 779 1909 
Q 1175 2209 1959 2209 
L 2766 2209 
L 2766 2266 
Q 2766 2663 2505 2880 
Q 2244 3097 1772 3097 
Q 1472 3097 1187 3025 
Q 903 2953 641 2809 
L 641 3341 
Q 956 3463 1253 3523 
Q 1550 3584 1831 3584 
Q 2591 3584 2966 3190 
Q 3341 2797 3341 1997 
z
" transform="scale(0.015625)"/>
       <path id="DejaVuSans-72" d="M 2631 2963 
Q 2534 3019 2420 3045 
Q 2306 3072 2169 3072 
Q 1681 3072 1420 2755 
Q 1159 2438 1159 1844 
L 1159 0 
L 581 0 
L 581 3500 
L 1159 3500 
L 1159 2956 
Q 1341 3275 1631 3429 
Q 1922 3584 2338 3584 
Q 2397 3584 2469 3576 
Q 2541 3569 2628 3553 
L 2631 2963 
z
" transform="scale(0.015625)"/>
       <path id="DejaVuSans-67" d="M 2906 1791 
Q 2906 2416 2648 2759 
Q 2391 3103 1925 3103 
Q 1463 3103 1205 2759 
Q 947 2416 947 1791 
Q 947 1169 1205 825 
Q 1463 481 1925 481 
Q 2391 481 2648 825 
Q 2906 1169 2906 1791 
z
M 3481 434 
Q 3481 -459 3084 -895 
Q 2688 -1331 1869 -1331 
Q 1566 -1331 1297 -1286 
Q 1028 -1241 775 -1147 
L 775 -588 
Q 1028 -725 1275 -790 
Q 1522 -856 1778 -856 
Q 2344 -856 2625 -561 
Q 2906 -266 2906 331 
L 2906 616 
Q 2728 306 2450 153 
Q 2172 0 1784 0 
Q 1141 0 747 490 
Q 353 981 353 1791 
Q 353 2603 747 3093 
Q 1141 3584 1784 3584 
Q 2172 3584 2450 3431 
Q 2728 3278 2906 2969 
L 2906 3500 
L 3481 3500 
L 3481 434 
z
" transform="scale(0.015625)"/>
       <path id="DejaVuSans-64" d="M 2906 2969 
L 2906 4863 
L 3481 4863 
L 3481 0 
L 2906 0 
L 2906 525 
Q 2725 213 2448 61 
Q 2172 -91 1784 -91 
Q 1150 -91 751 415 
Q 353 922 353 1747 
Q 353 2572 751 3078 
Q 1150 3584 1784 3584 
Q 2172 3584 2448 3432 
Q 2725 3281 2906 2969 
z
M 947 1747 
Q 947 1113 1208 752 
Q 1469 391 1925 391 
Q 2381 391 2643 752 
Q 2906 1113 2906 1747 
Q 2906 2381 2643 2742 
Q 2381 3103 1925 3103 
Q 1469 3103 1208 2742 
Q 947 2381 947 1747 
z
" transform="scale(0.015625)"/>
       <path id="DejaVuSans-75" d="M 544 1381 
L 544 3500 
L 1119 3500 
L 1119 1403 
Q 1119 906 1312 657 
Q 1506 409 1894 409 
Q 2359 409 2629 706 
Q 2900 1003 2900 1516 
L 2900 3500 
L 3475 3500 
L 3475 0 
L 2900 0 
L 2900 538 
Q 2691 219 2414 64 
Q 2138 -91 1772 -91 
Q 1169 -91 856 284 
Q 544 659 544 1381 
z
M 1991 3584 
L 1991 3584 
z
" transform="scale(0.015625)"/>
      </defs>
      <use xlink:href="#DejaVuSans-4e"/>
      <use xlink:href="#DejaVuSans-65" x="74.804688"/>
      <use xlink:href="#DejaVuSans-74" x="136.328125"/>
      <use xlink:href="#DejaVuSans-20" x="175.537109"/>
      <use xlink:href="#DejaVuSans-70" x="207.324219"/>
      <use xlink:href="#DejaVuSans-6f" x="270.800781"/>
      <use xlink:href="#DejaVuSans-73" x="331.982422"/>
      <use xlink:href="#DejaVuSans-69" x="384.082031"/>
      <use xlink:href="#DejaVuSans-74" x="411.865234"/>
      <use xlink:href="#DejaVuSans-69" x="451.074219"/>
      <use xlink:href="#DejaVuSans-76" x="478.857422"/>
      <use xlink:href="#DejaVuSans-65" x="538.037109"/>
      <use xlink:href="#DejaVuSans-20" x="599.560547"/>
      <use xlink:href="#DejaVuSans-63" x="631.347656"/>
      <use xlink:href="#DejaVuSans-68" x="686.328125"/>
      <use xlink:href="#DejaVuSans-61" x="749.707031"/>
      <use xlink:href="#DejaVuSans-72" x="810.986328"/>
      <use xlink:href="#DejaVuSans-67" x="850.349609"/>
      <use xlink:href="#DejaVuSans-65" x="913.826172"/>
      <use xlink:href="#DejaVuSans-20" x="975.349609"/>
      <use xlink:href="#DejaVuSans-70" x="1007.136719"/>
      <use xlink:href="#DejaVuSans-65" x="1070.613281"/>
      <use xlink:href="#DejaVuSans-72" x="1132.136719"/>
      <use xlink:href="#DejaVuSans-20" x="1173.25"/>
      <use xlink:href="#DejaVuSans-72" x="1205.037109"/>
      <use xlink:href="#DejaVuSans-65" x="1243.900391"/>
      <use xlink:href="#DejaVuSans-73" x="1305.423828"/>
      <use xlink:href="#DejaVuSans-69" x="1357.523438"/>
      <use xlink:href="#DejaVuSans-64" x="1385.306641"/>
      <use xlink:href="#DejaVuSans-75" x="1448.783203"/>
      <use xlink:href="#DejaVuSans-65" x="1512.162109"/>
     </g>
    </g>
   </g>
   <g id="matplotlib.axis_2">
    <g id="ytick_1">
     <g id="line2d_5">
      <defs>
       <path id="mfe1a7c3e58" d="M 0 0 
L -3.5 0 
" style="stroke: #000000; stroke-width: 0.8"/>
      </defs>
      <g>
       <use xlink:href="#mfe1a7c3e58" x="34.240625" y="273.312" style="stroke: #000000; stroke-width: 0.8"/>
      </g>
     </g>
     <g id="text_6">
      <!-- 0 -->
      <g transform="translate(20.878125 277.111219) scale(0.1 -0.1)">
       <use xlink:href="#DejaVuSans-30"/>
      </g>
     </g>
    </g>
    <g id="ytick_2">
     <g id="line2d_6">
      <g>
       <use xlink:href="#mfe1a7c3e58" x="34.240625" y="235.874596" style="stroke: #000000; stroke-width: 0.8"/>
      </g>
     </g>
     <g id="text_7">
      <!-- 1 -->
      <g transform="translate(20.878125 239.673815) scale(0.1 -0.1)">
       <use xlink:href="#DejaVuSans-31"/>
      </g>
     </g>
    </g>
    <g id="ytick_3">
     <g id="line2d_7">
      <g>
       <use xlink:href="#mfe1a7c3e58" x="34.240625" y="198.437193" style="stroke: #000000; stroke-width: 0.8"/>
      </g>
     </g>
     <g id="text_8">
      <!-- 2 -->
      <g transform="translate(20.878125 202.236411) scale(0.1 -0.1)">
       <use xlink:href="#DejaVuSans-32"/>
      </g>
     </g>
    </g>
    <g id="ytick_4">
     <g id="line2d_8">
      <g>
       <use xlink:href="#mfe1a7c3e58" x="34.240625" y="160.999789" style="stroke: #000000; stroke-width: 0.8"/>
      </g>
     </g>
     <g id="text_9">
      <!-- 3 -->
      <g transform="translate(20.878125 164.799008) scale(0.1 -0.1)">
       <use xlink:href="#DejaVuSans-33"/>
      </g>
     </g>
    </g>
    <g id="ytick_5">
     <g id="line2d_9">
      <g>
       <use xlink:href="#mfe1a7c3e58" x="34.240625" y="123.562385" style="stroke: #000000; stroke-width: 0.8"/>
      </g>
     </g>
     <g id="text_10">
      <!-- 4 -->
      <g transform="translate(20.878125 127.361604) scale(0.1 -0.1)">
       <defs>
        <path id="DejaVuSans-34" d="M 2419 4116 
L 825 1625 
L 2419 1625 
L 2419 4116 
z
M 2253 4666 
L 3047 4666 
L 3047 1625 
L 3713 1625 
L 3713 1100 
L 3047 1100 
L 3047 0 
L 2419 0 
L 2419 1100 
L 313 1100 
L 313 1709 
L 2253 4666 
z
" transform="scale(0.015625)"/>
       </defs>
       <use xlink:href="#DejaVuSans-34"/>
      </g>
     </g>
    </g>
    <g id="ytick_6">
     <g id="line2d_10">
      <g>
       <use xlink:href="#mfe1a7c3e58" x="34.240625" y="86.124981" style="stroke: #000000; stroke-width: 0.8"/>
      </g>
     </g>
     <g id="text_11">
      <!-- 5 -->
      <g transform="translate(20.878125 89.9242) scale(0.1 -0.1)">
       <defs>
        <path id="DejaVuSans-35" d="M 691 4666 
L 3169 4666 
L 3169 4134 
L 1269 4134 
L 1269 2991 
Q 1406 3038 1543 3061 
Q 1681 3084 1819 3084 
Q 2600 3084 3056 2656 
Q 3513 2228 3513 1497 
Q 3513 744 3044 326 
Q 2575 -91 1722 -91 
Q 1428 -91 1123 -41 
Q 819 9 494 109 
L 494 744 
Q 775 591 1075 516 
Q 1375 441 1709 441 
Q 2250 441 2565 725 
Q 2881 1009 2881 1497 
Q 2881 1984 2565 2268 
Q 2250 2553 1709 2553 
Q 1456 2553 1204 2497 
Q 953 2441 691 2322 
L 691 4666 
z
" transform="scale(0.015625)"/>
       </defs>
       <use xlink:href="#DejaVuSans-35"/>
      </g>
     </g>
    </g>
    <g id="ytick_7">
     <g id="line2d_11">
      <g>
       <use xlink:href="#mfe1a7c3e58" x="34.240625" y="48.687578" style="stroke: #000000; stroke-width: 0.8"/>
      </g>
     </g>
     <g id="text_12">
      <!-- 6 -->
      <g transform="translate(20.878125 52.486796) scale(0.1 -0.1)">
       <defs>
        <path id="DejaVuSans-36" d="M 2113 2584 
Q 1688 2584 1439 2293 
Q 1191 2003 1191 1497 
Q 1191 994 1439 701 
Q 1688 409 2113 409 
Q 2538 409 2786 701 
Q 3034 994 3034 1497 
Q 3034 2003 2786 2293 
Q 2538 2584 2113 2584 
z
M 3366 4563 
L 3366 3988 
Q 3128 4100 2886 4159 
Q 2644 4219 2406 4219 
Q 1781 4219 1451 3797 
Q 1122 3375 1075 2522 
Q 1259 2794 1537 2939 
Q 1816 3084 2150 3084 
Q 2853 3084 3261 2657 
Q 3669 2231 3669 1497 
Q 3669 778 3244 343 
Q 2819 -91 2113 -91 
Q 1303 -91 875 529 
Q 447 1150 447 2328 
Q 447 3434 972 4092 
Q 1497 4750 2381 4750 
Q 2619 4750 2861 4703 
Q 3103 4656 3366 4563 
z
" transform="scale(0.015625)"/>
       </defs>
       <use xlink:href="#DejaVuSans-36"/>
      </g>
     </g>
    </g>
    <g id="ytick_8">
     <g id="line2d_12">
      <g>
       <use xlink:href="#mfe1a7c3e58" x="34.240625" y="11.250174" style="stroke: #000000; stroke-width: 0.8"/>
      </g>
     </g>
     <g id="text_13">
      <!-- 7 -->
      <g transform="translate(20.878125 15.049393) scale(0.1 -0.1)">
       <defs>
        <path id="DejaVuSans-37" d="M 525 4666 
L 3525 4666 
L 3525 4397 
L 1831 0 
L 1172 0 
L 2766 4134 
L 525 4134 
L 525 4666 
z
" transform="scale(0.015625)"/>
       </defs>
       <use xlink:href="#DejaVuSans-37"/>
      </g>
     </g>
    </g>
    <g id="text_14">
     <!-- Density -->
     <g transform="translate(14.798438 159.264594) rotate(-90) scale(0.1 -0.1)">
      <defs>
       <path id="DejaVuSans-44" d="M 1259 4147 
L 1259 519 
L 2022 519 
Q 2988 519 3436 956 
Q 3884 1394 3884 2338 
Q 3884 3275 3436 3711 
Q 2988 4147 2022 4147 
L 1259 4147 
z
M 628 4666 
L 1925 4666 
Q 3281 4666 3915 4102 
Q 4550 3538 4550 2338 
Q 4550 1131 3912 565 
Q 3275 0 1925 0 
L 628 0 
L 628 4666 
z
" transform="scale(0.015625)"/>
       <path id="DejaVuSans-6e" d="M 3513 2113 
L 3513 0 
L 2938 0 
L 2938 2094 
Q 2938 2591 2744 2837 
Q 2550 3084 2163 3084 
Q 1697 3084 1428 2787 
Q 1159 2491 1159 1978 
L 1159 0 
L 581 0 
L 581 3500 
L 1159 3500 
L 1159 2956 
Q 1366 3272 1645 3428 
Q 1925 3584 2291 3584 
Q 2894 3584 3203 3211 
Q 3513 2838 3513 2113 
z
" transform="scale(0.015625)"/>
       <path id="DejaVuSans-79" d="M 2059 -325 
Q 1816 -950 1584 -1140 
Q 1353 -1331 966 -1331 
L 506 -1331 
L 506 -850 
L 844 -850 
Q 1081 -850 1212 -737 
Q 1344 -625 1503 -206 
L 1606 56 
L 191 3500 
L 800 3500 
L 1894 763 
L 2988 3500 
L 3597 3500 
L 2059 -325 
z
" transform="scale(0.015625)"/>
      </defs>
      <use xlink:href="#DejaVuSans-44"/>
      <use xlink:href="#DejaVuSans-65" x="77.001953"/>
      <use xlink:href="#DejaVuSans-6e" x="138.525391"/>
      <use xlink:href="#DejaVuSans-73" x="201.904297"/>
      <use xlink:href="#DejaVuSans-69" x="254.003906"/>
      <use xlink:href="#DejaVuSans-74" x="281.787109"/>
      <use xlink:href="#DejaVuSans-79" x="320.996094"/>
     </g>
    </g>
   </g>
   <g id="line2d_13">
    <path d="M 105.664625 273.312 
L 105.664625 7.2 
" clip-path="url(#p49da002fb0)" style="fill: none; stroke-dasharray: 3.7,1.6; stroke-dashoffset: 0; stroke: #000000; stroke-opacity: 0.5"/>
   </g>
   <g id="patch_3">
    <path d="M 34.240625 273.312 
L 34.240625 7.2 
" style="fill: none; stroke: #000000; stroke-width: 0.8; stroke-linejoin: miter; stroke-linecap: square"/>
   </g>
   <g id="patch_4">
    <path d="M 391.360625 273.312 
L 391.360625 7.2 
" style="fill: none; stroke: #000000; stroke-width: 0.8; stroke-linejoin: miter; stroke-linecap: square"/>
   </g>
   <g id="patch_5">
    <path d="M 34.240625 273.312 
L 391.360625 273.312 
" style="fill: none; stroke: #000000; stroke-width: 0.8; stroke-linejoin: miter; stroke-linecap: square"/>
   </g>
   <g id="patch_6">
    <path d="M 34.240625 7.2 
L 391.360625 7.2 
" style="fill: none; stroke: #000000; stroke-width: 0.8; stroke-linejoin: miter; stroke-linecap: square"/>
   </g>
  </g>
 </g>
 <defs>
  <clipPath id="p49da002fb0">
   <rect x="34.240625" y="7.2" width="357.12" height="266.112"/>
  </clipPath>
 </defs>
</svg>
