<?xml version="1.0" encoding="utf-8" standalone="no"?>
<!DOCTYPE svg PUBLIC "-//W3C//DTD SVG 1.1//EN"
  "http://www.w3.org/Graphics/SVG/1.1/DTD/svg11.dtd">
<svg xmlns:xlink="http://www.w3.org/1999/xlink" width="720pt" height="720pt" viewBox="0 0 720 720" xmlns="http://www.w3.org/2000/svg" version="1.1">
 <metadata>
  <rdf:RDF xmlns:dc="http://purl.org/dc/elements/1.1/" xmlns:cc="http://creativecommons.org/ns#" xmlns:rdf="http://www.w3.org/1999/02/22-rdf-syntax-ns#">
   <cc:Work>
    <dc:type rdf:resource="http://purl.org/dc/dcmitype/StillImage"/>
    <dc:date>2023-05-30T12:28:41.662145</dc:date>
    <dc:format>image/svg+xml</dc:format>
    <dc:creator>
     <cc:Agent>
      <dc:title>Matplotlib v3.6.2, https://matplotlib.org/</dc:title>
     </cc:Agent>
    </dc:creator>
   </cc:Work>
  </rdf:RDF>
 </metadata>
 <defs>
  <style type="text/css">*{stroke-linejoin: round; stroke-linecap: butt}</style>
 </defs>
 <g id="figure_1">
  <g id="patch_1">
   <path d="M 0 720 
L 720 720 
L 720 0 
L 0 0 
z
" style="fill: #ffffff"/>
  </g>
  <g id="axes_1">
   <g id="line2d_1">
    <path d="M 360 195.1 
L 522.394798 388.634584 
" clip-path="url(#p8f9b4ada96)" style="fill: none; stroke: #000000; stroke-width: 2; stroke-linecap: square"/>
   </g>
   <g id="line2d_2">
    <path d="M 522.394798 388.634584 
L 303.600878 514.955313 
" clip-path="url(#p8f9b4ada96)" style="fill: none; stroke: #000000; stroke-opacity: 0.974359; stroke-width: 2; stroke-linecap: square"/>
   </g>
   <g id="line2d_3">
    <path d="M 303.600878 514.955313 
L 217.192411 277.55 
" clip-path="url(#p8f9b4ada96)" style="fill: none; stroke: #000000; stroke-opacity: 0.948718; stroke-width: 2; stroke-linecap: square"/>
   </g>
   <g id="line2d_4">
    <path d="M 217.192411 277.55 
L 465.995677 233.679271 
" clip-path="url(#p8f9b4ada96)" style="fill: none; stroke: #000000; stroke-opacity: 0.923077; stroke-width: 2; stroke-linecap: square"/>
   </g>
   <g id="line2d_5">
    <path d="M 465.995677 233.679271 
L 465.995677 486.320729 
" clip-path="url(#p8f9b4ada96)" style="fill: none; stroke: #000000; stroke-opacity: 0.897436; stroke-width: 2; stroke-linecap: square"/>
   </g>
   <g id="line2d_6">
    <path d="M 465.995677 486.320729 
L 217.192411 442.45 
" clip-path="url(#p8f9b4ada96)" style="fill: none; stroke: #000000; stroke-opacity: 0.871795; stroke-width: 2; stroke-linecap: square"/>
   </g>
   <g id="line2d_7">
    <path d="M 217.192411 442.45 
L 303.600878 205.044687 
" clip-path="url(#p8f9b4ada96)" style="fill: none; stroke: #000000; stroke-opacity: 0.846154; stroke-width: 2; stroke-linecap: square"/>
   </g>
   <g id="line2d_8">
    <path d="M 303.600878 205.044687 
L 522.394798 331.365416 
" clip-path="url(#p8f9b4ada96)" style="fill: none; stroke: #000000; stroke-opacity: 0.820513; stroke-width: 2; stroke-linecap: square"/>
   </g>
   <g id="line2d_9">
    <path d="M 522.394798 331.365416 
L 360 524.9 
" clip-path="url(#p8f9b4ada96)" style="fill: none; stroke: #000000; stroke-opacity: 0.794872; stroke-width: 2; stroke-linecap: square"/>
   </g>
   <g id="line2d_10">
    <path d="M 360 524.9 
L 197.605202 331.365416 
" clip-path="url(#p8f9b4ada96)" style="fill: none; stroke: #000000; stroke-opacity: 0.769231; stroke-width: 2; stroke-linecap: square"/>
   </g>
   <g id="line2d_11">
    <path d="M 197.605202 331.365416 
L 416.399122 205.044687 
" clip-path="url(#p8f9b4ada96)" style="fill: none; stroke: #000000; stroke-opacity: 0.74359; stroke-width: 2; stroke-linecap: square"/>
   </g>
   <g id="line2d_12">
    <path d="M 416.399122 205.044687 
L 502.807589 442.45 
" clip-path="url(#p8f9b4ada96)" style="fill: none; stroke: #000000; stroke-opacity: 0.717949; stroke-width: 2; stroke-linecap: square"/>
   </g>
   <g id="line2d_13">
    <path d="M 502.807589 442.45 
L 254.004323 486.320729 
" clip-path="url(#p8f9b4ada96)" style="fill: none; stroke: #000000; stroke-opacity: 0.692308; stroke-width: 2; stroke-linecap: square"/>
   </g>
   <g id="line2d_14">
    <path d="M 254.004323 486.320729 
L 254.004323 233.679271 
" clip-path="url(#p8f9b4ada96)" style="fill: none; stroke: #000000; stroke-opacity: 0.666667; stroke-width: 2; stroke-linecap: square"/>
   </g>
   <g id="line2d_15">
    <path d="M 254.004323 233.679271 
L 502.807589 277.55 
" clip-path="url(#p8f9b4ada96)" style="fill: none; stroke: #000000; stroke-opacity: 0.641026; stroke-width: 2; stroke-linecap: square"/>
   </g>
   <g id="line2d_16">
    <path d="M 502.807589 277.55 
L 416.399122 514.955313 
" clip-path="url(#p8f9b4ada96)" style="fill: none; stroke: #000000; stroke-opacity: 0.615385; stroke-width: 2; stroke-linecap: square"/>
   </g>
   <g id="line2d_17">
    <path d="M 416.399122 514.955313 
L 197.605202 388.634584 
" clip-path="url(#p8f9b4ada96)" style="fill: none; stroke: #000000; stroke-opacity: 0.589744; stroke-width: 2; stroke-linecap: square"/>
   </g>
   <g id="patch_2">
    <path d="M 360 193.16 
C 367.202916 193.16 374.111789 190.298251 379.20502 185.20502 
C 384.298251 180.111789 387.16 173.202916 387.16 166 
C 387.16 158.797084 384.298251 151.888211 379.20502 146.79498 
C 374.111789 141.701749 367.202916 138.84 360 138.84 
C 352.797084 138.84 345.888211 141.701749 340.79498 146.79498 
C 335.701749 151.888211 332.84 158.797084 332.84 166 
C 332.84 173.202916 335.701749 180.111789 340.79498 185.20502 
C 345.888211 190.298251 352.797084 193.16 360 193.16 
z
" clip-path="url(#p8f9b4ada96)" style="fill: #808080; opacity: 0.6; stroke: #808080; stroke-linejoin: miter"/>
   </g>
   <g id="patch_3">
    <path d="M 551.052704 420.847746 
C 558.25562 420.847746 565.164493 417.985998 570.257724 412.892767 
C 575.350955 407.799536 578.212704 400.890663 578.212704 393.687746 
C 578.212704 386.48483 575.350955 379.575957 570.257724 374.482726 
C 565.164493 369.389495 558.25562 366.527746 551.052704 366.527746 
C 543.849788 366.527746 536.940915 369.389495 531.847684 374.482726 
C 526.754453 379.575957 523.892704 386.48483 523.892704 393.687746 
C 523.892704 400.890663 526.754453 407.799536 531.847684 412.892767 
C 536.940915 417.985998 543.849788 420.847746 551.052704 420.847746 
z
" clip-path="url(#p8f9b4ada96)" style="fill: #ff0000; opacity: 0.6; stroke: #ff0000; stroke-linejoin: miter"/>
   </g>
   <g id="patch_4">
    <path d="M 293.648092 569.460368 
C 300.851008 569.460368 307.759881 566.598619 312.853112 561.505389 
C 317.946343 556.412158 320.808092 549.503285 320.808092 542.300368 
C 320.808092 535.097452 317.946343 528.188579 312.853112 523.095348 
C 307.759881 518.002117 300.851008 515.140368 293.648092 515.140368 
C 286.445176 515.140368 279.536303 518.002117 274.443072 523.095348 
C 269.349841 528.188579 266.488092 535.097452 266.488092 542.300368 
C 266.488092 549.503285 269.349841 556.412158 274.443072 561.505389 
C 279.536303 566.598619 286.445176 569.460368 293.648092 569.460368 
z
" clip-path="url(#p8f9b4ada96)" style="fill: #ff0000; opacity: 0.6; stroke: #ff0000; stroke-linejoin: miter"/>
   </g>
   <g id="patch_5">
    <path d="M 191.991072 290.16 
C 199.193988 290.16 206.102861 287.298251 211.196092 282.20502 
C 216.289323 277.111789 219.151072 270.202916 219.151072 263 
C 219.151072 255.797084 216.289323 248.888211 211.196092 243.79498 
C 206.102861 238.701749 199.193988 235.84 191.991072 235.84 
C 184.788155 235.84 177.879282 238.701749 172.786051 243.79498 
C 167.692821 248.888211 164.831072 255.797084 164.831072 263 
C 164.831072 270.202916 167.692821 277.111789 172.786051 282.20502 
C 177.879282 287.298251 184.788155 290.16 191.991072 290.16 
z
" clip-path="url(#p8f9b4ada96)" style="fill: #808080; opacity: 0.6; stroke: #808080; stroke-linejoin: miter"/>
   </g>
   <g id="patch_6">
    <path d="M 484.700796 238.547378 
C 491.903712 238.547378 498.812586 235.685629 503.905816 230.592398 
C 508.999047 225.499167 511.860796 218.590294 511.860796 211.387378 
C 511.860796 204.184462 508.999047 197.275589 503.905816 192.182358 
C 498.812586 187.089127 491.903712 184.227378 484.700796 184.227378 
C 477.49788 184.227378 470.589007 187.089127 465.495776 192.182358 
C 460.402545 197.275589 457.540796 204.184462 457.540796 211.387378 
C 457.540796 218.590294 460.402545 225.499167 465.495776 230.592398 
C 470.589007 235.685629 477.49788 238.547378 484.700796 238.547378 
z
" clip-path="url(#p8f9b4ada96)" style="fill: #1e90ff; opacity: 0.6; stroke: #1e90ff; stroke-linejoin: miter"/>
   </g>
   <g id="patch_7">
    <path d="M 484.700796 535.772622 
C 491.903712 535.772622 498.812586 532.910873 503.905816 527.817642 
C 508.999047 522.724411 511.860796 515.815538 511.860796 508.612622 
C 511.860796 501.409706 508.999047 494.500833 503.905816 489.407602 
C 498.812586 484.314371 491.903712 481.452622 484.700796 481.452622 
C 477.49788 481.452622 470.589007 484.314371 465.495776 489.407602 
C 460.402545 494.500833 457.540796 501.409706 457.540796 508.612622 
C 457.540796 515.815538 460.402545 522.724411 465.495776 527.817642 
C 470.589007 532.910873 477.49788 535.772622 484.700796 535.772622 
z
" clip-path="url(#p8f9b4ada96)" style="fill: #ff0000; opacity: 0.6; stroke: #ff0000; stroke-linejoin: miter"/>
   </g>
   <g id="patch_8">
    <path d="M 191.991072 484.16 
C 199.193988 484.16 206.102861 481.298251 211.196092 476.20502 
C 216.289323 471.111789 219.151072 464.202916 219.151072 457 
C 219.151072 449.797084 216.289323 442.888211 211.196092 437.79498 
C 206.102861 432.701749 199.193988 429.84 191.991072 429.84 
C 184.788155 429.84 177.879282 432.701749 172.786051 437.79498 
C 167.692821 442.888211 164.831072 449.797084 164.831072 457 
C 164.831072 464.202916 167.692821 471.111789 172.786051 476.20502 
C 177.879282 481.298251 184.788155 484.16 191.991072 484.16 
z
" clip-path="url(#p8f9b4ada96)" style="fill: #808080; opacity: 0.6; stroke: #808080; stroke-linejoin: miter"/>
   </g>
   <g id="patch_9">
    <path d="M 293.648092 204.859632 
C 300.851008 204.859632 307.759881 201.997883 312.853112 196.904652 
C 317.946343 191.811421 320.808092 184.902548 320.808092 177.699632 
C 320.808092 170.496715 317.946343 163.587842 312.853112 158.494611 
C 307.759881 153.401381 300.851008 150.539632 293.648092 150.539632 
C 286.445176 150.539632 279.536303 153.401381 274.443072 158.494611 
C 269.349841 163.587842 266.488092 170.496715 266.488092 177.699632 
C 266.488092 184.902548 269.349841 191.811421 274.443072 196.904652 
C 279.536303 201.997883 286.445176 204.859632 293.648092 204.859632 
z
" clip-path="url(#p8f9b4ada96)" style="fill: #808080; opacity: 0.6; stroke: #808080; stroke-linejoin: miter"/>
   </g>
   <g id="patch_10">
    <path d="M 551.052704 353.472254 
C 558.25562 353.472254 565.164493 350.610505 570.257724 345.517274 
C 575.350955 340.424043 578.212704 333.51517 578.212704 326.312254 
C 578.212704 319.109337 575.350955 312.200464 570.257724 307.107233 
C 565.164493 302.014002 558.25562 299.152254 551.052704 299.152254 
C 543.849788 299.152254 536.940915 302.014002 531.847684 307.107233 
C 526.754453 312.200464 523.892704 319.109337 523.892704 326.312254 
C 523.892704 333.51517 526.754453 340.424043 531.847684 345.517274 
C 536.940915 350.610505 543.849788 353.472254 551.052704 353.472254 
z
" clip-path="url(#p8f9b4ada96)" style="fill: #808080; opacity: 0.6; stroke: #808080; stroke-linejoin: miter"/>
   </g>
   <g id="patch_11">
    <path d="M 360 581.16 
C 367.202916 581.16 374.111789 578.298251 379.20502 573.20502 
C 384.298251 568.111789 387.16 561.202916 387.16 554 
C 387.16 546.797084 384.298251 539.888211 379.20502 534.79498 
C 374.111789 529.701749 367.202916 526.84 360 526.84 
C 352.797084 526.84 345.888211 529.701749 340.79498 534.79498 
C 335.701749 539.888211 332.84 546.797084 332.84 554 
C 332.84 561.202916 335.701749 568.111789 340.79498 573.20502 
C 345.888211 578.298251 352.797084 581.16 360 581.16 
z
" clip-path="url(#p8f9b4ada96)" style="fill: #ff0000; opacity: 0.6; stroke: #ff0000; stroke-linejoin: miter"/>
   </g>
   <g id="patch_12">
    <path d="M 168.947296 353.472254 
C 176.150212 353.472254 183.059085 350.610505 188.152316 345.517274 
C 193.245547 340.424043 196.107296 333.51517 196.107296 326.312254 
C 196.107296 319.109337 193.245547 312.200464 188.152316 307.107233 
C 183.059085 302.014002 176.150212 299.152254 168.947296 299.152254 
C 161.74438 299.152254 154.835507 302.014002 149.742276 307.107233 
C 144.649045 312.200464 141.787296 319.109337 141.787296 326.312254 
C 141.787296 333.51517 144.649045 340.424043 149.742276 345.517274 
C 154.835507 350.610505 161.74438 353.472254 168.947296 353.472254 
z
" clip-path="url(#p8f9b4ada96)" style="fill: #808080; opacity: 0.6; stroke: #808080; stroke-linejoin: miter"/>
   </g>
   <g id="patch_13">
    <path d="M 426.351908 204.859632 
C 433.554824 204.859632 440.463697 201.997883 445.556928 196.904652 
C 450.650159 191.811421 453.511908 184.902548 453.511908 177.699632 
C 453.511908 170.496715 450.650159 163.587842 445.556928 158.494611 
C 440.463697 153.401381 433.554824 150.539632 426.351908 150.539632 
C 419.148992 150.539632 412.240119 153.401381 407.146888 158.494611 
C 402.053657 163.587842 399.191908 170.496715 399.191908 177.699632 
C 399.191908 184.902548 402.053657 191.811421 407.146888 196.904652 
C 412.240119 201.997883 419.148992 204.859632 426.351908 204.859632 
z
" clip-path="url(#p8f9b4ada96)" style="fill: #0000ff; opacity: 0.6; stroke: #0000ff; stroke-linejoin: miter"/>
   </g>
   <g id="patch_14">
    <path d="M 528.008928 484.16 
C 535.211845 484.16 542.120718 481.298251 547.213949 476.20502 
C 552.307179 471.111789 555.168928 464.202916 555.168928 457 
C 555.168928 449.797084 552.307179 442.888211 547.213949 437.79498 
C 542.120718 432.701749 535.211845 429.84 528.008928 429.84 
C 520.806012 429.84 513.897139 432.701749 508.803908 437.79498 
C 503.710677 442.888211 500.848928 449.797084 500.848928 457 
C 500.848928 464.202916 503.710677 471.111789 508.803908 476.20502 
C 513.897139 481.298251 520.806012 484.16 528.008928 484.16 
z
" clip-path="url(#p8f9b4ada96)" style="fill: #ff0000; opacity: 0.6; stroke: #ff0000; stroke-linejoin: miter"/>
   </g>
   <g id="patch_15">
    <path d="M 235.299204 535.772622 
C 242.50212 535.772622 249.410993 532.910873 254.504224 527.817642 
C 259.597455 522.724411 262.459204 515.815538 262.459204 508.612622 
C 262.459204 501.409706 259.597455 494.500833 254.504224 489.407602 
C 249.410993 484.314371 242.50212 481.452622 235.299204 481.452622 
C 228.096288 481.452622 221.187414 484.314371 216.094184 489.407602 
C 211.000953 494.500833 208.139204 501.409706 208.139204 508.612622 
C 208.139204 515.815538 211.000953 522.724411 216.094184 527.817642 
C 221.187414 532.910873 228.096288 535.772622 235.299204 535.772622 
z
" clip-path="url(#p8f9b4ada96)" style="fill: #ff0000; opacity: 0.6; stroke: #ff0000; stroke-linejoin: miter"/>
   </g>
   <g id="patch_16">
    <path d="M 235.299204 238.547378 
C 242.50212 238.547378 249.410993 235.685629 254.504224 230.592398 
C 259.597455 225.499167 262.459204 218.590294 262.459204 211.387378 
C 262.459204 204.184462 259.597455 197.275589 254.504224 192.182358 
C 249.410993 187.089127 242.50212 184.227378 235.299204 184.227378 
C 228.096288 184.227378 221.187414 187.089127 216.094184 192.182358 
C 211.000953 197.275589 208.139204 204.184462 208.139204 211.387378 
C 208.139204 218.590294 211.000953 225.499167 216.094184 230.592398 
C 221.187414 235.685629 228.096288 238.547378 235.299204 238.547378 
z
" clip-path="url(#p8f9b4ada96)" style="fill: #ff0000; opacity: 0.6; stroke: #ff0000; stroke-linejoin: miter"/>
   </g>
   <g id="patch_17">
    <path d="M 528.008928 290.16 
C 535.211845 290.16 542.120718 287.298251 547.213949 282.20502 
C 552.307179 277.111789 555.168928 270.202916 555.168928 263 
C 555.168928 255.797084 552.307179 248.888211 547.213949 243.79498 
C 542.120718 238.701749 535.211845 235.84 528.008928 235.84 
C 520.806012 235.84 513.897139 238.701749 508.803908 243.79498 
C 503.710677 248.888211 500.848928 255.797084 500.848928 263 
C 500.848928 270.202916 503.710677 277.111789 508.803908 282.20502 
C 513.897139 287.298251 520.806012 290.16 528.008928 290.16 
z
" clip-path="url(#p8f9b4ada96)" style="fill: #ff0000; opacity: 0.6; stroke: #ff0000; stroke-linejoin: miter"/>
   </g>
   <g id="patch_18">
    <path d="M 426.351908 569.460368 
C 433.554824 569.460368 440.463697 566.598619 445.556928 561.505389 
C 450.650159 556.412158 453.511908 549.503285 453.511908 542.300368 
C 453.511908 535.097452 450.650159 528.188579 445.556928 523.095348 
C 440.463697 518.002117 433.554824 515.140368 426.351908 515.140368 
C 419.148992 515.140368 412.240119 518.002117 407.146888 523.095348 
C 402.053657 528.188579 399.191908 535.097452 399.191908 542.300368 
C 399.191908 549.503285 402.053657 556.412158 407.146888 561.505389 
C 412.240119 566.598619 419.148992 569.460368 426.351908 569.460368 
z
" clip-path="url(#p8f9b4ada96)" style="fill: #ff0000; opacity: 0.6; stroke: #ff0000; stroke-linejoin: miter"/>
   </g>
   <g id="patch_19">
    <path d="M 168.947296 420.847746 
C 176.150212 420.847746 183.059085 417.985998 188.152316 412.892767 
C 193.245547 407.799536 196.107296 400.890663 196.107296 393.687746 
C 196.107296 386.48483 193.245547 379.575957 188.152316 374.482726 
C 183.059085 369.389495 176.150212 366.527746 168.947296 366.527746 
C 161.74438 366.527746 154.835507 369.389495 149.742276 374.482726 
C 144.649045 379.575957 141.787296 386.48483 141.787296 393.687746 
C 141.787296 400.890663 144.649045 407.799536 149.742276 412.892767 
C 154.835507 417.985998 161.74438 420.847746 168.947296 420.847746 
z
" clip-path="url(#p8f9b4ada96)" style="fill: #808080; opacity: 0.6; stroke: #808080; stroke-linejoin: miter"/>
   </g>
   <g id="patch_20">
    <path d="M 360 131.08 
C 367.202916 131.08 374.111789 128.218251 379.20502 123.12502 
C 384.298251 118.031789 387.16 111.122916 387.16 103.92 
C 387.16 96.717084 384.298251 89.808211 379.20502 84.71498 
C 374.111789 79.621749 367.202916 76.76 360 76.76 
C 352.797084 76.76 345.888211 79.621749 340.79498 84.71498 
C 335.701749 89.808211 332.84 96.717084 332.84 103.92 
C 332.84 111.122916 335.701749 118.031789 340.79498 123.12502 
C 345.888211 128.218251 352.797084 131.08 360 131.08 
z
" clip-path="url(#p8f9b4ada96)" style="fill: #0000ff; opacity: 0.6; stroke: #0000ff; stroke-linejoin: miter"/>
   </g>
   <g id="patch_21">
    <path d="M 612.189569 431.627825 
C 619.392486 431.627825 626.301359 428.766076 631.39459 423.672846 
C 636.48782 418.579615 639.349569 411.670742 639.349569 404.467825 
C 639.349569 397.264909 636.48782 390.356036 631.39459 385.262805 
C 626.301359 380.169574 619.392486 377.307825 612.189569 377.307825 
C 604.986653 377.307825 598.07778 380.169574 592.984549 385.262805 
C 587.891318 390.356036 585.029569 397.264909 585.029569 404.467825 
C 585.029569 411.670742 587.891318 418.579615 592.984549 423.672846 
C 598.07778 428.766076 604.986653 431.627825 612.189569 431.627825 
z
" clip-path="url(#p8f9b4ada96)" style="fill: #ff0000; opacity: 0.6; stroke: #ff0000; stroke-linejoin: miter"/>
   </g>
   <g id="patch_22">
    <path d="M 272.415482 627.796486 
C 279.618398 627.796486 286.527271 624.934737 291.620502 619.841507 
C 296.713733 614.748276 299.575482 607.839403 299.575482 600.636486 
C 299.575482 593.43357 296.713733 586.524697 291.620502 581.431466 
C 286.527271 576.338235 279.618398 573.476486 272.415482 573.476486 
C 265.212566 573.476486 258.303692 576.338235 253.210462 581.431466 
C 248.117231 586.524697 245.255482 593.43357 245.255482 600.636486 
C 245.255482 607.839403 248.117231 614.748276 253.210462 619.841507 
C 258.303692 624.934737 265.212566 627.796486 272.415482 627.796486 
z
" clip-path="url(#p8f9b4ada96)" style="fill: #ff0000; opacity: 0.6; stroke: #ff0000; stroke-linejoin: miter"/>
   </g>
   <g id="patch_23">
    <path d="M 138.228215 259.12 
C 145.431131 259.12 152.340004 256.258251 157.433235 251.16502 
C 162.526466 246.071789 165.388215 239.162916 165.388215 231.96 
C 165.388215 224.757084 162.526466 217.848211 157.433235 212.75498 
C 152.340004 207.661749 145.431131 204.8 138.228215 204.8 
C 131.025298 204.8 124.116425 207.661749 119.023194 212.75498 
C 113.929964 217.848211 111.068215 224.757084 111.068215 231.96 
C 111.068215 239.162916 113.929964 246.071789 119.023194 251.16502 
C 124.116425 256.258251 131.025298 259.12 138.228215 259.12 
z
" clip-path="url(#p8f9b4ada96)" style="fill: #808080; opacity: 0.6; stroke: #808080; stroke-linejoin: miter"/>
   </g>
   <g id="patch_24">
    <path d="M 524.605051 190.991339 
C 531.807967 190.991339 538.71684 188.12959 543.810071 183.036359 
C 548.903302 177.943128 551.765051 171.034255 551.765051 163.831339 
C 551.765051 156.628423 548.903302 149.71955 543.810071 144.626319 
C 538.71684 139.533088 531.807967 136.671339 524.605051 136.671339 
C 517.402135 136.671339 510.493262 139.533088 505.400031 144.626319 
C 500.3068 149.71955 497.445051 156.628423 497.445051 163.831339 
C 497.445051 171.034255 500.3068 177.943128 505.400031 183.036359 
C 510.493262 188.12959 517.402135 190.991339 524.605051 190.991339 
z
" clip-path="url(#p8f9b4ada96)" style="fill: #808080; opacity: 0.6; stroke: #808080; stroke-linejoin: miter"/>
   </g>
   <g id="patch_25">
    <path d="M 524.605051 583.328661 
C 531.807967 583.328661 538.71684 580.466912 543.810071 575.373681 
C 548.903302 570.28045 551.765051 563.371577 551.765051 556.168661 
C 551.765051 548.965745 548.903302 542.056872 543.810071 536.963641 
C 538.71684 531.87041 531.807967 529.008661 524.605051 529.008661 
C 517.402135 529.008661 510.493262 531.87041 505.400031 536.963641 
C 500.3068 542.056872 497.445051 548.965745 497.445051 556.168661 
C 497.445051 563.371577 500.3068 570.28045 505.400031 575.373681 
C 510.493262 580.466912 517.402135 583.328661 524.605051 583.328661 
z
" clip-path="url(#p8f9b4ada96)" style="fill: #ff0000; opacity: 0.6; stroke: #ff0000; stroke-linejoin: miter"/>
   </g>
   <g id="patch_26">
    <path d="M 138.228215 515.2 
C 145.431131 515.2 152.340004 512.338251 157.433235 507.24502 
C 162.526466 502.151789 165.388215 495.242916 165.388215 488.04 
C 165.388215 480.837084 162.526466 473.928211 157.433235 468.83498 
C 152.340004 463.741749 145.431131 460.88 138.228215 460.88 
C 131.025298 460.88 124.116425 463.741749 119.023194 468.83498 
C 113.929964 473.928211 111.068215 480.837084 111.068215 488.04 
C 111.068215 495.242916 113.929964 502.151789 119.023194 507.24502 
C 124.116425 512.338251 131.025298 515.2 138.228215 515.2 
z
" clip-path="url(#p8f9b4ada96)" style="fill: #808080; opacity: 0.6; stroke: #808080; stroke-linejoin: miter"/>
   </g>
   <g id="patch_27">
    <path d="M 272.415482 146.523514 
C 279.618398 146.523514 286.527271 143.661765 291.620502 138.568534 
C 296.713733 133.475303 299.575482 126.56643 299.575482 119.363514 
C 299.575482 112.160597 296.713733 105.251724 291.620502 100.158493 
C 286.527271 95.065263 279.618398 92.203514 272.415482 92.203514 
C 265.212566 92.203514 258.303692 95.065263 253.210462 100.158493 
C 248.117231 105.251724 245.255482 112.160597 245.255482 119.363514 
C 245.255482 126.56643 248.117231 133.475303 253.210462 138.568534 
C 258.303692 143.661765 265.212566 146.523514 272.415482 146.523514 
z
" clip-path="url(#p8f9b4ada96)" style="fill: #1e90ff; opacity: 0.6; stroke: #1e90ff; stroke-linejoin: miter"/>
   </g>
   <g id="patch_28">
    <path d="M 612.189569 342.692175 
C 619.392486 342.692175 626.301359 339.830426 631.39459 334.737195 
C 636.48782 329.643964 639.349569 322.735091 639.349569 315.532175 
C 639.349569 308.329258 636.48782 301.420385 631.39459 296.327154 
C 626.301359 291.233924 619.392486 288.372175 612.189569 288.372175 
C 604.986653 288.372175 598.07778 291.233924 592.984549 296.327154 
C 587.891318 301.420385 585.029569 308.329258 585.029569 315.532175 
C 585.029569 322.735091 587.891318 329.643964 592.984549 334.737195 
C 598.07778 339.830426 604.986653 342.692175 612.189569 342.692175 
z
" clip-path="url(#p8f9b4ada96)" style="fill: #ff0000; opacity: 0.6; stroke: #ff0000; stroke-linejoin: miter"/>
   </g>
   <g id="patch_29">
    <path d="M 360 643.24 
C 367.202916 643.24 374.111789 640.378251 379.20502 635.28502 
C 384.298251 630.191789 387.16 623.282916 387.16 616.08 
C 387.16 608.877084 384.298251 601.968211 379.20502 596.87498 
C 374.111789 591.781749 367.202916 588.92 360 588.92 
C 352.797084 588.92 345.888211 591.781749 340.79498 596.87498 
C 335.701749 601.968211 332.84 608.877084 332.84 616.08 
C 332.84 623.282916 335.701749 630.191789 340.79498 635.28502 
C 345.888211 640.378251 352.797084 643.24 360 643.24 
z
" clip-path="url(#p8f9b4ada96)" style="fill: #808080; opacity: 0.6; stroke: #808080; stroke-linejoin: miter"/>
   </g>
   <g id="patch_30">
    <path d="M 107.810431 342.692175 
C 115.013347 342.692175 121.92222 339.830426 127.015451 334.737195 
C 132.108682 329.643964 134.970431 322.735091 134.970431 315.532175 
C 134.970431 308.329258 132.108682 301.420385 127.015451 296.327154 
C 121.92222 291.233924 115.013347 288.372175 107.810431 288.372175 
C 100.607514 288.372175 93.698641 291.233924 88.60541 296.327154 
C 83.51218 301.420385 80.650431 308.329258 80.650431 315.532175 
C 80.650431 322.735091 83.51218 329.643964 88.60541 334.737195 
C 93.698641 339.830426 100.607514 342.692175 107.810431 342.692175 
z
" clip-path="url(#p8f9b4ada96)" style="fill: #808080; opacity: 0.6; stroke: #808080; stroke-linejoin: miter"/>
   </g>
   <g id="patch_31">
    <path d="M 447.584518 146.523514 
C 454.787434 146.523514 461.696308 143.661765 466.789538 138.568534 
C 471.882769 133.475303 474.744518 126.56643 474.744518 119.363514 
C 474.744518 112.160597 471.882769 105.251724 466.789538 100.158493 
C 461.696308 95.065263 454.787434 92.203514 447.584518 92.203514 
C 440.381602 92.203514 433.472729 95.065263 428.379498 100.158493 
C 423.286267 105.251724 420.424518 112.160597 420.424518 119.363514 
C 420.424518 126.56643 423.286267 133.475303 428.379498 138.568534 
C 433.472729 143.661765 440.381602 146.523514 447.584518 146.523514 
z
" clip-path="url(#p8f9b4ada96)" style="fill: #ff0000; opacity: 0.6; stroke: #ff0000; stroke-linejoin: miter"/>
   </g>
   <g id="patch_32">
    <path d="M 581.771785 515.2 
C 588.974702 515.2 595.883575 512.338251 600.976806 507.24502 
C 606.070036 502.151789 608.931785 495.242916 608.931785 488.04 
C 608.931785 480.837084 606.070036 473.928211 600.976806 468.83498 
C 595.883575 463.741749 588.974702 460.88 581.771785 460.88 
C 574.568869 460.88 567.659996 463.741749 562.566765 468.83498 
C 557.473534 473.928211 554.611785 480.837084 554.611785 488.04 
C 554.611785 495.242916 557.473534 502.151789 562.566765 507.24502 
C 567.659996 512.338251 574.568869 515.2 581.771785 515.2 
z
" clip-path="url(#p8f9b4ada96)" style="fill: #808080; opacity: 0.6; stroke: #808080; stroke-linejoin: miter"/>
   </g>
   <g id="patch_33">
    <path d="M 195.394949 583.328661 
C 202.597865 583.328661 209.506738 580.466912 214.599969 575.373681 
C 219.6932 570.28045 222.554949 563.371577 222.554949 556.168661 
C 222.554949 548.965745 219.6932 542.056872 214.599969 536.963641 
C 209.506738 531.87041 202.597865 529.008661 195.394949 529.008661 
C 188.192033 529.008661 181.28316 531.87041 176.189929 536.963641 
C 171.096698 542.056872 168.234949 548.965745 168.234949 556.168661 
C 168.234949 563.371577 171.096698 570.28045 176.189929 575.373681 
C 181.28316 580.466912 188.192033 583.328661 195.394949 583.328661 
z
" clip-path="url(#p8f9b4ada96)" style="fill: #0000ff; opacity: 0.6; stroke: #0000ff; stroke-linejoin: miter"/>
   </g>
   <g id="patch_34">
    <path d="M 195.394949 190.991339 
C 202.597865 190.991339 209.506738 188.12959 214.599969 183.036359 
C 219.6932 177.943128 222.554949 171.034255 222.554949 163.831339 
C 222.554949 156.628423 219.6932 149.71955 214.599969 144.626319 
C 209.506738 139.533088 202.597865 136.671339 195.394949 136.671339 
C 188.192033 136.671339 181.28316 139.533088 176.189929 144.626319 
C 171.096698 149.71955 168.234949 156.628423 168.234949 163.831339 
C 168.234949 171.034255 171.096698 177.943128 176.189929 183.036359 
C 181.28316 188.12959 188.192033 190.991339 195.394949 190.991339 
z
" clip-path="url(#p8f9b4ada96)" style="fill: #ff0000; opacity: 0.6; stroke: #ff0000; stroke-linejoin: miter"/>
   </g>
   <g id="patch_35">
    <path d="M 581.771785 259.12 
C 588.974702 259.12 595.883575 256.258251 600.976806 251.16502 
C 606.070036 246.071789 608.931785 239.162916 608.931785 231.96 
C 608.931785 224.757084 606.070036 217.848211 600.976806 212.75498 
C 595.883575 207.661749 588.974702 204.8 581.771785 204.8 
C 574.568869 204.8 567.659996 207.661749 562.566765 212.75498 
C 557.473534 217.848211 554.611785 224.757084 554.611785 231.96 
C 554.611785 239.162916 557.473534 246.071789 562.566765 251.16502 
C 567.659996 256.258251 574.568869 259.12 581.771785 259.12 
z
" clip-path="url(#p8f9b4ada96)" style="fill: #808080; opacity: 0.6; stroke: #808080; stroke-linejoin: miter"/>
   </g>
   <g id="patch_36">
    <path d="M 447.584518 627.796486 
C 454.787434 627.796486 461.696308 624.934737 466.789538 619.841507 
C 471.882769 614.748276 474.744518 607.839403 474.744518 600.636486 
C 474.744518 593.43357 471.882769 586.524697 466.789538 581.431466 
C 461.696308 576.338235 454.787434 573.476486 447.584518 573.476486 
C 440.381602 573.476486 433.472729 576.338235 428.379498 581.431466 
C 423.286267 586.524697 420.424518 593.43357 420.424518 600.636486 
C 420.424518 607.839403 423.286267 614.748276 428.379498 619.841507 
C 433.472729 624.934737 440.381602 627.796486 447.584518 627.796486 
z
" clip-path="url(#p8f9b4ada96)" style="fill: #0000ff; opacity: 0.6; stroke: #0000ff; stroke-linejoin: miter"/>
   </g>
   <g id="patch_37">
    <path d="M 107.810431 431.627825 
C 115.013347 431.627825 121.92222 428.766076 127.015451 423.672846 
C 132.108682 418.579615 134.970431 411.670742 134.970431 404.467825 
C 134.970431 397.264909 132.108682 390.356036 127.015451 385.262805 
C 121.92222 380.169574 115.013347 377.307825 107.810431 377.307825 
C 100.607514 377.307825 93.698641 380.169574 88.60541 385.262805 
C 83.51218 390.356036 80.650431 397.264909 80.650431 404.467825 
C 80.650431 411.670742 83.51218 418.579615 88.60541 423.672846 
C 93.698641 428.766076 100.607514 431.627825 107.810431 431.627825 
z
" clip-path="url(#p8f9b4ada96)" style="fill: #0000ff; opacity: 0.6; stroke: #0000ff; stroke-linejoin: miter"/>
   </g>
   <g id="patch_38">
    <path d="M 360 69 
C 367.202916 69 374.111789 66.138251 379.20502 61.04502 
C 384.298251 55.951789 387.16 49.042916 387.16 41.84 
C 387.16 34.637084 384.298251 27.728211 379.20502 22.63498 
C 374.111789 17.541749 367.202916 14.68 360 14.68 
C 352.797084 14.68 345.888211 17.541749 340.79498 22.63498 
C 335.701749 27.728211 332.84 34.637084 332.84 41.84 
C 332.84 49.042916 335.701749 55.951789 340.79498 61.04502 
C 345.888211 66.138251 352.797084 69 360 69 
z
" clip-path="url(#p8f9b4ada96)" style="fill: #0000ff; opacity: 0.6; stroke: #0000ff; stroke-linejoin: miter"/>
   </g>
   <g id="patch_39">
    <path d="M 673.326435 442.407904 
C 680.529351 442.407904 687.438224 439.546155 692.531455 434.452924 
C 697.624686 429.359693 700.486435 422.45082 700.486435 415.247904 
C 700.486435 408.044988 697.624686 401.136115 692.531455 396.042884 
C 687.438224 390.949653 680.529351 388.087904 673.326435 388.087904 
C 666.123519 388.087904 659.214645 390.949653 654.121415 396.042884 
C 649.028184 401.136115 646.166435 408.044988 646.166435 415.247904 
C 646.166435 422.45082 649.028184 429.359693 654.121415 434.452924 
C 659.214645 439.546155 666.123519 442.407904 673.326435 442.407904 
z
" clip-path="url(#p8f9b4ada96)" style="fill: #0000ff; opacity: 0.6; stroke: #0000ff; stroke-linejoin: miter"/>
   </g>
   <g id="patch_40">
    <path d="M 251.182871 686.132604 
C 258.385787 686.132604 265.29466 683.270855 270.387891 678.177624 
C 275.481122 673.084394 278.342871 666.17552 278.342871 658.972604 
C 278.342871 651.769688 275.481122 644.860815 270.387891 639.767584 
C 265.29466 634.674353 258.385787 631.812604 251.182871 631.812604 
C 243.979955 631.812604 237.071082 634.674353 231.977851 639.767584 
C 226.88462 644.860815 224.022871 651.769688 224.022871 658.972604 
C 224.022871 666.17552 226.88462 673.084394 231.977851 678.177624 
C 237.071082 683.270855 243.979955 686.132604 251.182871 686.132604 
z
" clip-path="url(#p8f9b4ada96)" style="fill: #0000ff; opacity: 0.6; stroke: #0000ff; stroke-linejoin: miter"/>
   </g>
   <g id="text_1">
    <!-- S -->
    <g transform="translate(350.477344 171.368125) scale(0.3 -0.3)">
     <defs>
      <path id="DejaVuSans-53" d="M 3425 4513 
L 3425 3897 
Q 3066 4069 2747 4153 
Q 2428 4238 2131 4238 
Q 1616 4238 1336 4038 
Q 1056 3838 1056 3469 
Q 1056 3159 1242 3001 
Q 1428 2844 1947 2747 
L 2328 2669 
Q 3034 2534 3370 2195 
Q 3706 1856 3706 1288 
Q 3706 609 3251 259 
Q 2797 -91 1919 -91 
Q 1588 -91 1214 -16 
Q 841 59 441 206 
L 441 856 
Q 825 641 1194 531 
Q 1563 422 1919 422 
Q 2459 422 2753 634 
Q 3047 847 3047 1241 
Q 3047 1584 2836 1778 
Q 2625 1972 2144 2069 
L 1759 2144 
Q 1053 2284 737 2584 
Q 422 2884 422 3419 
Q 422 4038 858 4394 
Q 1294 4750 2059 4750 
Q 2388 4750 2728 4690 
Q 3069 4631 3425 4513 
z
" transform="scale(0.015625)"/>
     </defs>
     <use xlink:href="#DejaVuSans-53"/>
    </g>
   </g>
   <g id="text_2">
    <!-- 1 -->
    <g transform="translate(356.1825 186.77125) scale(0.12 -0.12)">
     <defs>
      <path id="DejaVuSans-31" d="M 794 531 
L 1825 531 
L 1825 4091 
L 703 3866 
L 703 4441 
L 1819 4666 
L 2450 4666 
L 2450 531 
L 3481 531 
L 3481 0 
L 794 0 
L 794 531 
z
" transform="scale(0.015625)"/>
     </defs>
     <use xlink:href="#DejaVuSans-31"/>
    </g>
   </g>
   <g id="text_3">
    <!-- I -->
    <g transform="translate(546.627704 399.055871) scale(0.3 -0.3)">
     <defs>
      <path id="DejaVuSans-49" d="M 628 4666 
L 1259 4666 
L 1259 0 
L 628 0 
L 628 4666 
z
" transform="scale(0.015625)"/>
     </defs>
     <use xlink:href="#DejaVuSans-49"/>
    </g>
   </g>
   <g id="text_4">
    <!-- 2 -->
    <g transform="translate(547.235204 414.458996) scale(0.12 -0.12)">
     <defs>
      <path id="DejaVuSans-32" d="M 1228 531 
L 3431 531 
L 3431 0 
L 469 0 
L 469 531 
Q 828 903 1448 1529 
Q 2069 2156 2228 2338 
Q 2531 2678 2651 2914 
Q 2772 3150 2772 3378 
Q 2772 3750 2511 3984 
Q 2250 4219 1831 4219 
Q 1534 4219 1204 4116 
Q 875 4013 500 3803 
L 500 4441 
Q 881 4594 1212 4672 
Q 1544 4750 1819 4750 
Q 2544 4750 2975 4387 
Q 3406 4025 3406 3419 
Q 3406 3131 3298 2873 
Q 3191 2616 2906 2266 
Q 2828 2175 2409 1742 
Q 1991 1309 1228 531 
z
" transform="scale(0.015625)"/>
     </defs>
     <use xlink:href="#DejaVuSans-32"/>
    </g>
   </g>
   <g id="text_5">
    <!-- W -->
    <g transform="translate(278.816842 547.668493) scale(0.3 -0.3)">
     <defs>
      <path id="DejaVuSans-57" d="M 213 4666 
L 850 4666 
L 1831 722 
L 2809 4666 
L 3519 4666 
L 4500 722 
L 5478 4666 
L 6119 4666 
L 4947 0 
L 4153 0 
L 3169 4050 
L 2175 0 
L 1381 0 
L 213 4666 
z
" transform="scale(0.015625)"/>
     </defs>
     <use xlink:href="#DejaVuSans-57"/>
    </g>
   </g>
   <g id="text_6">
    <!-- 3 -->
    <g transform="translate(289.830592 563.071618) scale(0.12 -0.12)">
     <defs>
      <path id="DejaVuSans-33" d="M 2597 2516 
Q 3050 2419 3304 2112 
Q 3559 1806 3559 1356 
Q 3559 666 3084 287 
Q 2609 -91 1734 -91 
Q 1441 -91 1130 -33 
Q 819 25 488 141 
L 488 750 
Q 750 597 1062 519 
Q 1375 441 1716 441 
Q 2309 441 2620 675 
Q 2931 909 2931 1356 
Q 2931 1769 2642 2001 
Q 2353 2234 1838 2234 
L 1294 2234 
L 1294 2753 
L 1863 2753 
Q 2328 2753 2575 2939 
Q 2822 3125 2822 3475 
Q 2822 3834 2567 4026 
Q 2313 4219 1838 4219 
Q 1578 4219 1281 4162 
Q 984 4106 628 3988 
L 628 4550 
Q 988 4650 1302 4700 
Q 1616 4750 1894 4750 
Q 2613 4750 3031 4423 
Q 3450 4097 3450 3541 
Q 3450 3153 3228 2886 
Q 3006 2619 2597 2516 
z
" transform="scale(0.015625)"/>
     </defs>
     <use xlink:href="#DejaVuSans-33"/>
    </g>
   </g>
   <g id="text_7">
    <!-- G -->
    <g transform="translate(180.368415 268.368125) scale(0.3 -0.3)">
     <defs>
      <path id="DejaVuSans-47" d="M 3809 666 
L 3809 1919 
L 2778 1919 
L 2778 2438 
L 4434 2438 
L 4434 434 
Q 4069 175 3628 42 
Q 3188 -91 2688 -91 
Q 1594 -91 976 548 
Q 359 1188 359 2328 
Q 359 3472 976 4111 
Q 1594 4750 2688 4750 
Q 3144 4750 3555 4637 
Q 3966 4525 4313 4306 
L 4313 3634 
Q 3963 3931 3569 4081 
Q 3175 4231 2741 4231 
Q 1884 4231 1454 3753 
Q 1025 3275 1025 2328 
Q 1025 1384 1454 906 
Q 1884 428 2741 428 
Q 3075 428 3337 486 
Q 3600 544 3809 666 
z
" transform="scale(0.015625)"/>
     </defs>
     <use xlink:href="#DejaVuSans-47"/>
    </g>
   </g>
   <g id="text_8">
    <!-- 4 -->
    <g transform="translate(188.173572 283.77125) scale(0.12 -0.12)">
     <defs>
      <path id="DejaVuSans-34" d="M 2419 4116 
L 825 1625 
L 2419 1625 
L 2419 4116 
z
M 2253 4666 
L 3047 4666 
L 3047 1625 
L 3713 1625 
L 3713 1100 
L 3047 1100 
L 3047 0 
L 2419 0 
L 2419 1100 
L 313 1100 
L 313 1709 
L 2253 4666 
z
" transform="scale(0.015625)"/>
     </defs>
     <use xlink:href="#DejaVuSans-34"/>
    </g>
   </g>
   <g id="text_9">
    <!-- D -->
    <g transform="translate(473.150796 216.755503) scale(0.3 -0.3)">
     <defs>
      <path id="DejaVuSans-44" d="M 1259 4147 
L 1259 519 
L 2022 519 
Q 2988 519 3436 956 
Q 3884 1394 3884 2338 
Q 3884 3275 3436 3711 
Q 2988 4147 2022 4147 
L 1259 4147 
z
M 628 4666 
L 1925 4666 
Q 3281 4666 3915 4102 
Q 4550 3538 4550 2338 
Q 4550 1131 3912 565 
Q 3275 0 1925 0 
L 628 0 
L 628 4666 
z
" transform="scale(0.015625)"/>
     </defs>
     <use xlink:href="#DejaVuSans-44"/>
    </g>
   </g>
   <g id="text_10">
    <!-- 5 -->
    <g transform="translate(480.883296 232.158628) scale(0.12 -0.12)">
     <defs>
      <path id="DejaVuSans-35" d="M 691 4666 
L 3169 4666 
L 3169 4134 
L 1269 4134 
L 1269 2991 
Q 1406 3038 1543 3061 
Q 1681 3084 1819 3084 
Q 2600 3084 3056 2656 
Q 3513 2228 3513 1497 
Q 3513 744 3044 326 
Q 2575 -91 1722 -91 
Q 1428 -91 1123 -41 
Q 819 9 494 109 
L 494 744 
Q 775 591 1075 516 
Q 1375 441 1709 441 
Q 2250 441 2565 725 
Q 2881 1009 2881 1497 
Q 2881 1984 2565 2268 
Q 2250 2553 1709 2553 
Q 1456 2553 1204 2497 
Q 953 2441 691 2322 
L 691 4666 
z
" transform="scale(0.015625)"/>
     </defs>
     <use xlink:href="#DejaVuSans-35"/>
    </g>
   </g>
   <g id="text_11">
    <!-- I -->
    <g transform="translate(480.275796 513.980747) scale(0.3 -0.3)">
     <use xlink:href="#DejaVuSans-49"/>
    </g>
   </g>
   <g id="text_12">
    <!-- 6 -->
    <g transform="translate(480.883296 529.383872) scale(0.12 -0.12)">
     <defs>
      <path id="DejaVuSans-36" d="M 2113 2584 
Q 1688 2584 1439 2293 
Q 1191 2003 1191 1497 
Q 1191 994 1439 701 
Q 1688 409 2113 409 
Q 2538 409 2786 701 
Q 3034 994 3034 1497 
Q 3034 2003 2786 2293 
Q 2538 2584 2113 2584 
z
M 3366 4563 
L 3366 3988 
Q 3128 4100 2886 4159 
Q 2644 4219 2406 4219 
Q 1781 4219 1451 3797 
Q 1122 3375 1075 2522 
Q 1259 2794 1537 2939 
Q 1816 3084 2150 3084 
Q 2853 3084 3261 2657 
Q 3669 2231 3669 1497 
Q 3669 778 3244 343 
Q 2819 -91 2113 -91 
Q 1303 -91 875 529 
Q 447 1150 447 2328 
Q 447 3434 972 4092 
Q 1497 4750 2381 4750 
Q 2619 4750 2861 4703 
Q 3103 4656 3366 4563 
z
" transform="scale(0.015625)"/>
     </defs>
     <use xlink:href="#DejaVuSans-36"/>
    </g>
   </g>
   <g id="text_13">
    <!-- G -->
    <g transform="translate(180.368415 462.368125) scale(0.3 -0.3)">
     <use xlink:href="#DejaVuSans-47"/>
    </g>
   </g>
   <g id="text_14">
    <!-- 7 -->
    <g transform="translate(188.173572 477.77125) scale(0.12 -0.12)">
     <defs>
      <path id="DejaVuSans-37" d="M 525 4666 
L 3525 4666 
L 3525 4397 
L 1831 0 
L 1172 0 
L 2766 4134 
L 525 4134 
L 525 4666 
z
" transform="scale(0.015625)"/>
     </defs>
     <use xlink:href="#DejaVuSans-37"/>
    </g>
   </g>
   <g id="text_15">
    <!-- Q -->
    <g transform="translate(281.84028 183.067757) scale(0.3 -0.3)">
     <defs>
      <path id="DejaVuSans-51" d="M 2522 4238 
Q 1834 4238 1429 3725 
Q 1025 3213 1025 2328 
Q 1025 1447 1429 934 
Q 1834 422 2522 422 
Q 3209 422 3611 934 
Q 4013 1447 4013 2328 
Q 4013 3213 3611 3725 
Q 3209 4238 2522 4238 
z
M 3406 84 
L 4238 -825 
L 3475 -825 
L 2784 -78 
Q 2681 -84 2626 -87 
Q 2572 -91 2522 -91 
Q 1538 -91 948 567 
Q 359 1225 359 2328 
Q 359 3434 948 4092 
Q 1538 4750 2522 4750 
Q 3503 4750 4090 4092 
Q 4678 3434 4678 2328 
Q 4678 1516 4351 937 
Q 4025 359 3406 84 
z
" transform="scale(0.015625)"/>
     </defs>
     <use xlink:href="#DejaVuSans-51"/>
    </g>
   </g>
   <g id="text_16">
    <!-- 8 -->
    <g transform="translate(289.830592 198.470882) scale(0.12 -0.12)">
     <defs>
      <path id="DejaVuSans-38" d="M 2034 2216 
Q 1584 2216 1326 1975 
Q 1069 1734 1069 1313 
Q 1069 891 1326 650 
Q 1584 409 2034 409 
Q 2484 409 2743 651 
Q 3003 894 3003 1313 
Q 3003 1734 2745 1975 
Q 2488 2216 2034 2216 
z
M 1403 2484 
Q 997 2584 770 2862 
Q 544 3141 544 3541 
Q 544 4100 942 4425 
Q 1341 4750 2034 4750 
Q 2731 4750 3128 4425 
Q 3525 4100 3525 3541 
Q 3525 3141 3298 2862 
Q 3072 2584 2669 2484 
Q 3125 2378 3379 2068 
Q 3634 1759 3634 1313 
Q 3634 634 3220 271 
Q 2806 -91 2034 -91 
Q 1263 -91 848 271 
Q 434 634 434 1313 
Q 434 1759 690 2068 
Q 947 2378 1403 2484 
z
M 1172 3481 
Q 1172 3119 1398 2916 
Q 1625 2713 2034 2713 
Q 2441 2713 2670 2916 
Q 2900 3119 2900 3481 
Q 2900 3844 2670 4047 
Q 2441 4250 2034 4250 
Q 1625 4250 1398 4047 
Q 1172 3844 1172 3481 
z
" transform="scale(0.015625)"/>
     </defs>
     <use xlink:href="#DejaVuSans-38"/>
    </g>
   </g>
   <g id="text_17">
    <!-- G -->
    <g transform="translate(539.430048 331.680379) scale(0.3 -0.3)">
     <use xlink:href="#DejaVuSans-47"/>
    </g>
   </g>
   <g id="text_18">
    <!-- 9 -->
    <g transform="translate(547.235204 347.083504) scale(0.12 -0.12)">
     <defs>
      <path id="DejaVuSans-39" d="M 703 97 
L 703 672 
Q 941 559 1184 500 
Q 1428 441 1663 441 
Q 2288 441 2617 861 
Q 2947 1281 2994 2138 
Q 2813 1869 2534 1725 
Q 2256 1581 1919 1581 
Q 1219 1581 811 2004 
Q 403 2428 403 3163 
Q 403 3881 828 4315 
Q 1253 4750 1959 4750 
Q 2769 4750 3195 4129 
Q 3622 3509 3622 2328 
Q 3622 1225 3098 567 
Q 2575 -91 1691 -91 
Q 1453 -91 1209 -44 
Q 966 3 703 97 
z
M 1959 2075 
Q 2384 2075 2632 2365 
Q 2881 2656 2881 3163 
Q 2881 3666 2632 3958 
Q 2384 4250 1959 4250 
Q 1534 4250 1286 3958 
Q 1038 3666 1038 3163 
Q 1038 2656 1286 2365 
Q 1534 2075 1959 2075 
z
" transform="scale(0.015625)"/>
     </defs>
     <use xlink:href="#DejaVuSans-39"/>
    </g>
   </g>
   <g id="text_19">
    <!-- V -->
    <g transform="translate(349.739063 559.368125) scale(0.3 -0.3)">
     <defs>
      <path id="DejaVuSans-56" d="M 1831 0 
L 50 4666 
L 709 4666 
L 2188 738 
L 3669 4666 
L 4325 4666 
L 2547 0 
L 1831 0 
z
" transform="scale(0.015625)"/>
     </defs>
     <use xlink:href="#DejaVuSans-56"/>
    </g>
   </g>
   <g id="text_20">
    <!-- 10 -->
    <g transform="translate(352.365 574.77125) scale(0.12 -0.12)">
     <defs>
      <path id="DejaVuSans-30" d="M 2034 4250 
Q 1547 4250 1301 3770 
Q 1056 3291 1056 2328 
Q 1056 1369 1301 889 
Q 1547 409 2034 409 
Q 2525 409 2770 889 
Q 3016 1369 3016 2328 
Q 3016 3291 2770 3770 
Q 2525 4250 2034 4250 
z
M 2034 4750 
Q 2819 4750 3233 4129 
Q 3647 3509 3647 2328 
Q 3647 1150 3233 529 
Q 2819 -91 2034 -91 
Q 1250 -91 836 529 
Q 422 1150 422 2328 
Q 422 3509 836 4129 
Q 1250 4750 2034 4750 
z
" transform="scale(0.015625)"/>
     </defs>
     <use xlink:href="#DejaVuSans-31"/>
     <use xlink:href="#DejaVuSans-30" x="63.623047"/>
    </g>
   </g>
   <g id="text_21">
    <!-- G -->
    <g transform="translate(157.32464 331.680379) scale(0.3 -0.3)">
     <use xlink:href="#DejaVuSans-47"/>
    </g>
   </g>
   <g id="text_22">
    <!-- 11 -->
    <g transform="translate(161.312296 347.083504) scale(0.12 -0.12)">
     <use xlink:href="#DejaVuSans-31"/>
     <use xlink:href="#DejaVuSans-31" x="63.623047"/>
    </g>
   </g>
   <g id="text_23">
    <!-- K -->
    <g transform="translate(416.515189 183.067757) scale(0.3 -0.3)">
     <defs>
      <path id="DejaVuSans-4b" d="M 628 4666 
L 1259 4666 
L 1259 2694 
L 3353 4666 
L 4166 4666 
L 1850 2491 
L 4331 0 
L 3500 0 
L 1259 2247 
L 1259 0 
L 628 0 
L 628 4666 
z
" transform="scale(0.015625)"/>
     </defs>
     <use xlink:href="#DejaVuSans-4b"/>
    </g>
   </g>
   <g id="text_24">
    <!-- 12 -->
    <g transform="translate(418.716908 198.470882) scale(0.12 -0.12)">
     <use xlink:href="#DejaVuSans-31"/>
     <use xlink:href="#DejaVuSans-32" x="63.623047"/>
    </g>
   </g>
   <g id="text_25">
    <!-- A -->
    <g transform="translate(517.747991 462.368125) scale(0.3 -0.3)">
     <defs>
      <path id="DejaVuSans-41" d="M 2188 4044 
L 1331 1722 
L 3047 1722 
L 2188 4044 
z
M 1831 4666 
L 2547 4666 
L 4325 0 
L 3669 0 
L 3244 1197 
L 1141 1197 
L 716 0 
L 50 0 
L 1831 4666 
z
" transform="scale(0.015625)"/>
     </defs>
     <use xlink:href="#DejaVuSans-41"/>
    </g>
   </g>
   <g id="text_26">
    <!-- 13 -->
    <g transform="translate(520.373928 477.77125) scale(0.12 -0.12)">
     <use xlink:href="#DejaVuSans-31"/>
     <use xlink:href="#DejaVuSans-33" x="63.623047"/>
    </g>
   </g>
   <g id="text_27">
    <!-- A -->
    <g transform="translate(225.038266 513.980747) scale(0.3 -0.3)">
     <use xlink:href="#DejaVuSans-41"/>
    </g>
   </g>
   <g id="text_28">
    <!-- 14 -->
    <g transform="translate(227.664204 529.383872) scale(0.12 -0.12)">
     <use xlink:href="#DejaVuSans-31"/>
     <use xlink:href="#DejaVuSans-34" x="63.623047"/>
    </g>
   </g>
   <g id="text_29">
    <!-- Y -->
    <g transform="translate(226.137485 216.755503) scale(0.3 -0.3)">
     <defs>
      <path id="DejaVuSans-59" d="M -13 4666 
L 666 4666 
L 1959 2747 
L 3244 4666 
L 3922 4666 
L 2272 2222 
L 2272 0 
L 1638 0 
L 1638 2222 
L -13 4666 
z
" transform="scale(0.015625)"/>
     </defs>
     <use xlink:href="#DejaVuSans-59"/>
    </g>
   </g>
   <g id="text_30">
    <!-- 15 -->
    <g transform="translate(227.664204 232.158628) scale(0.12 -0.12)">
     <use xlink:href="#DejaVuSans-31"/>
     <use xlink:href="#DejaVuSans-35" x="63.623047"/>
    </g>
   </g>
   <g id="text_31">
    <!-- W -->
    <g transform="translate(513.177678 268.368125) scale(0.3 -0.3)">
     <use xlink:href="#DejaVuSans-57"/>
    </g>
   </g>
   <g id="text_32">
    <!-- 16 -->
    <g transform="translate(520.373928 283.77125) scale(0.12 -0.12)">
     <use xlink:href="#DejaVuSans-31"/>
     <use xlink:href="#DejaVuSans-36" x="63.623047"/>
    </g>
   </g>
   <g id="text_33">
    <!-- V -->
    <g transform="translate(416.09097 547.668493) scale(0.3 -0.3)">
     <use xlink:href="#DejaVuSans-56"/>
    </g>
   </g>
   <g id="text_34">
    <!-- 17 -->
    <g transform="translate(418.716908 563.071618) scale(0.12 -0.12)">
     <use xlink:href="#DejaVuSans-31"/>
     <use xlink:href="#DejaVuSans-37" x="63.623047"/>
    </g>
   </g>
   <g id="text_35">
    <!-- G -->
    <g transform="translate(157.32464 399.055871) scale(0.3 -0.3)">
     <use xlink:href="#DejaVuSans-47"/>
    </g>
   </g>
   <g id="text_36">
    <!-- 18 -->
    <g transform="translate(161.312296 414.458996) scale(0.12 -0.12)">
     <use xlink:href="#DejaVuSans-31"/>
     <use xlink:href="#DejaVuSans-38" x="63.623047"/>
    </g>
   </g>
   <g id="text_37">
    <!-- K -->
    <g transform="translate(350.163281 109.288125) scale(0.3 -0.3)">
     <use xlink:href="#DejaVuSans-4b"/>
    </g>
   </g>
   <g id="text_38">
    <!-- 19 -->
    <g transform="translate(352.365 124.69125) scale(0.12 -0.12)">
     <use xlink:href="#DejaVuSans-31"/>
     <use xlink:href="#DejaVuSans-39" x="63.623047"/>
    </g>
   </g>
   <g id="text_39">
    <!-- A -->
    <g transform="translate(601.928632 409.83595) scale(0.3 -0.3)">
     <use xlink:href="#DejaVuSans-41"/>
    </g>
   </g>
   <g id="text_40">
    <!-- 20 -->
    <g transform="translate(604.554569 425.239075) scale(0.12 -0.12)">
     <use xlink:href="#DejaVuSans-32"/>
     <use xlink:href="#DejaVuSans-30" x="63.623047"/>
    </g>
   </g>
   <g id="text_41">
    <!-- M -->
    <g transform="translate(259.473294 606.004611) scale(0.3 -0.3)">
     <defs>
      <path id="DejaVuSans-4d" d="M 628 4666 
L 1569 4666 
L 2759 1491 
L 3956 4666 
L 4897 4666 
L 4897 0 
L 4281 0 
L 4281 4097 
L 3078 897 
L 2444 897 
L 1241 4097 
L 1241 0 
L 628 0 
L 628 4666 
z
" transform="scale(0.015625)"/>
     </defs>
     <use xlink:href="#DejaVuSans-4d"/>
    </g>
   </g>
   <g id="text_42">
    <!-- 21 -->
    <g transform="translate(264.780482 621.407736) scale(0.12 -0.12)">
     <use xlink:href="#DejaVuSans-32"/>
     <use xlink:href="#DejaVuSans-31" x="63.623047"/>
    </g>
   </g>
   <g id="text_43">
    <!-- G -->
    <g transform="translate(126.605558 237.328125) scale(0.3 -0.3)">
     <use xlink:href="#DejaVuSans-47"/>
    </g>
   </g>
   <g id="text_44">
    <!-- 22 -->
    <g transform="translate(130.593215 252.73125) scale(0.12 -0.12)">
     <use xlink:href="#DejaVuSans-32"/>
     <use xlink:href="#DejaVuSans-32" x="63.623047"/>
    </g>
   </g>
   <g id="text_45">
    <!-- N -->
    <g transform="translate(513.383176 169.199464) scale(0.3 -0.3)">
     <defs>
      <path id="DejaVuSans-4e" d="M 628 4666 
L 1478 4666 
L 3547 763 
L 3547 4666 
L 4159 4666 
L 4159 0 
L 3309 0 
L 1241 3903 
L 1241 0 
L 628 0 
L 628 4666 
z
" transform="scale(0.015625)"/>
     </defs>
     <use xlink:href="#DejaVuSans-4e"/>
    </g>
   </g>
   <g id="text_46">
    <!-- 23 -->
    <g transform="translate(516.970051 184.602589) scale(0.12 -0.12)">
     <use xlink:href="#DejaVuSans-32"/>
     <use xlink:href="#DejaVuSans-33" x="63.623047"/>
    </g>
   </g>
   <g id="text_47">
    <!-- M -->
    <g transform="translate(511.662864 561.536786) scale(0.3 -0.3)">
     <use xlink:href="#DejaVuSans-4d"/>
    </g>
   </g>
   <g id="text_48">
    <!-- 24 -->
    <g transform="translate(516.970051 576.939911) scale(0.12 -0.12)">
     <use xlink:href="#DejaVuSans-32"/>
     <use xlink:href="#DejaVuSans-34" x="63.623047"/>
    </g>
   </g>
   <g id="text_49">
    <!-- S -->
    <g transform="translate(128.705558 493.408125) scale(0.3 -0.3)">
     <use xlink:href="#DejaVuSans-53"/>
    </g>
   </g>
   <g id="text_50">
    <!-- 25 -->
    <g transform="translate(130.593215 508.81125) scale(0.12 -0.12)">
     <use xlink:href="#DejaVuSans-32"/>
     <use xlink:href="#DejaVuSans-35" x="63.623047"/>
    </g>
   </g>
   <g id="text_51">
    <!-- D -->
    <g transform="translate(260.865482 124.731639) scale(0.3 -0.3)">
     <use xlink:href="#DejaVuSans-44"/>
    </g>
   </g>
   <g id="text_52">
    <!-- 26 -->
    <g transform="translate(264.780482 140.134764) scale(0.12 -0.12)">
     <use xlink:href="#DejaVuSans-32"/>
     <use xlink:href="#DejaVuSans-36" x="63.623047"/>
    </g>
   </g>
   <g id="text_53">
    <!-- V -->
    <g transform="translate(601.928632 320.9003) scale(0.3 -0.3)">
     <use xlink:href="#DejaVuSans-56"/>
    </g>
   </g>
   <g id="text_54">
    <!-- 27 -->
    <g transform="translate(604.554569 336.303425) scale(0.12 -0.12)">
     <use xlink:href="#DejaVuSans-32"/>
     <use xlink:href="#DejaVuSans-37" x="63.623047"/>
    </g>
   </g>
   <g id="text_55">
    <!-- N -->
    <g transform="translate(348.778125 621.448125) scale(0.3 -0.3)">
     <use xlink:href="#DejaVuSans-4e"/>
    </g>
   </g>
   <g id="text_56">
    <!-- 28 -->
    <g transform="translate(352.365 636.85125) scale(0.12 -0.12)">
     <use xlink:href="#DejaVuSans-32"/>
     <use xlink:href="#DejaVuSans-38" x="63.623047"/>
    </g>
   </g>
   <g id="text_57">
    <!-- Q -->
    <g transform="translate(96.002618 320.9003) scale(0.3 -0.3)">
     <use xlink:href="#DejaVuSans-51"/>
    </g>
   </g>
   <g id="text_58">
    <!-- 29 -->
    <g transform="translate(100.175431 336.303425) scale(0.12 -0.12)">
     <use xlink:href="#DejaVuSans-32"/>
     <use xlink:href="#DejaVuSans-39" x="63.623047"/>
    </g>
   </g>
   <g id="text_59">
    <!-- A -->
    <g transform="translate(437.323581 124.731639) scale(0.3 -0.3)">
     <use xlink:href="#DejaVuSans-41"/>
    </g>
   </g>
   <g id="text_60">
    <!-- 30 -->
    <g transform="translate(439.949518 140.134764) scale(0.12 -0.12)">
     <use xlink:href="#DejaVuSans-33"/>
     <use xlink:href="#DejaVuSans-30" x="63.623047"/>
    </g>
   </g>
   <g id="text_61">
    <!-- S -->
    <g transform="translate(572.249129 493.408125) scale(0.3 -0.3)">
     <use xlink:href="#DejaVuSans-53"/>
    </g>
   </g>
   <g id="text_62">
    <!-- 31 -->
    <g transform="translate(574.136785 508.81125) scale(0.12 -0.12)">
     <use xlink:href="#DejaVuSans-33"/>
     <use xlink:href="#DejaVuSans-31" x="63.623047"/>
    </g>
   </g>
   <g id="text_63">
    <!-- R -->
    <g transform="translate(184.972293 561.536786) scale(0.3 -0.3)">
     <defs>
      <path id="DejaVuSans-52" d="M 2841 2188 
Q 3044 2119 3236 1894 
Q 3428 1669 3622 1275 
L 4263 0 
L 3584 0 
L 2988 1197 
Q 2756 1666 2539 1819 
Q 2322 1972 1947 1972 
L 1259 1972 
L 1259 0 
L 628 0 
L 628 4666 
L 2053 4666 
Q 2853 4666 3247 4331 
Q 3641 3997 3641 3322 
Q 3641 2881 3436 2590 
Q 3231 2300 2841 2188 
z
M 1259 4147 
L 1259 2491 
L 2053 2491 
Q 2509 2491 2742 2702 
Q 2975 2913 2975 3322 
Q 2975 3731 2742 3939 
Q 2509 4147 2053 4147 
L 1259 4147 
z
" transform="scale(0.015625)"/>
     </defs>
     <use xlink:href="#DejaVuSans-52"/>
    </g>
   </g>
   <g id="text_64">
    <!-- 32 -->
    <g transform="translate(187.759949 576.939911) scale(0.12 -0.12)">
     <use xlink:href="#DejaVuSans-33"/>
     <use xlink:href="#DejaVuSans-32" x="63.623047"/>
    </g>
   </g>
   <g id="text_65">
    <!-- I -->
    <g transform="translate(190.969949 169.199464) scale(0.3 -0.3)">
     <use xlink:href="#DejaVuSans-49"/>
    </g>
   </g>
   <g id="text_66">
    <!-- 33 -->
    <g transform="translate(187.759949 184.602589) scale(0.12 -0.12)">
     <use xlink:href="#DejaVuSans-33"/>
     <use xlink:href="#DejaVuSans-33" x="63.623047"/>
    </g>
   </g>
   <g id="text_67">
    <!-- N -->
    <g transform="translate(570.54991 237.328125) scale(0.3 -0.3)">
     <use xlink:href="#DejaVuSans-4e"/>
    </g>
   </g>
   <g id="text_68">
    <!-- 34 -->
    <g transform="translate(574.136785 252.73125) scale(0.12 -0.12)">
     <use xlink:href="#DejaVuSans-33"/>
     <use xlink:href="#DejaVuSans-34" x="63.623047"/>
    </g>
   </g>
   <g id="text_69">
    <!-- R -->
    <g transform="translate(437.161862 606.004611) scale(0.3 -0.3)">
     <use xlink:href="#DejaVuSans-52"/>
    </g>
   </g>
   <g id="text_70">
    <!-- 35 -->
    <g transform="translate(439.949518 621.407736) scale(0.12 -0.12)">
     <use xlink:href="#DejaVuSans-33"/>
     <use xlink:href="#DejaVuSans-35" x="63.623047"/>
    </g>
   </g>
   <g id="text_71">
    <!-- K -->
    <g transform="translate(97.973712 409.83595) scale(0.3 -0.3)">
     <use xlink:href="#DejaVuSans-4b"/>
    </g>
   </g>
   <g id="text_72">
    <!-- 36 -->
    <g transform="translate(100.175431 425.239075) scale(0.12 -0.12)">
     <use xlink:href="#DejaVuSans-33"/>
     <use xlink:href="#DejaVuSans-36" x="63.623047"/>
    </g>
   </g>
   <g id="text_73">
    <!-- K -->
    <g transform="translate(350.163281 47.208125) scale(0.3 -0.3)">
     <use xlink:href="#DejaVuSans-4b"/>
    </g>
   </g>
   <g id="text_74">
    <!-- 37 -->
    <g transform="translate(352.365 62.61125) scale(0.12 -0.12)">
     <use xlink:href="#DejaVuSans-33"/>
     <use xlink:href="#DejaVuSans-37" x="63.623047"/>
    </g>
   </g>
   <g id="text_75">
    <!-- K -->
    <g transform="translate(663.489716 420.616029) scale(0.3 -0.3)">
     <use xlink:href="#DejaVuSans-4b"/>
    </g>
   </g>
   <g id="text_76">
    <!-- 38 -->
    <g transform="translate(665.691435 436.019154) scale(0.12 -0.12)">
     <use xlink:href="#DejaVuSans-33"/>
     <use xlink:href="#DejaVuSans-38" x="63.623047"/>
    </g>
   </g>
   <g id="text_77">
    <!-- H -->
    <g transform="translate(239.902402 664.340729) scale(0.3 -0.3)">
     <defs>
      <path id="DejaVuSans-48" d="M 628 4666 
L 1259 4666 
L 1259 2753 
L 3553 2753 
L 3553 4666 
L 4184 4666 
L 4184 0 
L 3553 0 
L 3553 2222 
L 1259 2222 
L 1259 0 
L 628 0 
L 628 4666 
z
" transform="scale(0.015625)"/>
     </defs>
     <use xlink:href="#DejaVuSans-48"/>
    </g>
   </g>
   <g id="text_78">
    <!-- 39 -->
    <g transform="translate(243.547871 679.743854) scale(0.12 -0.12)">
     <use xlink:href="#DejaVuSans-33"/>
     <use xlink:href="#DejaVuSans-39" x="63.623047"/>
    </g>
   </g>
  </g>
 </g>
 <defs>
  <clipPath id="p8f9b4ada96">
   <rect x="10.8" y="10.8" width="698.4" height="698.4"/>
  </clipPath>
 </defs>
</svg>
