<?xml version="1.0" encoding="utf-8" standalone="no"?>
<!DOCTYPE svg PUBLIC "-//W3C//DTD SVG 1.1//EN"
  "http://www.w3.org/Graphics/SVG/1.1/DTD/svg11.dtd">
<svg xmlns:xlink="http://www.w3.org/1999/xlink" width="398.560625pt" height="310.86825pt" viewBox="0 0 398.560625 310.86825" xmlns="http://www.w3.org/2000/svg" version="1.1">
 <metadata>
  <rdf:RDF xmlns:dc="http://purl.org/dc/elements/1.1/" xmlns:cc="http://creativecommons.org/ns#" xmlns:rdf="http://www.w3.org/1999/02/22-rdf-syntax-ns#">
   <cc:Work>
    <dc:type rdf:resource="http://purl.org/dc/dcmitype/StillImage"/>
    <dc:date>2023-07-07T15:58:42.662691</dc:date>
    <dc:format>image/svg+xml</dc:format>
    <dc:creator>
     <cc:Agent>
      <dc:title>Matplotlib v3.7.1, https://matplotlib.org/</dc:title>
     </cc:Agent>
    </dc:creator>
   </cc:Work>
  </rdf:RDF>
 </metadata>
 <defs>
  <style type="text/css">*{stroke-linejoin: round; stroke-linecap: butt}</style>
 </defs>
 <g id="figure_1">
  <g id="patch_1">
   <path d="M 0 310.86825 
L 398.560625 310.86825 
L 398.560625 0 
L 0 0 
z
" style="fill: #ffffff"/>
  </g>
  <g id="axes_1">
   <g id="patch_2">
    <path d="M 34.240625 273.312 
L 391.360625 273.312 
L 391.360625 7.2 
L 34.240625 7.2 
z
" style="fill: #ffffff"/>
   </g>
   <g id="PolyCollection_1">
    <defs>
     <path id="mf323841406" d="M 50.473352 -196.388656 
L 50.473352 -37.55625 
L 52.104782 -37.55625 
L 53.736212 -37.55625 
L 55.367642 -37.55625 
L 56.999072 -37.55625 
L 58.630502 -37.55625 
L 60.261932 -37.55625 
L 61.893361 -37.55625 
L 63.524791 -37.55625 
L 65.156221 -37.55625 
L 66.787651 -37.55625 
L 68.419081 -37.55625 
L 70.050511 -37.55625 
L 71.681941 -37.55625 
L 73.313371 -37.55625 
L 74.9448 -37.55625 
L 76.57623 -37.55625 
L 78.20766 -37.55625 
L 79.83909 -37.55625 
L 81.47052 -37.55625 
L 83.10195 -37.55625 
L 84.73338 -37.55625 
L 86.36481 -37.55625 
L 87.996239 -37.55625 
L 89.627669 -37.55625 
L 91.259099 -37.55625 
L 92.890529 -37.55625 
L 94.521959 -37.55625 
L 96.153389 -37.55625 
L 97.784819 -37.55625 
L 99.416249 -37.55625 
L 101.047678 -37.55625 
L 102.679108 -37.55625 
L 104.310538 -37.55625 
L 105.941968 -37.55625 
L 107.573398 -37.55625 
L 109.204828 -37.55625 
L 110.836258 -37.55625 
L 112.467688 -37.55625 
L 114.099117 -37.55625 
L 115.730547 -37.55625 
L 117.361977 -37.55625 
L 118.993407 -37.55625 
L 120.624837 -37.55625 
L 122.256267 -37.55625 
L 123.887697 -37.55625 
L 125.519127 -37.55625 
L 127.150556 -37.55625 
L 128.781986 -37.55625 
L 130.413416 -37.55625 
L 132.044846 -37.55625 
L 133.676276 -37.55625 
L 135.307706 -37.55625 
L 136.939136 -37.55625 
L 138.570566 -37.55625 
L 140.201995 -37.55625 
L 141.833425 -37.55625 
L 143.464855 -37.55625 
L 145.096285 -37.55625 
L 146.727715 -37.55625 
L 148.359145 -37.55625 
L 149.990575 -37.55625 
L 151.622005 -37.55625 
L 153.253435 -37.55625 
L 154.884864 -37.55625 
L 156.516294 -37.55625 
L 158.147724 -37.55625 
L 159.779154 -37.55625 
L 161.410584 -37.55625 
L 163.042014 -37.55625 
L 164.673444 -37.55625 
L 166.304874 -37.55625 
L 167.936303 -37.55625 
L 169.567733 -37.55625 
L 171.199163 -37.55625 
L 172.830593 -37.55625 
L 174.462023 -37.55625 
L 176.093453 -37.55625 
L 177.724883 -37.55625 
L 179.356313 -37.55625 
L 180.987742 -37.55625 
L 182.619172 -37.55625 
L 184.250602 -37.55625 
L 185.882032 -37.55625 
L 187.513462 -37.55625 
L 189.144892 -37.55625 
L 190.776322 -37.55625 
L 192.407752 -37.55625 
L 194.039181 -37.55625 
L 195.670611 -37.55625 
L 197.302041 -37.55625 
L 198.933471 -37.55625 
L 200.564901 -37.55625 
L 202.196331 -37.55625 
L 203.827761 -37.55625 
L 205.459191 -37.55625 
L 207.09062 -37.55625 
L 208.72205 -37.55625 
L 210.35348 -37.55625 
L 211.98491 -37.55625 
L 213.61634 -37.55625 
L 215.24777 -37.55625 
L 216.8792 -37.55625 
L 218.51063 -37.55625 
L 220.142059 -37.55625 
L 221.773489 -37.55625 
L 223.404919 -37.55625 
L 225.036349 -37.55625 
L 226.667779 -37.55625 
L 228.299209 -37.55625 
L 229.930639 -37.55625 
L 231.562069 -37.55625 
L 233.193498 -37.55625 
L 234.824928 -37.55625 
L 236.456358 -37.55625 
L 238.087788 -37.55625 
L 239.719218 -37.55625 
L 241.350648 -37.55625 
L 242.982078 -37.55625 
L 244.613508 -37.55625 
L 246.244937 -37.55625 
L 247.876367 -37.55625 
L 249.507797 -37.55625 
L 251.139227 -37.55625 
L 252.770657 -37.55625 
L 254.402087 -37.55625 
L 256.033517 -37.55625 
L 257.664947 -37.55625 
L 259.296376 -37.55625 
L 260.927806 -37.55625 
L 262.559236 -37.55625 
L 264.190666 -37.55625 
L 265.822096 -37.55625 
L 267.453526 -37.55625 
L 269.084956 -37.55625 
L 270.716386 -37.55625 
L 272.347815 -37.55625 
L 273.979245 -37.55625 
L 275.610675 -37.55625 
L 277.242105 -37.55625 
L 278.873535 -37.55625 
L 280.504965 -37.55625 
L 282.136395 -37.55625 
L 283.767825 -37.55625 
L 285.399255 -37.55625 
L 287.030684 -37.55625 
L 288.662114 -37.55625 
L 290.293544 -37.55625 
L 291.924974 -37.55625 
L 293.556404 -37.55625 
L 295.187834 -37.55625 
L 296.819264 -37.55625 
L 298.450694 -37.55625 
L 300.082123 -37.55625 
L 301.713553 -37.55625 
L 303.344983 -37.55625 
L 304.976413 -37.55625 
L 306.607843 -37.55625 
L 308.239273 -37.55625 
L 309.870703 -37.55625 
L 311.502133 -37.55625 
L 313.133562 -37.55625 
L 314.764992 -37.55625 
L 316.396422 -37.55625 
L 318.027852 -37.55625 
L 319.659282 -37.55625 
L 321.290712 -37.55625 
L 322.922142 -37.55625 
L 324.553572 -37.55625 
L 326.185001 -37.55625 
L 327.816431 -37.55625 
L 329.447861 -37.55625 
L 331.079291 -37.55625 
L 332.710721 -37.55625 
L 334.342151 -37.55625 
L 335.973581 -37.55625 
L 337.605011 -37.55625 
L 339.23644 -37.55625 
L 340.86787 -37.55625 
L 342.4993 -37.55625 
L 344.13073 -37.55625 
L 345.76216 -37.55625 
L 347.39359 -37.55625 
L 349.02502 -37.55625 
L 350.65645 -37.55625 
L 352.287879 -37.55625 
L 353.919309 -37.55625 
L 355.550739 -37.55625 
L 357.182169 -37.55625 
L 358.813599 -37.55625 
L 360.445029 -37.55625 
L 362.076459 -37.55625 
L 363.707889 -37.55625 
L 365.339318 -37.55625 
L 366.970748 -37.55625 
L 368.602178 -37.55625 
L 370.233608 -37.55625 
L 371.865038 -37.55625 
L 373.496468 -37.55625 
L 375.127898 -37.55625 
L 375.127898 -50.097792 
L 375.127898 -50.097792 
L 373.496468 -50.594946 
L 371.865038 -51.094017 
L 370.233608 -51.594906 
L 368.602178 -52.097638 
L 366.970748 -52.60236 
L 365.339318 -53.10934 
L 363.707889 -53.618961 
L 362.076459 -54.131713 
L 360.445029 -54.648189 
L 358.813599 -55.169065 
L 357.182169 -55.695092 
L 355.550739 -56.22708 
L 353.919309 -56.76588 
L 352.287879 -57.312365 
L 350.65645 -57.867413 
L 349.02502 -58.431884 
L 347.39359 -59.006603 
L 345.76216 -59.592335 
L 344.13073 -60.189765 
L 342.4993 -60.79948 
L 340.86787 -61.421946 
L 339.23644 -62.057488 
L 337.605011 -62.706278 
L 335.973581 -63.368308 
L 334.342151 -64.043387 
L 332.710721 -64.731117 
L 331.079291 -65.43089 
L 329.447861 -66.141877 
L 327.816431 -66.863022 
L 326.185001 -67.593039 
L 324.553572 -68.330413 
L 322.922142 -69.073405 
L 321.290712 -69.820054 
L 319.659282 -70.568192 
L 318.027852 -71.315457 
L 316.396422 -72.059305 
L 314.764992 -72.797035 
L 313.133562 -73.52581 
L 311.502133 -74.242684 
L 309.870703 -74.94463 
L 308.239273 -75.62857 
L 306.607843 -76.291412 
L 304.976413 -76.930079 
L 303.344983 -77.541551 
L 301.713553 -78.122897 
L 300.082123 -78.671313 
L 298.450694 -79.184159 
L 296.819264 -79.658994 
L 295.187834 -80.093609 
L 293.556404 -80.48606 
L 291.924974 -80.834697 
L 290.293544 -81.138189 
L 288.662114 -81.395547 
L 287.030684 -81.606146 
L 285.399255 -81.769734 
L 283.767825 -81.886451 
L 282.136395 -81.956824 
L 280.504965 -81.981781 
L 278.873535 -81.962637 
L 277.242105 -81.901093 
L 275.610675 -81.799223 
L 273.979245 -81.659459 
L 272.347815 -81.484566 
L 270.716386 -81.277628 
L 269.084956 -81.042015 
L 267.453526 -80.781358 
L 265.822096 -80.499516 
L 264.190666 -80.200547 
L 262.559236 -79.888672 
L 260.927806 -79.56824 
L 259.296376 -79.243697 
L 257.664947 -78.919551 
L 256.033517 -78.600335 
L 254.402087 -78.29058 
L 252.770657 -77.994778 
L 251.139227 -77.717359 
L 249.507797 -77.462658 
L 247.876367 -77.23489 
L 246.244937 -77.038132 
L 244.613508 -76.876296 
L 242.982078 -76.753115 
L 241.350648 -76.672128 
L 239.719218 -76.636667 
L 238.087788 -76.649845 
L 236.456358 -76.714553 
L 234.824928 -76.833459 
L 233.193498 -77.008998 
L 231.562069 -77.243386 
L 229.930639 -77.538617 
L 228.299209 -77.896473 
L 226.667779 -78.318539 
L 225.036349 -78.806212 
L 223.404919 -79.360717 
L 221.773489 -79.983129 
L 220.142059 -80.674391 
L 218.51063 -81.435338 
L 216.8792 -82.266718 
L 215.24777 -83.169224 
L 213.61634 -84.143514 
L 211.98491 -85.190242 
L 210.35348 -86.310086 
L 208.72205 -87.503771 
L 207.09062 -88.772101 
L 205.459191 -90.11598 
L 203.827761 -91.536434 
L 202.196331 -93.034633 
L 200.564901 -94.611909 
L 198.933471 -96.269763 
L 197.302041 -98.009878 
L 195.670611 -99.834119 
L 194.039181 -101.744527 
L 192.407752 -103.743315 
L 190.776322 -105.832843 
L 189.144892 -108.0156 
L 187.513462 -110.294167 
L 185.882032 -112.67118 
L 184.250602 -115.149282 
L 182.619172 -117.731069 
L 180.987742 -120.419026 
L 179.356313 -123.215465 
L 177.724883 -126.122448 
L 176.093453 -129.141709 
L 174.462023 -132.27458 
L 172.830593 -135.521906 
L 171.199163 -138.883965 
L 169.567733 -142.360392 
L 167.936303 -145.9501 
L 166.304874 -149.651214 
L 164.673444 -153.461013 
L 163.042014 -157.375871 
L 161.410584 -161.391224 
L 159.779154 -165.501543 
L 158.147724 -169.700317 
L 156.516294 -173.98006 
L 154.884864 -178.332332 
L 153.253435 -182.747772 
L 151.622005 -187.216157 
L 149.990575 -191.726466 
L 148.359145 -196.266971 
L 146.727715 -200.825338 
L 145.096285 -205.388735 
L 143.464855 -209.943963 
L 141.833425 -214.477582 
L 140.201995 -218.976053 
L 138.570566 -223.425873 
L 136.939136 -227.813719 
L 135.307706 -232.126578 
L 133.676276 -236.351873 
L 132.044846 -240.477582 
L 130.413416 -244.492338 
L 128.781986 -248.385513 
L 127.150556 -252.147283 
L 125.519127 -255.768677 
L 123.887697 -259.241597 
L 122.256267 -262.558817 
L 120.624837 -265.713967 
L 118.993407 -268.701482 
L 117.361977 -271.516541 
L 115.730547 -274.154984 
L 114.099117 -276.61321 
L 112.467688 -278.888067 
L 110.836258 -280.976733 
L 109.204828 -282.876587 
L 107.573398 -284.58508 
L 105.941968 -286.09962 
L 104.310538 -287.417448 
L 102.679108 -288.535539 
L 101.047678 -289.450517 
L 99.416249 -290.158581 
L 97.784819 -290.65547 
L 96.153389 -290.936435 
L 94.521959 -290.99625 
L 92.890529 -290.829248 
L 91.259099 -290.429382 
L 89.627669 -289.790316 
L 87.996239 -288.905537 
L 86.36481 -287.768499 
L 84.73338 -286.372778 
L 83.10195 -284.712247 
L 81.47052 -282.781261 
L 79.83909 -280.574858 
L 78.20766 -278.088949 
L 76.57623 -275.320516 
L 74.9448 -272.267796 
L 73.313371 -268.93046 
L 71.681941 -265.309763 
L 70.050511 -261.408684 
L 68.419081 -257.232031 
L 66.787651 -252.786527 
L 65.156221 -248.080852 
L 63.524791 -243.125666 
L 61.893361 -237.933586 
L 60.261932 -232.51914 
L 58.630502 -226.898674 
L 56.999072 -221.090244 
L 55.367642 -215.11346 
L 53.736212 -208.989319 
L 52.104782 -202.740001 
L 50.473352 -196.388656 
z
" style="stroke: #008000"/>
    </defs>
    <g clip-path="url(#p8dd21a878f)">
     <use xlink:href="#mf323841406" x="0" y="310.86825" style="fill: #008000; fill-opacity: 0.25; stroke: #008000"/>
    </g>
   </g>
   <g id="matplotlib.axis_1">
    <g id="xtick_1">
     <g id="line2d_1">
      <defs>
       <path id="mfe2c01bf63" d="M 0 0 
L 0 3.5 
" style="stroke: #000000; stroke-width: 0.8"/>
      </defs>
      <g>
       <use xlink:href="#mfe2c01bf63" x="50.473352" y="273.312" style="stroke: #000000; stroke-width: 0.8"/>
      </g>
     </g>
     <g id="text_1">
      <!-- 0.2 -->
      <g transform="translate(42.52179 287.910438) scale(0.1 -0.1)">
       <defs>
        <path id="DejaVuSans-30" d="M 2034 4250 
Q 1547 4250 1301 3770 
Q 1056 3291 1056 2328 
Q 1056 1369 1301 889 
Q 1547 409 2034 409 
Q 2525 409 2770 889 
Q 3016 1369 3016 2328 
Q 3016 3291 2770 3770 
Q 2525 4250 2034 4250 
z
M 2034 4750 
Q 2819 4750 3233 4129 
Q 3647 3509 3647 2328 
Q 3647 1150 3233 529 
Q 2819 -91 2034 -91 
Q 1250 -91 836 529 
Q 422 1150 422 2328 
Q 422 3509 836 4129 
Q 1250 4750 2034 4750 
z
" transform="scale(0.015625)"/>
        <path id="DejaVuSans-2e" d="M 684 794 
L 1344 794 
L 1344 0 
L 684 0 
L 684 794 
z
" transform="scale(0.015625)"/>
        <path id="DejaVuSans-32" d="M 1228 531 
L 3431 531 
L 3431 0 
L 469 0 
L 469 531 
Q 828 903 1448 1529 
Q 2069 2156 2228 2338 
Q 2531 2678 2651 2914 
Q 2772 3150 2772 3378 
Q 2772 3750 2511 3984 
Q 2250 4219 1831 4219 
Q 1534 4219 1204 4116 
Q 875 4013 500 3803 
L 500 4441 
Q 881 4594 1212 4672 
Q 1544 4750 1819 4750 
Q 2544 4750 2975 4387 
Q 3406 4025 3406 3419 
Q 3406 3131 3298 2873 
Q 3191 2616 2906 2266 
Q 2828 2175 2409 1742 
Q 1991 1309 1228 531 
z
" transform="scale(0.015625)"/>
       </defs>
       <use xlink:href="#DejaVuSans-30"/>
       <use xlink:href="#DejaVuSans-2e" x="63.623047"/>
       <use xlink:href="#DejaVuSans-32" x="95.410156"/>
      </g>
     </g>
    </g>
    <g id="xtick_2">
     <g id="line2d_2">
      <g>
       <use xlink:href="#mfe2c01bf63" x="125.974409" y="273.312" style="stroke: #000000; stroke-width: 0.8"/>
      </g>
     </g>
     <g id="text_2">
      <!-- 0.3 -->
      <g transform="translate(118.022847 287.910438) scale(0.1 -0.1)">
       <defs>
        <path id="DejaVuSans-33" d="M 2597 2516 
Q 3050 2419 3304 2112 
Q 3559 1806 3559 1356 
Q 3559 666 3084 287 
Q 2609 -91 1734 -91 
Q 1441 -91 1130 -33 
Q 819 25 488 141 
L 488 750 
Q 750 597 1062 519 
Q 1375 441 1716 441 
Q 2309 441 2620 675 
Q 2931 909 2931 1356 
Q 2931 1769 2642 2001 
Q 2353 2234 1838 2234 
L 1294 2234 
L 1294 2753 
L 1863 2753 
Q 2328 2753 2575 2939 
Q 2822 3125 2822 3475 
Q 2822 3834 2567 4026 
Q 2313 4219 1838 4219 
Q 1578 4219 1281 4162 
Q 984 4106 628 3988 
L 628 4550 
Q 988 4650 1302 4700 
Q 1616 4750 1894 4750 
Q 2613 4750 3031 4423 
Q 3450 4097 3450 3541 
Q 3450 3153 3228 2886 
Q 3006 2619 2597 2516 
z
" transform="scale(0.015625)"/>
       </defs>
       <use xlink:href="#DejaVuSans-30"/>
       <use xlink:href="#DejaVuSans-2e" x="63.623047"/>
       <use xlink:href="#DejaVuSans-33" x="95.410156"/>
      </g>
     </g>
    </g>
    <g id="xtick_3">
     <g id="line2d_3">
      <g>
       <use xlink:href="#mfe2c01bf63" x="201.475466" y="273.312" style="stroke: #000000; stroke-width: 0.8"/>
      </g>
     </g>
     <g id="text_3">
      <!-- 0.4 -->
      <g transform="translate(193.523904 287.910438) scale(0.1 -0.1)">
       <defs>
        <path id="DejaVuSans-34" d="M 2419 4116 
L 825 1625 
L 2419 1625 
L 2419 4116 
z
M 2253 4666 
L 3047 4666 
L 3047 1625 
L 3713 1625 
L 3713 1100 
L 3047 1100 
L 3047 0 
L 2419 0 
L 2419 1100 
L 313 1100 
L 313 1709 
L 2253 4666 
z
" transform="scale(0.015625)"/>
       </defs>
       <use xlink:href="#DejaVuSans-30"/>
       <use xlink:href="#DejaVuSans-2e" x="63.623047"/>
       <use xlink:href="#DejaVuSans-34" x="95.410156"/>
      </g>
     </g>
    </g>
    <g id="xtick_4">
     <g id="line2d_4">
      <g>
       <use xlink:href="#mfe2c01bf63" x="276.976524" y="273.312" style="stroke: #000000; stroke-width: 0.8"/>
      </g>
     </g>
     <g id="text_4">
      <!-- 0.5 -->
      <g transform="translate(269.024961 287.910438) scale(0.1 -0.1)">
       <defs>
        <path id="DejaVuSans-35" d="M 691 4666 
L 3169 4666 
L 3169 4134 
L 1269 4134 
L 1269 2991 
Q 1406 3038 1543 3061 
Q 1681 3084 1819 3084 
Q 2600 3084 3056 2656 
Q 3513 2228 3513 1497 
Q 3513 744 3044 326 
Q 2575 -91 1722 -91 
Q 1428 -91 1123 -41 
Q 819 9 494 109 
L 494 744 
Q 775 591 1075 516 
Q 1375 441 1709 441 
Q 2250 441 2565 725 
Q 2881 1009 2881 1497 
Q 2881 1984 2565 2268 
Q 2250 2553 1709 2553 
Q 1456 2553 1204 2497 
Q 953 2441 691 2322 
L 691 4666 
z
" transform="scale(0.015625)"/>
       </defs>
       <use xlink:href="#DejaVuSans-30"/>
       <use xlink:href="#DejaVuSans-2e" x="63.623047"/>
       <use xlink:href="#DejaVuSans-35" x="95.410156"/>
      </g>
     </g>
    </g>
    <g id="xtick_5">
     <g id="line2d_5">
      <g>
       <use xlink:href="#mfe2c01bf63" x="352.477581" y="273.312" style="stroke: #000000; stroke-width: 0.8"/>
      </g>
     </g>
     <g id="text_5">
      <!-- 0.6 -->
      <g transform="translate(344.526018 287.910438) scale(0.1 -0.1)">
       <defs>
        <path id="DejaVuSans-36" d="M 2113 2584 
Q 1688 2584 1439 2293 
Q 1191 2003 1191 1497 
Q 1191 994 1439 701 
Q 1688 409 2113 409 
Q 2538 409 2786 701 
Q 3034 994 3034 1497 
Q 3034 2003 2786 2293 
Q 2538 2584 2113 2584 
z
M 3366 4563 
L 3366 3988 
Q 3128 4100 2886 4159 
Q 2644 4219 2406 4219 
Q 1781 4219 1451 3797 
Q 1122 3375 1075 2522 
Q 1259 2794 1537 2939 
Q 1816 3084 2150 3084 
Q 2853 3084 3261 2657 
Q 3669 2231 3669 1497 
Q 3669 778 3244 343 
Q 2819 -91 2113 -91 
Q 1303 -91 875 529 
Q 447 1150 447 2328 
Q 447 3434 972 4092 
Q 1497 4750 2381 4750 
Q 2619 4750 2861 4703 
Q 3103 4656 3366 4563 
z
" transform="scale(0.015625)"/>
       </defs>
       <use xlink:href="#DejaVuSans-30"/>
       <use xlink:href="#DejaVuSans-2e" x="63.623047"/>
       <use xlink:href="#DejaVuSans-36" x="95.410156"/>
      </g>
     </g>
    </g>
    <g id="text_6">
     <!-- Amphipathicity (uH) -->
     <g transform="translate(162.544375 301.588562) scale(0.1 -0.1)">
      <defs>
       <path id="DejaVuSans-41" d="M 2188 4044 
L 1331 1722 
L 3047 1722 
L 2188 4044 
z
M 1831 4666 
L 2547 4666 
L 4325 0 
L 3669 0 
L 3244 1197 
L 1141 1197 
L 716 0 
L 50 0 
L 1831 4666 
z
" transform="scale(0.015625)"/>
       <path id="DejaVuSans-6d" d="M 3328 2828 
Q 3544 3216 3844 3400 
Q 4144 3584 4550 3584 
Q 5097 3584 5394 3201 
Q 5691 2819 5691 2113 
L 5691 0 
L 5113 0 
L 5113 2094 
Q 5113 2597 4934 2840 
Q 4756 3084 4391 3084 
Q 3944 3084 3684 2787 
Q 3425 2491 3425 1978 
L 3425 0 
L 2847 0 
L 2847 2094 
Q 2847 2600 2669 2842 
Q 2491 3084 2119 3084 
Q 1678 3084 1418 2786 
Q 1159 2488 1159 1978 
L 1159 0 
L 581 0 
L 581 3500 
L 1159 3500 
L 1159 2956 
Q 1356 3278 1631 3431 
Q 1906 3584 2284 3584 
Q 2666 3584 2933 3390 
Q 3200 3197 3328 2828 
z
" transform="scale(0.015625)"/>
       <path id="DejaVuSans-70" d="M 1159 525 
L 1159 -1331 
L 581 -1331 
L 581 3500 
L 1159 3500 
L 1159 2969 
Q 1341 3281 1617 3432 
Q 1894 3584 2278 3584 
Q 2916 3584 3314 3078 
Q 3713 2572 3713 1747 
Q 3713 922 3314 415 
Q 2916 -91 2278 -91 
Q 1894 -91 1617 61 
Q 1341 213 1159 525 
z
M 3116 1747 
Q 3116 2381 2855 2742 
Q 2594 3103 2138 3103 
Q 1681 3103 1420 2742 
Q 1159 2381 1159 1747 
Q 1159 1113 1420 752 
Q 1681 391 2138 391 
Q 2594 391 2855 752 
Q 3116 1113 3116 1747 
z
" transform="scale(0.015625)"/>
       <path id="DejaVuSans-68" d="M 3513 2113 
L 3513 0 
L 2938 0 
L 2938 2094 
Q 2938 2591 2744 2837 
Q 2550 3084 2163 3084 
Q 1697 3084 1428 2787 
Q 1159 2491 1159 1978 
L 1159 0 
L 581 0 
L 581 4863 
L 1159 4863 
L 1159 2956 
Q 1366 3272 1645 3428 
Q 1925 3584 2291 3584 
Q 2894 3584 3203 3211 
Q 3513 2838 3513 2113 
z
" transform="scale(0.015625)"/>
       <path id="DejaVuSans-69" d="M 603 3500 
L 1178 3500 
L 1178 0 
L 603 0 
L 603 3500 
z
M 603 4863 
L 1178 4863 
L 1178 4134 
L 603 4134 
L 603 4863 
z
" transform="scale(0.015625)"/>
       <path id="DejaVuSans-61" d="M 2194 1759 
Q 1497 1759 1228 1600 
Q 959 1441 959 1056 
Q 959 750 1161 570 
Q 1363 391 1709 391 
Q 2188 391 2477 730 
Q 2766 1069 2766 1631 
L 2766 1759 
L 2194 1759 
z
M 3341 1997 
L 3341 0 
L 2766 0 
L 2766 531 
Q 2569 213 2275 61 
Q 1981 -91 1556 -91 
Q 1019 -91 701 211 
Q 384 513 384 1019 
Q 384 1609 779 1909 
Q 1175 2209 1959 2209 
L 2766 2209 
L 2766 2266 
Q 2766 2663 2505 2880 
Q 2244 3097 1772 3097 
Q 1472 3097 1187 3025 
Q 903 2953 641 2809 
L 641 3341 
Q 956 3463 1253 3523 
Q 1550 3584 1831 3584 
Q 2591 3584 2966 3190 
Q 3341 2797 3341 1997 
z
" transform="scale(0.015625)"/>
       <path id="DejaVuSans-74" d="M 1172 4494 
L 1172 3500 
L 2356 3500 
L 2356 3053 
L 1172 3053 
L 1172 1153 
Q 1172 725 1289 603 
Q 1406 481 1766 481 
L 2356 481 
L 2356 0 
L 1766 0 
Q 1100 0 847 248 
Q 594 497 594 1153 
L 594 3053 
L 172 3053 
L 172 3500 
L 594 3500 
L 594 4494 
L 1172 4494 
z
" transform="scale(0.015625)"/>
       <path id="DejaVuSans-63" d="M 3122 3366 
L 3122 2828 
Q 2878 2963 2633 3030 
Q 2388 3097 2138 3097 
Q 1578 3097 1268 2742 
Q 959 2388 959 1747 
Q 959 1106 1268 751 
Q 1578 397 2138 397 
Q 2388 397 2633 464 
Q 2878 531 3122 666 
L 3122 134 
Q 2881 22 2623 -34 
Q 2366 -91 2075 -91 
Q 1284 -91 818 406 
Q 353 903 353 1747 
Q 353 2603 823 3093 
Q 1294 3584 2113 3584 
Q 2378 3584 2631 3529 
Q 2884 3475 3122 3366 
z
" transform="scale(0.015625)"/>
       <path id="DejaVuSans-79" d="M 2059 -325 
Q 1816 -950 1584 -1140 
Q 1353 -1331 966 -1331 
L 506 -1331 
L 506 -850 
L 844 -850 
Q 1081 -850 1212 -737 
Q 1344 -625 1503 -206 
L 1606 56 
L 191 3500 
L 800 3500 
L 1894 763 
L 2988 3500 
L 3597 3500 
L 2059 -325 
z
" transform="scale(0.015625)"/>
       <path id="DejaVuSans-20" transform="scale(0.015625)"/>
       <path id="DejaVuSans-28" d="M 1984 4856 
Q 1566 4138 1362 3434 
Q 1159 2731 1159 2009 
Q 1159 1288 1364 580 
Q 1569 -128 1984 -844 
L 1484 -844 
Q 1016 -109 783 600 
Q 550 1309 550 2009 
Q 550 2706 781 3412 
Q 1013 4119 1484 4856 
L 1984 4856 
z
" transform="scale(0.015625)"/>
       <path id="DejaVuSans-75" d="M 544 1381 
L 544 3500 
L 1119 3500 
L 1119 1403 
Q 1119 906 1312 657 
Q 1506 409 1894 409 
Q 2359 409 2629 706 
Q 2900 1003 2900 1516 
L 2900 3500 
L 3475 3500 
L 3475 0 
L 2900 0 
L 2900 538 
Q 2691 219 2414 64 
Q 2138 -91 1772 -91 
Q 1169 -91 856 284 
Q 544 659 544 1381 
z
M 1991 3584 
L 1991 3584 
z
" transform="scale(0.015625)"/>
       <path id="DejaVuSans-48" d="M 628 4666 
L 1259 4666 
L 1259 2753 
L 3553 2753 
L 3553 4666 
L 4184 4666 
L 4184 0 
L 3553 0 
L 3553 2222 
L 1259 2222 
L 1259 0 
L 628 0 
L 628 4666 
z
" transform="scale(0.015625)"/>
       <path id="DejaVuSans-29" d="M 513 4856 
L 1013 4856 
Q 1481 4119 1714 3412 
Q 1947 2706 1947 2009 
Q 1947 1309 1714 600 
Q 1481 -109 1013 -844 
L 513 -844 
Q 928 -128 1133 580 
Q 1338 1288 1338 2009 
Q 1338 2731 1133 3434 
Q 928 4138 513 4856 
z
" transform="scale(0.015625)"/>
      </defs>
      <use xlink:href="#DejaVuSans-41"/>
      <use xlink:href="#DejaVuSans-6d" x="68.408203"/>
      <use xlink:href="#DejaVuSans-70" x="165.820312"/>
      <use xlink:href="#DejaVuSans-68" x="229.296875"/>
      <use xlink:href="#DejaVuSans-69" x="292.675781"/>
      <use xlink:href="#DejaVuSans-70" x="320.458984"/>
      <use xlink:href="#DejaVuSans-61" x="383.935547"/>
      <use xlink:href="#DejaVuSans-74" x="445.214844"/>
      <use xlink:href="#DejaVuSans-68" x="484.423828"/>
      <use xlink:href="#DejaVuSans-69" x="547.802734"/>
      <use xlink:href="#DejaVuSans-63" x="575.585938"/>
      <use xlink:href="#DejaVuSans-69" x="630.566406"/>
      <use xlink:href="#DejaVuSans-74" x="658.349609"/>
      <use xlink:href="#DejaVuSans-79" x="697.558594"/>
      <use xlink:href="#DejaVuSans-20" x="756.738281"/>
      <use xlink:href="#DejaVuSans-28" x="788.525391"/>
      <use xlink:href="#DejaVuSans-75" x="827.539062"/>
      <use xlink:href="#DejaVuSans-48" x="890.917969"/>
      <use xlink:href="#DejaVuSans-29" x="966.113281"/>
     </g>
    </g>
   </g>
   <g id="matplotlib.axis_2">
    <g id="ytick_1">
     <g id="line2d_6">
      <defs>
       <path id="m5f6fa4c9c7" d="M 0 0 
L -3.5 0 
" style="stroke: #000000; stroke-width: 0.8"/>
      </defs>
      <g>
       <use xlink:href="#m5f6fa4c9c7" x="34.240625" y="273.312" style="stroke: #000000; stroke-width: 0.8"/>
      </g>
     </g>
     <g id="text_7">
      <!-- 0 -->
      <g transform="translate(20.878125 277.111219) scale(0.1 -0.1)">
       <use xlink:href="#DejaVuSans-30"/>
      </g>
     </g>
    </g>
    <g id="ytick_2">
     <g id="line2d_7">
      <g>
       <use xlink:href="#m5f6fa4c9c7" x="34.240625" y="224.078064" style="stroke: #000000; stroke-width: 0.8"/>
      </g>
     </g>
     <g id="text_8">
      <!-- 1 -->
      <g transform="translate(20.878125 227.877283) scale(0.1 -0.1)">
       <defs>
        <path id="DejaVuSans-31" d="M 794 531 
L 1825 531 
L 1825 4091 
L 703 3866 
L 703 4441 
L 1819 4666 
L 2450 4666 
L 2450 531 
L 3481 531 
L 3481 0 
L 794 0 
L 794 531 
z
" transform="scale(0.015625)"/>
       </defs>
       <use xlink:href="#DejaVuSans-31"/>
      </g>
     </g>
    </g>
    <g id="ytick_3">
     <g id="line2d_8">
      <g>
       <use xlink:href="#m5f6fa4c9c7" x="34.240625" y="174.844128" style="stroke: #000000; stroke-width: 0.8"/>
      </g>
     </g>
     <g id="text_9">
      <!-- 2 -->
      <g transform="translate(20.878125 178.643347) scale(0.1 -0.1)">
       <use xlink:href="#DejaVuSans-32"/>
      </g>
     </g>
    </g>
    <g id="ytick_4">
     <g id="line2d_9">
      <g>
       <use xlink:href="#m5f6fa4c9c7" x="34.240625" y="125.610192" style="stroke: #000000; stroke-width: 0.8"/>
      </g>
     </g>
     <g id="text_10">
      <!-- 3 -->
      <g transform="translate(20.878125 129.409411) scale(0.1 -0.1)">
       <use xlink:href="#DejaVuSans-33"/>
      </g>
     </g>
    </g>
    <g id="ytick_5">
     <g id="line2d_10">
      <g>
       <use xlink:href="#m5f6fa4c9c7" x="34.240625" y="76.376256" style="stroke: #000000; stroke-width: 0.8"/>
      </g>
     </g>
     <g id="text_11">
      <!-- 4 -->
      <g transform="translate(20.878125 80.175475) scale(0.1 -0.1)">
       <use xlink:href="#DejaVuSans-34"/>
      </g>
     </g>
    </g>
    <g id="ytick_6">
     <g id="line2d_11">
      <g>
       <use xlink:href="#m5f6fa4c9c7" x="34.240625" y="27.142321" style="stroke: #000000; stroke-width: 0.8"/>
      </g>
     </g>
     <g id="text_12">
      <!-- 5 -->
      <g transform="translate(20.878125 30.941539) scale(0.1 -0.1)">
       <use xlink:href="#DejaVuSans-35"/>
      </g>
     </g>
    </g>
    <g id="text_13">
     <!-- Density -->
     <g transform="translate(14.798438 159.264594) rotate(-90) scale(0.1 -0.1)">
      <defs>
       <path id="DejaVuSans-44" d="M 1259 4147 
L 1259 519 
L 2022 519 
Q 2988 519 3436 956 
Q 3884 1394 3884 2338 
Q 3884 3275 3436 3711 
Q 2988 4147 2022 4147 
L 1259 4147 
z
M 628 4666 
L 1925 4666 
Q 3281 4666 3915 4102 
Q 4550 3538 4550 2338 
Q 4550 1131 3912 565 
Q 3275 0 1925 0 
L 628 0 
L 628 4666 
z
" transform="scale(0.015625)"/>
       <path id="DejaVuSans-65" d="M 3597 1894 
L 3597 1613 
L 953 1613 
Q 991 1019 1311 708 
Q 1631 397 2203 397 
Q 2534 397 2845 478 
Q 3156 559 3463 722 
L 3463 178 
Q 3153 47 2828 -22 
Q 2503 -91 2169 -91 
Q 1331 -91 842 396 
Q 353 884 353 1716 
Q 353 2575 817 3079 
Q 1281 3584 2069 3584 
Q 2775 3584 3186 3129 
Q 3597 2675 3597 1894 
z
M 3022 2063 
Q 3016 2534 2758 2815 
Q 2500 3097 2075 3097 
Q 1594 3097 1305 2825 
Q 1016 2553 972 2059 
L 3022 2063 
z
" transform="scale(0.015625)"/>
       <path id="DejaVuSans-6e" d="M 3513 2113 
L 3513 0 
L 2938 0 
L 2938 2094 
Q 2938 2591 2744 2837 
Q 2550 3084 2163 3084 
Q 1697 3084 1428 2787 
Q 1159 2491 1159 1978 
L 1159 0 
L 581 0 
L 581 3500 
L 1159 3500 
L 1159 2956 
Q 1366 3272 1645 3428 
Q 1925 3584 2291 3584 
Q 2894 3584 3203 3211 
Q 3513 2838 3513 2113 
z
" transform="scale(0.015625)"/>
       <path id="DejaVuSans-73" d="M 2834 3397 
L 2834 2853 
Q 2591 2978 2328 3040 
Q 2066 3103 1784 3103 
Q 1356 3103 1142 2972 
Q 928 2841 928 2578 
Q 928 2378 1081 2264 
Q 1234 2150 1697 2047 
L 1894 2003 
Q 2506 1872 2764 1633 
Q 3022 1394 3022 966 
Q 3022 478 2636 193 
Q 2250 -91 1575 -91 
Q 1294 -91 989 -36 
Q 684 19 347 128 
L 347 722 
Q 666 556 975 473 
Q 1284 391 1588 391 
Q 1994 391 2212 530 
Q 2431 669 2431 922 
Q 2431 1156 2273 1281 
Q 2116 1406 1581 1522 
L 1381 1569 
Q 847 1681 609 1914 
Q 372 2147 372 2553 
Q 372 3047 722 3315 
Q 1072 3584 1716 3584 
Q 2034 3584 2315 3537 
Q 2597 3491 2834 3397 
z
" transform="scale(0.015625)"/>
      </defs>
      <use xlink:href="#DejaVuSans-44"/>
      <use xlink:href="#DejaVuSans-65" x="77.001953"/>
      <use xlink:href="#DejaVuSans-6e" x="138.525391"/>
      <use xlink:href="#DejaVuSans-73" x="201.904297"/>
      <use xlink:href="#DejaVuSans-69" x="254.003906"/>
      <use xlink:href="#DejaVuSans-74" x="281.787109"/>
      <use xlink:href="#DejaVuSans-79" x="320.996094"/>
     </g>
    </g>
   </g>
   <g id="patch_3">
    <path d="M 34.240625 273.312 
L 34.240625 7.2 
" style="fill: none; stroke: #000000; stroke-width: 0.8; stroke-linejoin: miter; stroke-linecap: square"/>
   </g>
   <g id="patch_4">
    <path d="M 391.360625 273.312 
L 391.360625 7.2 
" style="fill: none; stroke: #000000; stroke-width: 0.8; stroke-linejoin: miter; stroke-linecap: square"/>
   </g>
   <g id="patch_5">
    <path d="M 34.240625 273.312 
L 391.360625 273.312 
" style="fill: none; stroke: #000000; stroke-width: 0.8; stroke-linejoin: miter; stroke-linecap: square"/>
   </g>
   <g id="patch_6">
    <path d="M 34.240625 7.2 
L 391.360625 7.2 
" style="fill: none; stroke: #000000; stroke-width: 0.8; stroke-linejoin: miter; stroke-linecap: square"/>
   </g>
  </g>
 </g>
 <defs>
  <clipPath id="p8dd21a878f">
   <rect x="34.240625" y="7.2" width="357.12" height="266.112"/>
  </clipPath>
 </defs>
</svg>
