<?xml version="1.0" encoding="utf-8" standalone="no"?>
<!DOCTYPE svg PUBLIC "-//W3C//DTD SVG 1.1//EN"
  "http://www.w3.org/Graphics/SVG/1.1/DTD/svg11.dtd">
<svg xmlns:xlink="http://www.w3.org/1999/xlink" width="414.46375pt" height="310.86825pt" viewBox="0 0 414.46375 310.86825" xmlns="http://www.w3.org/2000/svg" version="1.1">
 <metadata>
  <rdf:RDF xmlns:dc="http://purl.org/dc/elements/1.1/" xmlns:cc="http://creativecommons.org/ns#" xmlns:rdf="http://www.w3.org/1999/02/22-rdf-syntax-ns#">
   <cc:Work>
    <dc:type rdf:resource="http://purl.org/dc/dcmitype/StillImage"/>
    <dc:date>2023-06-08T13:09:17.179305</dc:date>
    <dc:format>image/svg+xml</dc:format>
    <dc:creator>
     <cc:Agent>
      <dc:title>Matplotlib v3.7.1, https://matplotlib.org/</dc:title>
     </cc:Agent>
    </dc:creator>
   </cc:Work>
  </rdf:RDF>
 </metadata>
 <defs>
  <style type="text/css">*{stroke-linejoin: round; stroke-linecap: butt}</style>
 </defs>
 <g id="figure_1">
  <g id="patch_1">
   <path d="M 0 310.86825 
L 414.46375 310.86825 
L 414.46375 0 
L 0 0 
z
" style="fill: #ffffff"/>
  </g>
  <g id="axes_1">
   <g id="patch_2">
    <path d="M 50.14375 273.312 
L 407.26375 273.312 
L 407.26375 7.2 
L 50.14375 7.2 
z
" style="fill: #ffffff"/>
   </g>
   <g id="PolyCollection_1">
    <defs>
     <path id="m7742385e6a" d="M 66.376477 -265.477129 
L 66.376477 -37.55625 
L 68.007907 -37.55625 
L 69.639337 -37.55625 
L 71.270767 -37.55625 
L 72.902197 -37.55625 
L 74.533627 -37.55625 
L 76.165057 -37.55625 
L 77.796486 -37.55625 
L 79.427916 -37.55625 
L 81.059346 -37.55625 
L 82.690776 -37.55625 
L 84.322206 -37.55625 
L 85.953636 -37.55625 
L 87.585066 -37.55625 
L 89.216496 -37.55625 
L 90.847925 -37.55625 
L 92.479355 -37.55625 
L 94.110785 -37.55625 
L 95.742215 -37.55625 
L 97.373645 -37.55625 
L 99.005075 -37.55625 
L 100.636505 -37.55625 
L 102.267935 -37.55625 
L 103.899364 -37.55625 
L 105.530794 -37.55625 
L 107.162224 -37.55625 
L 108.793654 -37.55625 
L 110.425084 -37.55625 
L 112.056514 -37.55625 
L 113.687944 -37.55625 
L 115.319374 -37.55625 
L 116.950803 -37.55625 
L 118.582233 -37.55625 
L 120.213663 -37.55625 
L 121.845093 -37.55625 
L 123.476523 -37.55625 
L 125.107953 -37.55625 
L 126.739383 -37.55625 
L 128.370813 -37.55625 
L 130.002242 -37.55625 
L 131.633672 -37.55625 
L 133.265102 -37.55625 
L 134.896532 -37.55625 
L 136.527962 -37.55625 
L 138.159392 -37.55625 
L 139.790822 -37.55625 
L 141.422252 -37.55625 
L 143.053681 -37.55625 
L 144.685111 -37.55625 
L 146.316541 -37.55625 
L 147.947971 -37.55625 
L 149.579401 -37.55625 
L 151.210831 -37.55625 
L 152.842261 -37.55625 
L 154.473691 -37.55625 
L 156.10512 -37.55625 
L 157.73655 -37.55625 
L 159.36798 -37.55625 
L 160.99941 -37.55625 
L 162.63084 -37.55625 
L 164.26227 -37.55625 
L 165.8937 -37.55625 
L 167.52513 -37.55625 
L 169.15656 -37.55625 
L 170.787989 -37.55625 
L 172.419419 -37.55625 
L 174.050849 -37.55625 
L 175.682279 -37.55625 
L 177.313709 -37.55625 
L 178.945139 -37.55625 
L 180.576569 -37.55625 
L 182.207999 -37.55625 
L 183.839428 -37.55625 
L 185.470858 -37.55625 
L 187.102288 -37.55625 
L 188.733718 -37.55625 
L 190.365148 -37.55625 
L 191.996578 -37.55625 
L 193.628008 -37.55625 
L 195.259438 -37.55625 
L 196.890867 -37.55625 
L 198.522297 -37.55625 
L 200.153727 -37.55625 
L 201.785157 -37.55625 
L 203.416587 -37.55625 
L 205.048017 -37.55625 
L 206.679447 -37.55625 
L 208.310877 -37.55625 
L 209.942306 -37.55625 
L 211.573736 -37.55625 
L 213.205166 -37.55625 
L 214.836596 -37.55625 
L 216.468026 -37.55625 
L 218.099456 -37.55625 
L 219.730886 -37.55625 
L 221.362316 -37.55625 
L 222.993745 -37.55625 
L 224.625175 -37.55625 
L 226.256605 -37.55625 
L 227.888035 -37.55625 
L 229.519465 -37.55625 
L 231.150895 -37.55625 
L 232.782325 -37.55625 
L 234.413755 -37.55625 
L 236.045184 -37.55625 
L 237.676614 -37.55625 
L 239.308044 -37.55625 
L 240.939474 -37.55625 
L 242.570904 -37.55625 
L 244.202334 -37.55625 
L 245.833764 -37.55625 
L 247.465194 -37.55625 
L 249.096623 -37.55625 
L 250.728053 -37.55625 
L 252.359483 -37.55625 
L 253.990913 -37.55625 
L 255.622343 -37.55625 
L 257.253773 -37.55625 
L 258.885203 -37.55625 
L 260.516633 -37.55625 
L 262.148062 -37.55625 
L 263.779492 -37.55625 
L 265.410922 -37.55625 
L 267.042352 -37.55625 
L 268.673782 -37.55625 
L 270.305212 -37.55625 
L 271.936642 -37.55625 
L 273.568072 -37.55625 
L 275.199501 -37.55625 
L 276.830931 -37.55625 
L 278.462361 -37.55625 
L 280.093791 -37.55625 
L 281.725221 -37.55625 
L 283.356651 -37.55625 
L 284.988081 -37.55625 
L 286.619511 -37.55625 
L 288.25094 -37.55625 
L 289.88237 -37.55625 
L 291.5138 -37.55625 
L 293.14523 -37.55625 
L 294.77666 -37.55625 
L 296.40809 -37.55625 
L 298.03952 -37.55625 
L 299.67095 -37.55625 
L 301.30238 -37.55625 
L 302.933809 -37.55625 
L 304.565239 -37.55625 
L 306.196669 -37.55625 
L 307.828099 -37.55625 
L 309.459529 -37.55625 
L 311.090959 -37.55625 
L 312.722389 -37.55625 
L 314.353819 -37.55625 
L 315.985248 -37.55625 
L 317.616678 -37.55625 
L 319.248108 -37.55625 
L 320.879538 -37.55625 
L 322.510968 -37.55625 
L 324.142398 -37.55625 
L 325.773828 -37.55625 
L 327.405258 -37.55625 
L 329.036687 -37.55625 
L 330.668117 -37.55625 
L 332.299547 -37.55625 
L 333.930977 -37.55625 
L 335.562407 -37.55625 
L 337.193837 -37.55625 
L 338.825267 -37.55625 
L 340.456697 -37.55625 
L 342.088126 -37.55625 
L 343.719556 -37.55625 
L 345.350986 -37.55625 
L 346.982416 -37.55625 
L 348.613846 -37.55625 
L 350.245276 -37.55625 
L 351.876706 -37.55625 
L 353.508136 -37.55625 
L 355.139565 -37.55625 
L 356.770995 -37.55625 
L 358.402425 -37.55625 
L 360.033855 -37.55625 
L 361.665285 -37.55625 
L 363.296715 -37.55625 
L 364.928145 -37.55625 
L 366.559575 -37.55625 
L 368.191004 -37.55625 
L 369.822434 -37.55625 
L 371.453864 -37.55625 
L 373.085294 -37.55625 
L 374.716724 -37.55625 
L 376.348154 -37.55625 
L 377.979584 -37.55625 
L 379.611014 -37.55625 
L 381.242443 -37.55625 
L 382.873873 -37.55625 
L 384.505303 -37.55625 
L 386.136733 -37.55625 
L 387.768163 -37.55625 
L 389.399593 -37.55625 
L 391.031023 -37.55625 
L 391.031023 -44.567112 
L 391.031023 -44.567112 
L 389.399593 -44.71003 
L 387.768163 -44.83083 
L 386.136733 -44.928731 
L 384.505303 -45.00325 
L 382.873873 -45.054214 
L 381.242443 -45.081772 
L 379.611014 -45.086387 
L 377.979584 -45.068837 
L 376.348154 -45.030195 
L 374.716724 -44.971812 
L 373.085294 -44.895293 
L 371.453864 -44.802462 
L 369.822434 -44.695326 
L 368.191004 -44.576036 
L 366.559575 -44.446841 
L 364.928145 -44.310043 
L 363.296715 -44.167952 
L 361.665285 -44.022831 
L 360.033855 -43.876862 
L 358.402425 -43.732091 
L 356.770995 -43.590396 
L 355.139565 -43.453448 
L 353.508136 -43.322679 
L 351.876706 -43.199262 
L 350.245276 -43.084092 
L 348.613846 -42.977775 
L 346.982416 -42.880625 
L 345.350986 -42.792671 
L 343.719556 -42.713666 
L 342.088126 -42.643108 
L 340.456697 -42.580265 
L 338.825267 -42.524206 
L 337.193837 -42.473835 
L 335.562407 -42.427934 
L 333.930977 -42.385202 
L 332.299547 -42.344302 
L 330.668117 -42.303904 
L 329.036687 -42.262728 
L 327.405258 -42.21959 
L 325.773828 -42.173434 
L 324.142398 -42.123376 
L 322.510968 -42.068728 
L 320.879538 -42.009026 
L 319.248108 -41.944051 
L 317.616678 -41.873841 
L 315.985248 -41.798699 
L 314.353819 -41.719194 
L 312.722389 -41.636159 
L 311.090959 -41.550675 
L 309.459529 -41.46406 
L 307.828099 -41.377847 
L 306.196669 -41.293763 
L 304.565239 -41.213694 
L 302.933809 -41.139664 
L 301.30238 -41.073796 
L 299.67095 -41.018282 
L 298.03952 -40.975353 
L 296.40809 -40.947238 
L 294.77666 -40.936139 
L 293.14523 -40.944196 
L 291.5138 -40.973458 
L 289.88237 -41.025858 
L 288.25094 -41.103183 
L 286.619511 -41.207052 
L 284.988081 -41.338896 
L 283.356651 -41.499936 
L 281.725221 -41.691171 
L 280.093791 -41.913353 
L 278.462361 -42.166985 
L 276.830931 -42.4523 
L 275.199501 -42.769256 
L 273.568072 -43.117527 
L 271.936642 -43.496492 
L 270.305212 -43.905238 
L 268.673782 -44.34255 
L 267.042352 -44.806913 
L 265.410922 -45.296514 
L 263.779492 -45.809245 
L 262.148062 -46.342712 
L 260.516633 -46.894246 
L 258.885203 -47.460914 
L 257.253773 -48.039546 
L 255.622343 -48.626751 
L 253.990913 -49.218954 
L 252.359483 -49.812423 
L 250.728053 -50.403312 
L 249.096623 -50.987707 
L 247.465194 -51.561672 
L 245.833764 -52.121306 
L 244.202334 -52.662799 
L 242.570904 -53.182494 
L 240.939474 -53.67695 
L 239.308044 -54.143005 
L 237.676614 -54.577842 
L 236.045184 -54.979046 
L 234.413755 -55.344668 
L 232.782325 -55.673277 
L 231.150895 -55.964005 
L 229.519465 -56.21659 
L 227.888035 -56.431406 
L 226.256605 -56.609482 
L 224.625175 -56.752514 
L 222.993745 -56.862861 
L 221.362316 -56.94353 
L 219.730886 -56.99815 
L 218.099456 -57.03093 
L 216.468026 -57.046611 
L 214.836596 -57.050399 
L 213.205166 -57.047899 
L 211.573736 -57.045026 
L 209.942306 -57.047923 
L 208.310877 -57.062867 
L 206.679447 -57.096169 
L 205.048017 -57.15408 
L 203.416587 -57.242695 
L 201.785157 -57.367858 
L 200.153727 -57.535073 
L 198.522297 -57.749428 
L 196.890867 -58.015523 
L 195.259438 -58.337409 
L 193.628008 -58.718542 
L 191.996578 -59.161755 
L 190.365148 -59.669235 
L 188.733718 -60.24253 
L 187.102288 -60.88256 
L 185.470858 -61.589655 
L 183.839428 -62.363602 
L 182.207999 -63.203714 
L 180.576569 -64.108912 
L 178.945139 -65.077821 
L 177.313709 -66.108877 
L 175.682279 -67.200447 
L 174.050849 -68.350958 
L 172.419419 -69.559024 
L 170.787989 -70.823581 
L 169.15656 -72.144022 
L 167.52513 -73.520323 
L 165.8937 -74.953163 
L 164.26227 -76.444034 
L 162.63084 -77.995333 
L 160.99941 -79.61044 
L 159.36798 -81.293771 
L 157.73655 -83.050811 
L 156.10512 -84.888118 
L 154.473691 -86.813304 
L 152.842261 -88.834983 
L 151.210831 -90.962695 
L 149.579401 -93.206797 
L 147.947971 -95.578333 
L 146.316541 -98.088872 
L 144.685111 -100.750323 
L 143.053681 -103.574735 
L 141.422252 -106.574072 
L 139.790822 -109.759978 
L 138.159392 -113.143529 
L 136.527962 -116.734981 
L 134.896532 -120.543511 
L 133.265102 -124.576965 
L 131.633672 -128.841601 
L 130.002242 -133.341852 
L 128.370813 -138.080089 
L 126.739383 -143.056407 
L 125.107953 -148.268418 
L 123.476523 -153.711071 
L 121.845093 -159.376486 
L 120.213663 -165.253814 
L 118.582233 -171.329122 
L 116.950803 -177.585299 
L 115.319374 -184.001996 
L 113.687944 -190.555593 
L 112.056514 -197.219198 
L 110.425084 -203.962687 
L 108.793654 -210.752778 
L 107.162224 -217.553148 
L 105.530794 -224.324599 
L 103.899364 -231.02527 
L 102.267935 -237.610902 
L 100.636505 -244.035161 
L 99.005075 -250.250016 
L 97.373645 -256.206171 
L 95.742215 -261.853558 
L 94.110785 -267.141886 
L 92.479355 -272.021235 
L 90.847925 -276.442699 
L 89.216496 -280.35906 
L 87.585066 -283.72549 
L 85.953636 -286.500265 
L 84.322206 -288.645478 
L 82.690776 -290.127733 
L 81.059346 -290.918805 
L 79.427916 -290.99625 
L 77.796486 -290.343943 
L 76.165057 -288.952534 
L 74.533627 -286.819804 
L 72.902197 -283.950901 
L 71.270767 -280.358457 
L 69.639337 -276.062571 
L 68.007907 -271.090652 
L 66.376477 -265.477129 
z
" style="stroke: #ffd700"/>
    </defs>
    <g clip-path="url(#peeb7a1ef29)">
     <use xlink:href="#m7742385e6a" x="0" y="310.86825" style="fill: #ffd700; fill-opacity: 0.25; stroke: #ffd700"/>
    </g>
   </g>
   <g id="matplotlib.axis_1">
    <g id="xtick_1">
     <g id="line2d_1">
      <defs>
       <path id="mf1e1d51768" d="M 0 0 
L 0 3.5 
" style="stroke: #000000; stroke-width: 0.8"/>
      </defs>
      <g>
       <use xlink:href="#mf1e1d51768" x="58.515592" y="273.312" style="stroke: #000000; stroke-width: 0.8"/>
      </g>
     </g>
     <g id="text_1">
      <!-- 0 -->
      <g transform="translate(55.334342 287.910437) scale(0.1 -0.1)">
       <defs>
        <path id="DejaVuSans-30" d="M 2034 4250 
Q 1547 4250 1301 3770 
Q 1056 3291 1056 2328 
Q 1056 1369 1301 889 
Q 1547 409 2034 409 
Q 2525 409 2770 889 
Q 3016 1369 3016 2328 
Q 3016 3291 2770 3770 
Q 2525 4250 2034 4250 
z
M 2034 4750 
Q 2819 4750 3233 4129 
Q 3647 3509 3647 2328 
Q 3647 1150 3233 529 
Q 2819 -91 2034 -91 
Q 1250 -91 836 529 
Q 422 1150 422 2328 
Q 422 3509 836 4129 
Q 1250 4750 2034 4750 
z
" transform="scale(0.015625)"/>
       </defs>
       <use xlink:href="#DejaVuSans-30"/>
      </g>
     </g>
    </g>
    <g id="xtick_2">
     <g id="line2d_2">
      <g>
       <use xlink:href="#mf1e1d51768" x="137.124441" y="273.312" style="stroke: #000000; stroke-width: 0.8"/>
      </g>
     </g>
     <g id="text_2">
      <!-- 10 -->
      <g transform="translate(130.761941 287.910437) scale(0.1 -0.1)">
       <defs>
        <path id="DejaVuSans-31" d="M 794 531 
L 1825 531 
L 1825 4091 
L 703 3866 
L 703 4441 
L 1819 4666 
L 2450 4666 
L 2450 531 
L 3481 531 
L 3481 0 
L 794 0 
L 794 531 
z
" transform="scale(0.015625)"/>
       </defs>
       <use xlink:href="#DejaVuSans-31"/>
       <use xlink:href="#DejaVuSans-30" x="63.623047"/>
      </g>
     </g>
    </g>
    <g id="xtick_3">
     <g id="line2d_3">
      <g>
       <use xlink:href="#mf1e1d51768" x="215.73329" y="273.312" style="stroke: #000000; stroke-width: 0.8"/>
      </g>
     </g>
     <g id="text_3">
      <!-- 20 -->
      <g transform="translate(209.37079 287.910437) scale(0.1 -0.1)">
       <defs>
        <path id="DejaVuSans-32" d="M 1228 531 
L 3431 531 
L 3431 0 
L 469 0 
L 469 531 
Q 828 903 1448 1529 
Q 2069 2156 2228 2338 
Q 2531 2678 2651 2914 
Q 2772 3150 2772 3378 
Q 2772 3750 2511 3984 
Q 2250 4219 1831 4219 
Q 1534 4219 1204 4116 
Q 875 4013 500 3803 
L 500 4441 
Q 881 4594 1212 4672 
Q 1544 4750 1819 4750 
Q 2544 4750 2975 4387 
Q 3406 4025 3406 3419 
Q 3406 3131 3298 2873 
Q 3191 2616 2906 2266 
Q 2828 2175 2409 1742 
Q 1991 1309 1228 531 
z
" transform="scale(0.015625)"/>
       </defs>
       <use xlink:href="#DejaVuSans-32"/>
       <use xlink:href="#DejaVuSans-30" x="63.623047"/>
      </g>
     </g>
    </g>
    <g id="xtick_4">
     <g id="line2d_4">
      <g>
       <use xlink:href="#mf1e1d51768" x="294.342139" y="273.312" style="stroke: #000000; stroke-width: 0.8"/>
      </g>
     </g>
     <g id="text_4">
      <!-- 30 -->
      <g transform="translate(287.979639 287.910437) scale(0.1 -0.1)">
       <defs>
        <path id="DejaVuSans-33" d="M 2597 2516 
Q 3050 2419 3304 2112 
Q 3559 1806 3559 1356 
Q 3559 666 3084 287 
Q 2609 -91 1734 -91 
Q 1441 -91 1130 -33 
Q 819 25 488 141 
L 488 750 
Q 750 597 1062 519 
Q 1375 441 1716 441 
Q 2309 441 2620 675 
Q 2931 909 2931 1356 
Q 2931 1769 2642 2001 
Q 2353 2234 1838 2234 
L 1294 2234 
L 1294 2753 
L 1863 2753 
Q 2328 2753 2575 2939 
Q 2822 3125 2822 3475 
Q 2822 3834 2567 4026 
Q 2313 4219 1838 4219 
Q 1578 4219 1281 4162 
Q 984 4106 628 3988 
L 628 4550 
Q 988 4650 1302 4700 
Q 1616 4750 1894 4750 
Q 2613 4750 3031 4423 
Q 3450 4097 3450 3541 
Q 3450 3153 3228 2886 
Q 3006 2619 2597 2516 
z
" transform="scale(0.015625)"/>
       </defs>
       <use xlink:href="#DejaVuSans-33"/>
       <use xlink:href="#DejaVuSans-30" x="63.623047"/>
      </g>
     </g>
    </g>
    <g id="xtick_5">
     <g id="line2d_5">
      <g>
       <use xlink:href="#mf1e1d51768" x="372.950988" y="273.312" style="stroke: #000000; stroke-width: 0.8"/>
      </g>
     </g>
     <g id="text_5">
      <!-- 40 -->
      <g transform="translate(366.588488 287.910437) scale(0.1 -0.1)">
       <defs>
        <path id="DejaVuSans-34" d="M 2419 4116 
L 825 1625 
L 2419 1625 
L 2419 4116 
z
M 2253 4666 
L 3047 4666 
L 3047 1625 
L 3713 1625 
L 3713 1100 
L 3047 1100 
L 3047 0 
L 2419 0 
L 2419 1100 
L 313 1100 
L 313 1709 
L 2253 4666 
z
" transform="scale(0.015625)"/>
       </defs>
       <use xlink:href="#DejaVuSans-34"/>
       <use xlink:href="#DejaVuSans-30" x="63.623047"/>
      </g>
     </g>
    </g>
    <g id="text_6">
     <!-- Helicity (AGADIR score) -->
     <g transform="translate(170.092031 301.588562) scale(0.1 -0.1)">
      <defs>
       <path id="DejaVuSans-48" d="M 628 4666 
L 1259 4666 
L 1259 2753 
L 3553 2753 
L 3553 4666 
L 4184 4666 
L 4184 0 
L 3553 0 
L 3553 2222 
L 1259 2222 
L 1259 0 
L 628 0 
L 628 4666 
z
" transform="scale(0.015625)"/>
       <path id="DejaVuSans-65" d="M 3597 1894 
L 3597 1613 
L 953 1613 
Q 991 1019 1311 708 
Q 1631 397 2203 397 
Q 2534 397 2845 478 
Q 3156 559 3463 722 
L 3463 178 
Q 3153 47 2828 -22 
Q 2503 -91 2169 -91 
Q 1331 -91 842 396 
Q 353 884 353 1716 
Q 353 2575 817 3079 
Q 1281 3584 2069 3584 
Q 2775 3584 3186 3129 
Q 3597 2675 3597 1894 
z
M 3022 2063 
Q 3016 2534 2758 2815 
Q 2500 3097 2075 3097 
Q 1594 3097 1305 2825 
Q 1016 2553 972 2059 
L 3022 2063 
z
" transform="scale(0.015625)"/>
       <path id="DejaVuSans-6c" d="M 603 4863 
L 1178 4863 
L 1178 0 
L 603 0 
L 603 4863 
z
" transform="scale(0.015625)"/>
       <path id="DejaVuSans-69" d="M 603 3500 
L 1178 3500 
L 1178 0 
L 603 0 
L 603 3500 
z
M 603 4863 
L 1178 4863 
L 1178 4134 
L 603 4134 
L 603 4863 
z
" transform="scale(0.015625)"/>
       <path id="DejaVuSans-63" d="M 3122 3366 
L 3122 2828 
Q 2878 2963 2633 3030 
Q 2388 3097 2138 3097 
Q 1578 3097 1268 2742 
Q 959 2388 959 1747 
Q 959 1106 1268 751 
Q 1578 397 2138 397 
Q 2388 397 2633 464 
Q 2878 531 3122 666 
L 3122 134 
Q 2881 22 2623 -34 
Q 2366 -91 2075 -91 
Q 1284 -91 818 406 
Q 353 903 353 1747 
Q 353 2603 823 3093 
Q 1294 3584 2113 3584 
Q 2378 3584 2631 3529 
Q 2884 3475 3122 3366 
z
" transform="scale(0.015625)"/>
       <path id="DejaVuSans-74" d="M 1172 4494 
L 1172 3500 
L 2356 3500 
L 2356 3053 
L 1172 3053 
L 1172 1153 
Q 1172 725 1289 603 
Q 1406 481 1766 481 
L 2356 481 
L 2356 0 
L 1766 0 
Q 1100 0 847 248 
Q 594 497 594 1153 
L 594 3053 
L 172 3053 
L 172 3500 
L 594 3500 
L 594 4494 
L 1172 4494 
z
" transform="scale(0.015625)"/>
       <path id="DejaVuSans-79" d="M 2059 -325 
Q 1816 -950 1584 -1140 
Q 1353 -1331 966 -1331 
L 506 -1331 
L 506 -850 
L 844 -850 
Q 1081 -850 1212 -737 
Q 1344 -625 1503 -206 
L 1606 56 
L 191 3500 
L 800 3500 
L 1894 763 
L 2988 3500 
L 3597 3500 
L 2059 -325 
z
" transform="scale(0.015625)"/>
       <path id="DejaVuSans-20" transform="scale(0.015625)"/>
       <path id="DejaVuSans-28" d="M 1984 4856 
Q 1566 4138 1362 3434 
Q 1159 2731 1159 2009 
Q 1159 1288 1364 580 
Q 1569 -128 1984 -844 
L 1484 -844 
Q 1016 -109 783 600 
Q 550 1309 550 2009 
Q 550 2706 781 3412 
Q 1013 4119 1484 4856 
L 1984 4856 
z
" transform="scale(0.015625)"/>
       <path id="DejaVuSans-41" d="M 2188 4044 
L 1331 1722 
L 3047 1722 
L 2188 4044 
z
M 1831 4666 
L 2547 4666 
L 4325 0 
L 3669 0 
L 3244 1197 
L 1141 1197 
L 716 0 
L 50 0 
L 1831 4666 
z
" transform="scale(0.015625)"/>
       <path id="DejaVuSans-47" d="M 3809 666 
L 3809 1919 
L 2778 1919 
L 2778 2438 
L 4434 2438 
L 4434 434 
Q 4069 175 3628 42 
Q 3188 -91 2688 -91 
Q 1594 -91 976 548 
Q 359 1188 359 2328 
Q 359 3472 976 4111 
Q 1594 4750 2688 4750 
Q 3144 4750 3555 4637 
Q 3966 4525 4313 4306 
L 4313 3634 
Q 3963 3931 3569 4081 
Q 3175 4231 2741 4231 
Q 1884 4231 1454 3753 
Q 1025 3275 1025 2328 
Q 1025 1384 1454 906 
Q 1884 428 2741 428 
Q 3075 428 3337 486 
Q 3600 544 3809 666 
z
" transform="scale(0.015625)"/>
       <path id="DejaVuSans-44" d="M 1259 4147 
L 1259 519 
L 2022 519 
Q 2988 519 3436 956 
Q 3884 1394 3884 2338 
Q 3884 3275 3436 3711 
Q 2988 4147 2022 4147 
L 1259 4147 
z
M 628 4666 
L 1925 4666 
Q 3281 4666 3915 4102 
Q 4550 3538 4550 2338 
Q 4550 1131 3912 565 
Q 3275 0 1925 0 
L 628 0 
L 628 4666 
z
" transform="scale(0.015625)"/>
       <path id="DejaVuSans-49" d="M 628 4666 
L 1259 4666 
L 1259 0 
L 628 0 
L 628 4666 
z
" transform="scale(0.015625)"/>
       <path id="DejaVuSans-52" d="M 2841 2188 
Q 3044 2119 3236 1894 
Q 3428 1669 3622 1275 
L 4263 0 
L 3584 0 
L 2988 1197 
Q 2756 1666 2539 1819 
Q 2322 1972 1947 1972 
L 1259 1972 
L 1259 0 
L 628 0 
L 628 4666 
L 2053 4666 
Q 2853 4666 3247 4331 
Q 3641 3997 3641 3322 
Q 3641 2881 3436 2590 
Q 3231 2300 2841 2188 
z
M 1259 4147 
L 1259 2491 
L 2053 2491 
Q 2509 2491 2742 2702 
Q 2975 2913 2975 3322 
Q 2975 3731 2742 3939 
Q 2509 4147 2053 4147 
L 1259 4147 
z
" transform="scale(0.015625)"/>
       <path id="DejaVuSans-73" d="M 2834 3397 
L 2834 2853 
Q 2591 2978 2328 3040 
Q 2066 3103 1784 3103 
Q 1356 3103 1142 2972 
Q 928 2841 928 2578 
Q 928 2378 1081 2264 
Q 1234 2150 1697 2047 
L 1894 2003 
Q 2506 1872 2764 1633 
Q 3022 1394 3022 966 
Q 3022 478 2636 193 
Q 2250 -91 1575 -91 
Q 1294 -91 989 -36 
Q 684 19 347 128 
L 347 722 
Q 666 556 975 473 
Q 1284 391 1588 391 
Q 1994 391 2212 530 
Q 2431 669 2431 922 
Q 2431 1156 2273 1281 
Q 2116 1406 1581 1522 
L 1381 1569 
Q 847 1681 609 1914 
Q 372 2147 372 2553 
Q 372 3047 722 3315 
Q 1072 3584 1716 3584 
Q 2034 3584 2315 3537 
Q 2597 3491 2834 3397 
z
" transform="scale(0.015625)"/>
       <path id="DejaVuSans-6f" d="M 1959 3097 
Q 1497 3097 1228 2736 
Q 959 2375 959 1747 
Q 959 1119 1226 758 
Q 1494 397 1959 397 
Q 2419 397 2687 759 
Q 2956 1122 2956 1747 
Q 2956 2369 2687 2733 
Q 2419 3097 1959 3097 
z
M 1959 3584 
Q 2709 3584 3137 3096 
Q 3566 2609 3566 1747 
Q 3566 888 3137 398 
Q 2709 -91 1959 -91 
Q 1206 -91 779 398 
Q 353 888 353 1747 
Q 353 2609 779 3096 
Q 1206 3584 1959 3584 
z
" transform="scale(0.015625)"/>
       <path id="DejaVuSans-72" d="M 2631 2963 
Q 2534 3019 2420 3045 
Q 2306 3072 2169 3072 
Q 1681 3072 1420 2755 
Q 1159 2438 1159 1844 
L 1159 0 
L 581 0 
L 581 3500 
L 1159 3500 
L 1159 2956 
Q 1341 3275 1631 3429 
Q 1922 3584 2338 3584 
Q 2397 3584 2469 3576 
Q 2541 3569 2628 3553 
L 2631 2963 
z
" transform="scale(0.015625)"/>
       <path id="DejaVuSans-29" d="M 513 4856 
L 1013 4856 
Q 1481 4119 1714 3412 
Q 1947 2706 1947 2009 
Q 1947 1309 1714 600 
Q 1481 -109 1013 -844 
L 513 -844 
Q 928 -128 1133 580 
Q 1338 1288 1338 2009 
Q 1338 2731 1133 3434 
Q 928 4138 513 4856 
z
" transform="scale(0.015625)"/>
      </defs>
      <use xlink:href="#DejaVuSans-48"/>
      <use xlink:href="#DejaVuSans-65" x="75.195312"/>
      <use xlink:href="#DejaVuSans-6c" x="136.71875"/>
      <use xlink:href="#DejaVuSans-69" x="164.501953"/>
      <use xlink:href="#DejaVuSans-63" x="192.285156"/>
      <use xlink:href="#DejaVuSans-69" x="247.265625"/>
      <use xlink:href="#DejaVuSans-74" x="275.048828"/>
      <use xlink:href="#DejaVuSans-79" x="314.257812"/>
      <use xlink:href="#DejaVuSans-20" x="373.4375"/>
      <use xlink:href="#DejaVuSans-28" x="405.224609"/>
      <use xlink:href="#DejaVuSans-41" x="444.238281"/>
      <use xlink:href="#DejaVuSans-47" x="510.896484"/>
      <use xlink:href="#DejaVuSans-41" x="588.386719"/>
      <use xlink:href="#DejaVuSans-44" x="656.794922"/>
      <use xlink:href="#DejaVuSans-49" x="733.796875"/>
      <use xlink:href="#DejaVuSans-52" x="763.289062"/>
      <use xlink:href="#DejaVuSans-20" x="832.771484"/>
      <use xlink:href="#DejaVuSans-73" x="864.558594"/>
      <use xlink:href="#DejaVuSans-63" x="916.658203"/>
      <use xlink:href="#DejaVuSans-6f" x="971.638672"/>
      <use xlink:href="#DejaVuSans-72" x="1032.820312"/>
      <use xlink:href="#DejaVuSans-65" x="1071.683594"/>
      <use xlink:href="#DejaVuSans-29" x="1133.207031"/>
     </g>
    </g>
   </g>
   <g id="matplotlib.axis_2">
    <g id="ytick_1">
     <g id="line2d_6">
      <defs>
       <path id="m721ab99f25" d="M 0 0 
L -3.5 0 
" style="stroke: #000000; stroke-width: 0.8"/>
      </defs>
      <g>
       <use xlink:href="#m721ab99f25" x="50.14375" y="273.312" style="stroke: #000000; stroke-width: 0.8"/>
      </g>
     </g>
     <g id="text_7">
      <!-- 0.00 -->
      <g transform="translate(20.878125 277.111219) scale(0.1 -0.1)">
       <defs>
        <path id="DejaVuSans-2e" d="M 684 794 
L 1344 794 
L 1344 0 
L 684 0 
L 684 794 
z
" transform="scale(0.015625)"/>
       </defs>
       <use xlink:href="#DejaVuSans-30"/>
       <use xlink:href="#DejaVuSans-2e" x="63.623047"/>
       <use xlink:href="#DejaVuSans-30" x="95.410156"/>
       <use xlink:href="#DejaVuSans-30" x="159.033203"/>
      </g>
     </g>
    </g>
    <g id="ytick_2">
     <g id="line2d_7">
      <g>
       <use xlink:href="#m721ab99f25" x="50.14375" y="243.736856" style="stroke: #000000; stroke-width: 0.8"/>
      </g>
     </g>
     <g id="text_8">
      <!-- 0.01 -->
      <g transform="translate(20.878125 247.536075) scale(0.1 -0.1)">
       <use xlink:href="#DejaVuSans-30"/>
       <use xlink:href="#DejaVuSans-2e" x="63.623047"/>
       <use xlink:href="#DejaVuSans-30" x="95.410156"/>
       <use xlink:href="#DejaVuSans-31" x="159.033203"/>
      </g>
     </g>
    </g>
    <g id="ytick_3">
     <g id="line2d_8">
      <g>
       <use xlink:href="#m721ab99f25" x="50.14375" y="214.161712" style="stroke: #000000; stroke-width: 0.8"/>
      </g>
     </g>
     <g id="text_9">
      <!-- 0.02 -->
      <g transform="translate(20.878125 217.960931) scale(0.1 -0.1)">
       <use xlink:href="#DejaVuSans-30"/>
       <use xlink:href="#DejaVuSans-2e" x="63.623047"/>
       <use xlink:href="#DejaVuSans-30" x="95.410156"/>
       <use xlink:href="#DejaVuSans-32" x="159.033203"/>
      </g>
     </g>
    </g>
    <g id="ytick_4">
     <g id="line2d_9">
      <g>
       <use xlink:href="#m721ab99f25" x="50.14375" y="184.586568" style="stroke: #000000; stroke-width: 0.8"/>
      </g>
     </g>
     <g id="text_10">
      <!-- 0.03 -->
      <g transform="translate(20.878125 188.385787) scale(0.1 -0.1)">
       <use xlink:href="#DejaVuSans-30"/>
       <use xlink:href="#DejaVuSans-2e" x="63.623047"/>
       <use xlink:href="#DejaVuSans-30" x="95.410156"/>
       <use xlink:href="#DejaVuSans-33" x="159.033203"/>
      </g>
     </g>
    </g>
    <g id="ytick_5">
     <g id="line2d_10">
      <g>
       <use xlink:href="#m721ab99f25" x="50.14375" y="155.011425" style="stroke: #000000; stroke-width: 0.8"/>
      </g>
     </g>
     <g id="text_11">
      <!-- 0.04 -->
      <g transform="translate(20.878125 158.810643) scale(0.1 -0.1)">
       <use xlink:href="#DejaVuSans-30"/>
       <use xlink:href="#DejaVuSans-2e" x="63.623047"/>
       <use xlink:href="#DejaVuSans-30" x="95.410156"/>
       <use xlink:href="#DejaVuSans-34" x="159.033203"/>
      </g>
     </g>
    </g>
    <g id="ytick_6">
     <g id="line2d_11">
      <g>
       <use xlink:href="#m721ab99f25" x="50.14375" y="125.436281" style="stroke: #000000; stroke-width: 0.8"/>
      </g>
     </g>
     <g id="text_12">
      <!-- 0.05 -->
      <g transform="translate(20.878125 129.235499) scale(0.1 -0.1)">
       <defs>
        <path id="DejaVuSans-35" d="M 691 4666 
L 3169 4666 
L 3169 4134 
L 1269 4134 
L 1269 2991 
Q 1406 3038 1543 3061 
Q 1681 3084 1819 3084 
Q 2600 3084 3056 2656 
Q 3513 2228 3513 1497 
Q 3513 744 3044 326 
Q 2575 -91 1722 -91 
Q 1428 -91 1123 -41 
Q 819 9 494 109 
L 494 744 
Q 775 591 1075 516 
Q 1375 441 1709 441 
Q 2250 441 2565 725 
Q 2881 1009 2881 1497 
Q 2881 1984 2565 2268 
Q 2250 2553 1709 2553 
Q 1456 2553 1204 2497 
Q 953 2441 691 2322 
L 691 4666 
z
" transform="scale(0.015625)"/>
       </defs>
       <use xlink:href="#DejaVuSans-30"/>
       <use xlink:href="#DejaVuSans-2e" x="63.623047"/>
       <use xlink:href="#DejaVuSans-30" x="95.410156"/>
       <use xlink:href="#DejaVuSans-35" x="159.033203"/>
      </g>
     </g>
    </g>
    <g id="ytick_7">
     <g id="line2d_12">
      <g>
       <use xlink:href="#m721ab99f25" x="50.14375" y="95.861137" style="stroke: #000000; stroke-width: 0.8"/>
      </g>
     </g>
     <g id="text_13">
      <!-- 0.06 -->
      <g transform="translate(20.878125 99.660356) scale(0.1 -0.1)">
       <defs>
        <path id="DejaVuSans-36" d="M 2113 2584 
Q 1688 2584 1439 2293 
Q 1191 2003 1191 1497 
Q 1191 994 1439 701 
Q 1688 409 2113 409 
Q 2538 409 2786 701 
Q 3034 994 3034 1497 
Q 3034 2003 2786 2293 
Q 2538 2584 2113 2584 
z
M 3366 4563 
L 3366 3988 
Q 3128 4100 2886 4159 
Q 2644 4219 2406 4219 
Q 1781 4219 1451 3797 
Q 1122 3375 1075 2522 
Q 1259 2794 1537 2939 
Q 1816 3084 2150 3084 
Q 2853 3084 3261 2657 
Q 3669 2231 3669 1497 
Q 3669 778 3244 343 
Q 2819 -91 2113 -91 
Q 1303 -91 875 529 
Q 447 1150 447 2328 
Q 447 3434 972 4092 
Q 1497 4750 2381 4750 
Q 2619 4750 2861 4703 
Q 3103 4656 3366 4563 
z
" transform="scale(0.015625)"/>
       </defs>
       <use xlink:href="#DejaVuSans-30"/>
       <use xlink:href="#DejaVuSans-2e" x="63.623047"/>
       <use xlink:href="#DejaVuSans-30" x="95.410156"/>
       <use xlink:href="#DejaVuSans-36" x="159.033203"/>
      </g>
     </g>
    </g>
    <g id="ytick_8">
     <g id="line2d_13">
      <g>
       <use xlink:href="#m721ab99f25" x="50.14375" y="66.285993" style="stroke: #000000; stroke-width: 0.8"/>
      </g>
     </g>
     <g id="text_14">
      <!-- 0.07 -->
      <g transform="translate(20.878125 70.085212) scale(0.1 -0.1)">
       <defs>
        <path id="DejaVuSans-37" d="M 525 4666 
L 3525 4666 
L 3525 4397 
L 1831 0 
L 1172 0 
L 2766 4134 
L 525 4134 
L 525 4666 
z
" transform="scale(0.015625)"/>
       </defs>
       <use xlink:href="#DejaVuSans-30"/>
       <use xlink:href="#DejaVuSans-2e" x="63.623047"/>
       <use xlink:href="#DejaVuSans-30" x="95.410156"/>
       <use xlink:href="#DejaVuSans-37" x="159.033203"/>
      </g>
     </g>
    </g>
    <g id="ytick_9">
     <g id="line2d_14">
      <g>
       <use xlink:href="#m721ab99f25" x="50.14375" y="36.710849" style="stroke: #000000; stroke-width: 0.8"/>
      </g>
     </g>
     <g id="text_15">
      <!-- 0.08 -->
      <g transform="translate(20.878125 40.510068) scale(0.1 -0.1)">
       <defs>
        <path id="DejaVuSans-38" d="M 2034 2216 
Q 1584 2216 1326 1975 
Q 1069 1734 1069 1313 
Q 1069 891 1326 650 
Q 1584 409 2034 409 
Q 2484 409 2743 651 
Q 3003 894 3003 1313 
Q 3003 1734 2745 1975 
Q 2488 2216 2034 2216 
z
M 1403 2484 
Q 997 2584 770 2862 
Q 544 3141 544 3541 
Q 544 4100 942 4425 
Q 1341 4750 2034 4750 
Q 2731 4750 3128 4425 
Q 3525 4100 3525 3541 
Q 3525 3141 3298 2862 
Q 3072 2584 2669 2484 
Q 3125 2378 3379 2068 
Q 3634 1759 3634 1313 
Q 3634 634 3220 271 
Q 2806 -91 2034 -91 
Q 1263 -91 848 271 
Q 434 634 434 1313 
Q 434 1759 690 2068 
Q 947 2378 1403 2484 
z
M 1172 3481 
Q 1172 3119 1398 2916 
Q 1625 2713 2034 2713 
Q 2441 2713 2670 2916 
Q 2900 3119 2900 3481 
Q 2900 3844 2670 4047 
Q 2441 4250 2034 4250 
Q 1625 4250 1398 4047 
Q 1172 3844 1172 3481 
z
" transform="scale(0.015625)"/>
       </defs>
       <use xlink:href="#DejaVuSans-30"/>
       <use xlink:href="#DejaVuSans-2e" x="63.623047"/>
       <use xlink:href="#DejaVuSans-30" x="95.410156"/>
       <use xlink:href="#DejaVuSans-38" x="159.033203"/>
      </g>
     </g>
    </g>
    <g id="text_16">
     <!-- Density -->
     <g transform="translate(14.798438 159.264594) rotate(-90) scale(0.1 -0.1)">
      <defs>
       <path id="DejaVuSans-6e" d="M 3513 2113 
L 3513 0 
L 2938 0 
L 2938 2094 
Q 2938 2591 2744 2837 
Q 2550 3084 2163 3084 
Q 1697 3084 1428 2787 
Q 1159 2491 1159 1978 
L 1159 0 
L 581 0 
L 581 3500 
L 1159 3500 
L 1159 2956 
Q 1366 3272 1645 3428 
Q 1925 3584 2291 3584 
Q 2894 3584 3203 3211 
Q 3513 2838 3513 2113 
z
" transform="scale(0.015625)"/>
      </defs>
      <use xlink:href="#DejaVuSans-44"/>
      <use xlink:href="#DejaVuSans-65" x="77.001953"/>
      <use xlink:href="#DejaVuSans-6e" x="138.525391"/>
      <use xlink:href="#DejaVuSans-73" x="201.904297"/>
      <use xlink:href="#DejaVuSans-69" x="254.003906"/>
      <use xlink:href="#DejaVuSans-74" x="281.787109"/>
      <use xlink:href="#DejaVuSans-79" x="320.996094"/>
     </g>
    </g>
   </g>
   <g id="patch_3">
    <path d="M 50.14375 273.312 
L 50.14375 7.2 
" style="fill: none; stroke: #000000; stroke-width: 0.8; stroke-linejoin: miter; stroke-linecap: square"/>
   </g>
   <g id="patch_4">
    <path d="M 407.26375 273.312 
L 407.26375 7.2 
" style="fill: none; stroke: #000000; stroke-width: 0.8; stroke-linejoin: miter; stroke-linecap: square"/>
   </g>
   <g id="patch_5">
    <path d="M 50.14375 273.312 
L 407.26375 273.312 
" style="fill: none; stroke: #000000; stroke-width: 0.8; stroke-linejoin: miter; stroke-linecap: square"/>
   </g>
   <g id="patch_6">
    <path d="M 50.14375 7.2 
L 407.26375 7.2 
" style="fill: none; stroke: #000000; stroke-width: 0.8; stroke-linejoin: miter; stroke-linecap: square"/>
   </g>
  </g>
 </g>
 <defs>
  <clipPath id="peeb7a1ef29">
   <rect x="50.14375" y="7.2" width="357.12" height="266.112"/>
  </clipPath>
 </defs>
</svg>
