<?xml version="1.0" encoding="utf-8" standalone="no"?>
<!DOCTYPE svg PUBLIC "-//W3C//DTD SVG 1.1//EN"
  "http://www.w3.org/Graphics/SVG/1.1/DTD/svg11.dtd">
<svg xmlns:xlink="http://www.w3.org/1999/xlink" width="406.512187pt" height="310.86825pt" viewBox="0 0 406.512187 310.86825" xmlns="http://www.w3.org/2000/svg" version="1.1">
 <metadata>
  <rdf:RDF xmlns:dc="http://purl.org/dc/elements/1.1/" xmlns:cc="http://creativecommons.org/ns#" xmlns:rdf="http://www.w3.org/1999/02/22-rdf-syntax-ns#">
   <cc:Work>
    <dc:type rdf:resource="http://purl.org/dc/dcmitype/StillImage"/>
    <dc:date>2023-06-08T13:09:05.164092</dc:date>
    <dc:format>image/svg+xml</dc:format>
    <dc:creator>
     <cc:Agent>
      <dc:title>Matplotlib v3.7.1, https://matplotlib.org/</dc:title>
     </cc:Agent>
    </dc:creator>
   </cc:Work>
  </rdf:RDF>
 </metadata>
 <defs>
  <style type="text/css">*{stroke-linejoin: round; stroke-linecap: butt}</style>
 </defs>
 <g id="figure_1">
  <g id="patch_1">
   <path d="M 0 310.86825 
L 406.512187 310.86825 
L 406.512187 0 
L 0 0 
z
" style="fill: #ffffff"/>
  </g>
  <g id="axes_1">
   <g id="patch_2">
    <path d="M 34.240625 273.312 
L 391.360625 273.312 
L 391.360625 7.2 
L 34.240625 7.2 
z
" style="fill: #ffffff"/>
   </g>
   <g id="PolyCollection_1">
    <defs>
     <path id="m8848459fbf" d="M 105.664625 -116.776223 
L 105.664625 -37.55625 
L 107.100283 -37.55625 
L 108.535942 -37.55625 
L 109.9716 -37.55625 
L 111.407258 -37.55625 
L 112.842916 -37.55625 
L 114.278575 -37.55625 
L 115.714233 -37.55625 
L 117.149891 -37.55625 
L 118.58555 -37.55625 
L 120.021208 -37.55625 
L 121.456866 -37.55625 
L 122.892524 -37.55625 
L 124.328183 -37.55625 
L 125.763841 -37.55625 
L 127.199499 -37.55625 
L 128.635158 -37.55625 
L 130.070816 -37.55625 
L 131.506474 -37.55625 
L 132.942133 -37.55625 
L 134.377791 -37.55625 
L 135.813449 -37.55625 
L 137.249107 -37.55625 
L 138.684766 -37.55625 
L 140.120424 -37.55625 
L 141.556082 -37.55625 
L 142.991741 -37.55625 
L 144.427399 -37.55625 
L 145.863057 -37.55625 
L 147.298715 -37.55625 
L 148.734374 -37.55625 
L 150.170032 -37.55625 
L 151.60569 -37.55625 
L 153.041349 -37.55625 
L 154.477007 -37.55625 
L 155.912665 -37.55625 
L 157.348323 -37.55625 
L 158.783982 -37.55625 
L 160.21964 -37.55625 
L 161.655298 -37.55625 
L 163.090957 -37.55625 
L 164.526615 -37.55625 
L 165.962273 -37.55625 
L 167.397932 -37.55625 
L 168.83359 -37.55625 
L 170.269248 -37.55625 
L 171.704906 -37.55625 
L 173.140565 -37.55625 
L 174.576223 -37.55625 
L 176.011881 -37.55625 
L 177.44754 -37.55625 
L 178.883198 -37.55625 
L 180.318856 -37.55625 
L 181.754514 -37.55625 
L 183.190173 -37.55625 
L 184.625831 -37.55625 
L 186.061489 -37.55625 
L 187.497148 -37.55625 
L 188.932806 -37.55625 
L 190.368464 -37.55625 
L 191.804122 -37.55625 
L 193.239781 -37.55625 
L 194.675439 -37.55625 
L 196.111097 -37.55625 
L 197.546756 -37.55625 
L 198.982414 -37.55625 
L 200.418072 -37.55625 
L 201.853731 -37.55625 
L 203.289389 -37.55625 
L 204.725047 -37.55625 
L 206.160705 -37.55625 
L 207.596364 -37.55625 
L 209.032022 -37.55625 
L 210.46768 -37.55625 
L 211.903339 -37.55625 
L 213.338997 -37.55625 
L 214.774655 -37.55625 
L 216.210313 -37.55625 
L 217.645972 -37.55625 
L 219.08163 -37.55625 
L 220.517288 -37.55625 
L 221.952947 -37.55625 
L 223.388605 -37.55625 
L 224.824263 -37.55625 
L 226.259921 -37.55625 
L 227.69558 -37.55625 
L 229.131238 -37.55625 
L 230.566896 -37.55625 
L 232.002555 -37.55625 
L 233.438213 -37.55625 
L 234.873871 -37.55625 
L 236.30953 -37.55625 
L 237.745188 -37.55625 
L 239.180846 -37.55625 
L 240.616504 -37.55625 
L 242.052163 -37.55625 
L 243.487821 -37.55625 
L 244.923479 -37.55625 
L 246.359138 -37.55625 
L 247.794796 -37.55625 
L 249.230454 -37.55625 
L 250.666112 -37.55625 
L 252.101771 -37.55625 
L 253.537429 -37.55625 
L 254.973087 -37.55625 
L 256.408746 -37.55625 
L 257.844404 -37.55625 
L 259.280062 -37.55625 
L 260.71572 -37.55625 
L 262.151379 -37.55625 
L 263.587037 -37.55625 
L 265.022695 -37.55625 
L 266.458354 -37.55625 
L 267.894012 -37.55625 
L 269.32967 -37.55625 
L 270.765329 -37.55625 
L 272.200987 -37.55625 
L 273.636645 -37.55625 
L 275.072303 -37.55625 
L 276.507962 -37.55625 
L 277.94362 -37.55625 
L 279.379278 -37.55625 
L 280.814937 -37.55625 
L 282.250595 -37.55625 
L 283.686253 -37.55625 
L 285.121911 -37.55625 
L 286.55757 -37.55625 
L 287.993228 -37.55625 
L 289.428886 -37.55625 
L 290.864545 -37.55625 
L 292.300203 -37.55625 
L 293.735861 -37.55625 
L 295.171519 -37.55625 
L 296.607178 -37.55625 
L 298.042836 -37.55625 
L 299.478494 -37.55625 
L 300.914153 -37.55625 
L 302.349811 -37.55625 
L 303.785469 -37.55625 
L 305.221128 -37.55625 
L 306.656786 -37.55625 
L 308.092444 -37.55625 
L 309.528102 -37.55625 
L 310.963761 -37.55625 
L 312.399419 -37.55625 
L 313.835077 -37.55625 
L 315.270736 -37.55625 
L 316.706394 -37.55625 
L 318.142052 -37.55625 
L 319.57771 -37.55625 
L 321.013369 -37.55625 
L 322.449027 -37.55625 
L 323.884685 -37.55625 
L 325.320344 -37.55625 
L 326.756002 -37.55625 
L 328.19166 -37.55625 
L 329.627318 -37.55625 
L 331.062977 -37.55625 
L 332.498635 -37.55625 
L 333.934293 -37.55625 
L 335.369952 -37.55625 
L 336.80561 -37.55625 
L 338.241268 -37.55625 
L 339.676927 -37.55625 
L 341.112585 -37.55625 
L 342.548243 -37.55625 
L 343.983901 -37.55625 
L 345.41956 -37.55625 
L 346.855218 -37.55625 
L 348.290876 -37.55625 
L 349.726535 -37.55625 
L 351.162193 -37.55625 
L 352.597851 -37.55625 
L 354.033509 -37.55625 
L 355.469168 -37.55625 
L 356.904826 -37.55625 
L 358.340484 -37.55625 
L 359.776143 -37.55625 
L 361.211801 -37.55625 
L 362.647459 -37.55625 
L 364.083117 -37.55625 
L 365.518776 -37.55625 
L 366.954434 -37.55625 
L 368.390092 -37.55625 
L 369.825751 -37.55625 
L 371.261409 -37.55625 
L 372.697067 -37.55625 
L 374.132726 -37.55625 
L 375.568384 -37.55625 
L 377.004042 -37.55625 
L 378.4397 -37.55625 
L 379.875359 -37.55625 
L 381.311017 -37.55625 
L 382.746675 -37.55625 
L 384.182334 -37.55625 
L 385.617992 -37.55625 
L 387.05365 -37.55625 
L 388.489308 -37.55625 
L 389.924967 -37.55625 
L 391.360625 -37.55625 
L 391.360625 -54.437368 
L 391.360625 -54.437368 
L 389.924967 -54.915577 
L 388.489308 -55.390955 
L 387.05365 -55.864247 
L 385.617992 -56.336323 
L 384.182334 -56.808163 
L 382.746675 -57.280836 
L 381.311017 -57.755481 
L 379.875359 -58.233285 
L 378.4397 -58.715461 
L 377.004042 -59.203232 
L 375.568384 -59.697807 
L 374.132726 -60.200367 
L 372.697067 -60.712049 
L 371.261409 -61.233935 
L 369.825751 -61.767043 
L 368.390092 -62.312319 
L 366.954434 -62.870637 
L 365.518776 -63.442797 
L 364.083117 -64.029532 
L 362.647459 -64.63151 
L 361.211801 -65.249347 
L 359.776143 -65.883614 
L 358.340484 -66.534855 
L 356.904826 -67.203592 
L 355.469168 -67.890346 
L 354.033509 -68.595646 
L 352.597851 -69.320043 
L 351.162193 -70.064119 
L 349.726535 -70.828497 
L 348.290876 -71.613846 
L 346.855218 -72.42088 
L 345.41956 -73.250367 
L 343.983901 -74.103112 
L 342.548243 -74.979959 
L 341.112585 -75.881776 
L 339.676927 -76.809439 
L 338.241268 -77.763816 
L 336.80561 -78.745748 
L 335.369952 -79.756022 
L 333.934293 -80.79535 
L 332.498635 -81.864345 
L 331.062977 -82.963493 
L 329.627318 -84.09313 
L 328.19166 -85.25342 
L 326.756002 -86.444333 
L 325.320344 -87.665627 
L 323.884685 -88.916832 
L 322.449027 -90.197242 
L 321.013369 -91.505904 
L 319.57771 -92.841621 
L 318.142052 -94.202952 
L 316.706394 -95.58822 
L 315.270736 -96.995527 
L 313.835077 -98.422772 
L 312.399419 -99.867671 
L 310.963761 -101.327787 
L 309.528102 -102.800561 
L 308.092444 -104.283342 
L 306.656786 -105.773428 
L 305.221128 -107.268105 
L 303.785469 -108.764685 
L 302.349811 -110.260547 
L 300.914153 -111.753179 
L 299.478494 -113.240218 
L 298.042836 -114.719488 
L 296.607178 -116.189036 
L 295.171519 -117.647166 
L 293.735861 -119.092466 
L 292.300203 -120.523839 
L 290.864545 -121.94052 
L 289.428886 -123.342096 
L 287.993228 -124.728514 
L 286.55757 -126.100089 
L 285.121911 -127.457505 
L 283.686253 -128.801808 
L 282.250595 -130.134392 
L 280.814937 -131.456989 
L 279.379278 -132.771638 
L 277.94362 -134.080662 
L 276.507962 -135.386631 
L 275.072303 -136.692323 
L 273.636645 -138.000684 
L 272.200987 -139.314774 
L 270.765329 -140.637721 
L 269.32967 -141.972664 
L 267.894012 -143.322696 
L 266.458354 -144.690808 
L 265.022695 -146.07983 
L 263.587037 -147.492371 
L 262.151379 -148.930763 
L 260.71572 -150.397011 
L 259.280062 -151.892734 
L 257.844404 -153.419129 
L 256.408746 -154.976923 
L 254.973087 -156.566346 
L 253.537429 -158.187103 
L 252.101771 -159.838359 
L 250.666112 -161.518735 
L 249.230454 -163.226312 
L 247.794796 -164.958645 
L 246.359138 -166.712798 
L 244.923479 -168.485376 
L 243.487821 -170.272586 
L 242.052163 -172.070297 
L 240.616504 -173.874114 
L 239.180846 -175.679469 
L 237.745188 -177.481716 
L 236.30953 -179.276232 
L 234.873871 -181.058528 
L 233.438213 -182.82437 
L 232.002555 -184.569887 
L 230.566896 -186.291697 
L 229.131238 -187.987016 
L 227.69558 -189.653772 
L 226.259921 -191.290707 
L 224.824263 -192.897463 
L 223.388605 -194.47467 
L 221.952947 -196.023996 
L 220.517288 -197.5482 
L 219.08163 -199.05115 
L 217.645972 -200.537823 
L 216.210313 -202.014281 
L 214.774655 -203.487617 
L 213.338997 -204.965883 
L 211.903339 -206.457981 
L 210.46768 -207.973532 
L 209.032022 -209.522723 
L 207.596364 -211.116122 
L 206.160705 -212.764479 
L 204.725047 -214.478498 
L 203.289389 -216.268604 
L 201.853731 -218.144684 
L 200.418072 -220.115837 
L 198.982414 -222.190101 
L 197.546756 -224.3742 
L 196.111097 -226.673283 
L 194.675439 -229.090686 
L 193.239781 -231.627709 
L 191.804122 -234.283411 
L 190.368464 -237.054444 
L 188.932806 -239.934914 
L 187.497148 -242.916283 
L 186.061489 -245.987308 
L 184.625831 -249.134038 
L 183.190173 -252.339843 
L 181.754514 -255.585506 
L 180.318856 -258.849356 
L 178.883198 -262.107457 
L 177.44754 -265.333837 
L 176.011881 -268.50077 
L 174.576223 -271.579097 
L 173.140565 -274.538578 
L 171.704906 -277.348283 
L 170.269248 -279.977004 
L 168.83359 -282.393683 
L 167.397932 -284.567849 
L 165.962273 -286.47006 
L 164.526615 -288.072336 
L 163.090957 -289.348574 
L 161.655298 -290.274944 
L 160.21964 -290.830248 
L 158.783982 -290.99625 
L 157.348323 -290.757949 
L 155.912665 -290.10381 
L 154.477007 -289.02594 
L 153.041349 -287.520202 
L 151.60569 -285.586269 
L 150.170032 -283.227627 
L 148.734374 -280.451501 
L 147.298715 -277.268739 
L 145.863057 -273.693634 
L 144.427399 -269.743692 
L 142.991741 -265.439363 
L 141.556082 -260.803727 
L 140.120424 -255.862148 
L 138.684766 -250.641905 
L 137.249107 -245.171808 
L 135.813449 -239.481796 
L 134.377791 -233.602546 
L 132.942133 -227.565077 
L 131.506474 -221.400373 
L 130.070816 -215.139026 
L 128.635158 -208.8109 
L 127.199499 -202.444828 
L 125.763841 -196.068346 
L 124.328183 -189.707461 
L 122.892524 -183.386455 
L 121.456866 -177.127738 
L 120.021208 -170.951737 
L 118.58555 -164.876819 
L 117.149891 -158.919265 
L 115.714233 -153.093266 
L 114.278575 -147.410958 
L 112.842916 -141.882488 
L 111.407258 -136.5161 
L 109.9716 -131.318247 
L 108.535942 -126.293711 
L 107.100283 -121.445746 
L 105.664625 -116.776223 
z
" style="stroke: #0000ff"/>
    </defs>
    <g clip-path="url(#pa4343c9e83)">
     <use xlink:href="#m8848459fbf" x="0" y="310.86825" style="fill: #0000ff; fill-opacity: 0.25; stroke: #0000ff"/>
    </g>
   </g>
   <g id="matplotlib.axis_1">
    <g id="xtick_1">
     <g id="line2d_1">
      <defs>
       <path id="m3ea501922a" d="M 0 0 
L 0 3.5 
" style="stroke: #000000; stroke-width: 0.8"/>
      </defs>
      <g>
       <use xlink:href="#m3ea501922a" x="34.240625" y="273.312" style="stroke: #000000; stroke-width: 0.8"/>
      </g>
     </g>
     <g id="text_1">
      <!-- 0 -->
      <g transform="translate(31.059375 287.910437) scale(0.1 -0.1)">
       <defs>
        <path id="DejaVuSans-30" d="M 2034 4250 
Q 1547 4250 1301 3770 
Q 1056 3291 1056 2328 
Q 1056 1369 1301 889 
Q 1547 409 2034 409 
Q 2525 409 2770 889 
Q 3016 1369 3016 2328 
Q 3016 3291 2770 3770 
Q 2525 4250 2034 4250 
z
M 2034 4750 
Q 2819 4750 3233 4129 
Q 3647 3509 3647 2328 
Q 3647 1150 3233 529 
Q 2819 -91 2034 -91 
Q 1250 -91 836 529 
Q 422 1150 422 2328 
Q 422 3509 836 4129 
Q 1250 4750 2034 4750 
z
" transform="scale(0.015625)"/>
       </defs>
       <use xlink:href="#DejaVuSans-30"/>
      </g>
     </g>
    </g>
    <g id="xtick_2">
     <g id="line2d_2">
      <g>
       <use xlink:href="#m3ea501922a" x="153.280625" y="273.312" style="stroke: #000000; stroke-width: 0.8"/>
      </g>
     </g>
     <g id="text_2">
      <!-- 0.1 -->
      <g transform="translate(145.329063 287.910437) scale(0.1 -0.1)">
       <defs>
        <path id="DejaVuSans-2e" d="M 684 794 
L 1344 794 
L 1344 0 
L 684 0 
L 684 794 
z
" transform="scale(0.015625)"/>
        <path id="DejaVuSans-31" d="M 794 531 
L 1825 531 
L 1825 4091 
L 703 3866 
L 703 4441 
L 1819 4666 
L 2450 4666 
L 2450 531 
L 3481 531 
L 3481 0 
L 794 0 
L 794 531 
z
" transform="scale(0.015625)"/>
       </defs>
       <use xlink:href="#DejaVuSans-30"/>
       <use xlink:href="#DejaVuSans-2e" x="63.623047"/>
       <use xlink:href="#DejaVuSans-31" x="95.410156"/>
      </g>
     </g>
    </g>
    <g id="xtick_3">
     <g id="line2d_3">
      <g>
       <use xlink:href="#m3ea501922a" x="272.320625" y="273.312" style="stroke: #000000; stroke-width: 0.8"/>
      </g>
     </g>
     <g id="text_3">
      <!-- 0.2 -->
      <g transform="translate(264.369063 287.910437) scale(0.1 -0.1)">
       <defs>
        <path id="DejaVuSans-32" d="M 1228 531 
L 3431 531 
L 3431 0 
L 469 0 
L 469 531 
Q 828 903 1448 1529 
Q 2069 2156 2228 2338 
Q 2531 2678 2651 2914 
Q 2772 3150 2772 3378 
Q 2772 3750 2511 3984 
Q 2250 4219 1831 4219 
Q 1534 4219 1204 4116 
Q 875 4013 500 3803 
L 500 4441 
Q 881 4594 1212 4672 
Q 1544 4750 1819 4750 
Q 2544 4750 2975 4387 
Q 3406 4025 3406 3419 
Q 3406 3131 3298 2873 
Q 3191 2616 2906 2266 
Q 2828 2175 2409 1742 
Q 1991 1309 1228 531 
z
" transform="scale(0.015625)"/>
       </defs>
       <use xlink:href="#DejaVuSans-30"/>
       <use xlink:href="#DejaVuSans-2e" x="63.623047"/>
       <use xlink:href="#DejaVuSans-32" x="95.410156"/>
      </g>
     </g>
    </g>
    <g id="xtick_4">
     <g id="line2d_4">
      <g>
       <use xlink:href="#m3ea501922a" x="391.360625" y="273.312" style="stroke: #000000; stroke-width: 0.8"/>
      </g>
     </g>
     <g id="text_4">
      <!-- 0.3 -->
      <g transform="translate(383.409063 287.910437) scale(0.1 -0.1)">
       <defs>
        <path id="DejaVuSans-33" d="M 2597 2516 
Q 3050 2419 3304 2112 
Q 3559 1806 3559 1356 
Q 3559 666 3084 287 
Q 2609 -91 1734 -91 
Q 1441 -91 1130 -33 
Q 819 25 488 141 
L 488 750 
Q 750 597 1062 519 
Q 1375 441 1716 441 
Q 2309 441 2620 675 
Q 2931 909 2931 1356 
Q 2931 1769 2642 2001 
Q 2353 2234 1838 2234 
L 1294 2234 
L 1294 2753 
L 1863 2753 
Q 2328 2753 2575 2939 
Q 2822 3125 2822 3475 
Q 2822 3834 2567 4026 
Q 2313 4219 1838 4219 
Q 1578 4219 1281 4162 
Q 984 4106 628 3988 
L 628 4550 
Q 988 4650 1302 4700 
Q 1616 4750 1894 4750 
Q 2613 4750 3031 4423 
Q 3450 4097 3450 3541 
Q 3450 3153 3228 2886 
Q 3006 2619 2597 2516 
z
" transform="scale(0.015625)"/>
       </defs>
       <use xlink:href="#DejaVuSans-30"/>
       <use xlink:href="#DejaVuSans-2e" x="63.623047"/>
       <use xlink:href="#DejaVuSans-33" x="95.410156"/>
      </g>
     </g>
    </g>
    <g id="text_5">
     <!-- Net positive charge per residue -->
     <g transform="translate(134.114688 301.588562) scale(0.1 -0.1)">
      <defs>
       <path id="DejaVuSans-4e" d="M 628 4666 
L 1478 4666 
L 3547 763 
L 3547 4666 
L 4159 4666 
L 4159 0 
L 3309 0 
L 1241 3903 
L 1241 0 
L 628 0 
L 628 4666 
z
" transform="scale(0.015625)"/>
       <path id="DejaVuSans-65" d="M 3597 1894 
L 3597 1613 
L 953 1613 
Q 991 1019 1311 708 
Q 1631 397 2203 397 
Q 2534 397 2845 478 
Q 3156 559 3463 722 
L 3463 178 
Q 3153 47 2828 -22 
Q 2503 -91 2169 -91 
Q 1331 -91 842 396 
Q 353 884 353 1716 
Q 353 2575 817 3079 
Q 1281 3584 2069 3584 
Q 2775 3584 3186 3129 
Q 3597 2675 3597 1894 
z
M 3022 2063 
Q 3016 2534 2758 2815 
Q 2500 3097 2075 3097 
Q 1594 3097 1305 2825 
Q 1016 2553 972 2059 
L 3022 2063 
z
" transform="scale(0.015625)"/>
       <path id="DejaVuSans-74" d="M 1172 4494 
L 1172 3500 
L 2356 3500 
L 2356 3053 
L 1172 3053 
L 1172 1153 
Q 1172 725 1289 603 
Q 1406 481 1766 481 
L 2356 481 
L 2356 0 
L 1766 0 
Q 1100 0 847 248 
Q 594 497 594 1153 
L 594 3053 
L 172 3053 
L 172 3500 
L 594 3500 
L 594 4494 
L 1172 4494 
z
" transform="scale(0.015625)"/>
       <path id="DejaVuSans-20" transform="scale(0.015625)"/>
       <path id="DejaVuSans-70" d="M 1159 525 
L 1159 -1331 
L 581 -1331 
L 581 3500 
L 1159 3500 
L 1159 2969 
Q 1341 3281 1617 3432 
Q 1894 3584 2278 3584 
Q 2916 3584 3314 3078 
Q 3713 2572 3713 1747 
Q 3713 922 3314 415 
Q 2916 -91 2278 -91 
Q 1894 -91 1617 61 
Q 1341 213 1159 525 
z
M 3116 1747 
Q 3116 2381 2855 2742 
Q 2594 3103 2138 3103 
Q 1681 3103 1420 2742 
Q 1159 2381 1159 1747 
Q 1159 1113 1420 752 
Q 1681 391 2138 391 
Q 2594 391 2855 752 
Q 3116 1113 3116 1747 
z
" transform="scale(0.015625)"/>
       <path id="DejaVuSans-6f" d="M 1959 3097 
Q 1497 3097 1228 2736 
Q 959 2375 959 1747 
Q 959 1119 1226 758 
Q 1494 397 1959 397 
Q 2419 397 2687 759 
Q 2956 1122 2956 1747 
Q 2956 2369 2687 2733 
Q 2419 3097 1959 3097 
z
M 1959 3584 
Q 2709 3584 3137 3096 
Q 3566 2609 3566 1747 
Q 3566 888 3137 398 
Q 2709 -91 1959 -91 
Q 1206 -91 779 398 
Q 353 888 353 1747 
Q 353 2609 779 3096 
Q 1206 3584 1959 3584 
z
" transform="scale(0.015625)"/>
       <path id="DejaVuSans-73" d="M 2834 3397 
L 2834 2853 
Q 2591 2978 2328 3040 
Q 2066 3103 1784 3103 
Q 1356 3103 1142 2972 
Q 928 2841 928 2578 
Q 928 2378 1081 2264 
Q 1234 2150 1697 2047 
L 1894 2003 
Q 2506 1872 2764 1633 
Q 3022 1394 3022 966 
Q 3022 478 2636 193 
Q 2250 -91 1575 -91 
Q 1294 -91 989 -36 
Q 684 19 347 128 
L 347 722 
Q 666 556 975 473 
Q 1284 391 1588 391 
Q 1994 391 2212 530 
Q 2431 669 2431 922 
Q 2431 1156 2273 1281 
Q 2116 1406 1581 1522 
L 1381 1569 
Q 847 1681 609 1914 
Q 372 2147 372 2553 
Q 372 3047 722 3315 
Q 1072 3584 1716 3584 
Q 2034 3584 2315 3537 
Q 2597 3491 2834 3397 
z
" transform="scale(0.015625)"/>
       <path id="DejaVuSans-69" d="M 603 3500 
L 1178 3500 
L 1178 0 
L 603 0 
L 603 3500 
z
M 603 4863 
L 1178 4863 
L 1178 4134 
L 603 4134 
L 603 4863 
z
" transform="scale(0.015625)"/>
       <path id="DejaVuSans-76" d="M 191 3500 
L 800 3500 
L 1894 563 
L 2988 3500 
L 3597 3500 
L 2284 0 
L 1503 0 
L 191 3500 
z
" transform="scale(0.015625)"/>
       <path id="DejaVuSans-63" d="M 3122 3366 
L 3122 2828 
Q 2878 2963 2633 3030 
Q 2388 3097 2138 3097 
Q 1578 3097 1268 2742 
Q 959 2388 959 1747 
Q 959 1106 1268 751 
Q 1578 397 2138 397 
Q 2388 397 2633 464 
Q 2878 531 3122 666 
L 3122 134 
Q 2881 22 2623 -34 
Q 2366 -91 2075 -91 
Q 1284 -91 818 406 
Q 353 903 353 1747 
Q 353 2603 823 3093 
Q 1294 3584 2113 3584 
Q 2378 3584 2631 3529 
Q 2884 3475 3122 3366 
z
" transform="scale(0.015625)"/>
       <path id="DejaVuSans-68" d="M 3513 2113 
L 3513 0 
L 2938 0 
L 2938 2094 
Q 2938 2591 2744 2837 
Q 2550 3084 2163 3084 
Q 1697 3084 1428 2787 
Q 1159 2491 1159 1978 
L 1159 0 
L 581 0 
L 581 4863 
L 1159 4863 
L 1159 2956 
Q 1366 3272 1645 3428 
Q 1925 3584 2291 3584 
Q 2894 3584 3203 3211 
Q 3513 2838 3513 2113 
z
" transform="scale(0.015625)"/>
       <path id="DejaVuSans-61" d="M 2194 1759 
Q 1497 1759 1228 1600 
Q 959 1441 959 1056 
Q 959 750 1161 570 
Q 1363 391 1709 391 
Q 2188 391 2477 730 
Q 2766 1069 2766 1631 
L 2766 1759 
L 2194 1759 
z
M 3341 1997 
L 3341 0 
L 2766 0 
L 2766 531 
Q 2569 213 2275 61 
Q 1981 -91 1556 -91 
Q 1019 -91 701 211 
Q 384 513 384 1019 
Q 384 1609 779 1909 
Q 1175 2209 1959 2209 
L 2766 2209 
L 2766 2266 
Q 2766 2663 2505 2880 
Q 2244 3097 1772 3097 
Q 1472 3097 1187 3025 
Q 903 2953 641 2809 
L 641 3341 
Q 956 3463 1253 3523 
Q 1550 3584 1831 3584 
Q 2591 3584 2966 3190 
Q 3341 2797 3341 1997 
z
" transform="scale(0.015625)"/>
       <path id="DejaVuSans-72" d="M 2631 2963 
Q 2534 3019 2420 3045 
Q 2306 3072 2169 3072 
Q 1681 3072 1420 2755 
Q 1159 2438 1159 1844 
L 1159 0 
L 581 0 
L 581 3500 
L 1159 3500 
L 1159 2956 
Q 1341 3275 1631 3429 
Q 1922 3584 2338 3584 
Q 2397 3584 2469 3576 
Q 2541 3569 2628 3553 
L 2631 2963 
z
" transform="scale(0.015625)"/>
       <path id="DejaVuSans-67" d="M 2906 1791 
Q 2906 2416 2648 2759 
Q 2391 3103 1925 3103 
Q 1463 3103 1205 2759 
Q 947 2416 947 1791 
Q 947 1169 1205 825 
Q 1463 481 1925 481 
Q 2391 481 2648 825 
Q 2906 1169 2906 1791 
z
M 3481 434 
Q 3481 -459 3084 -895 
Q 2688 -1331 1869 -1331 
Q 1566 -1331 1297 -1286 
Q 1028 -1241 775 -1147 
L 775 -588 
Q 1028 -725 1275 -790 
Q 1522 -856 1778 -856 
Q 2344 -856 2625 -561 
Q 2906 -266 2906 331 
L 2906 616 
Q 2728 306 2450 153 
Q 2172 0 1784 0 
Q 1141 0 747 490 
Q 353 981 353 1791 
Q 353 2603 747 3093 
Q 1141 3584 1784 3584 
Q 2172 3584 2450 3431 
Q 2728 3278 2906 2969 
L 2906 3500 
L 3481 3500 
L 3481 434 
z
" transform="scale(0.015625)"/>
       <path id="DejaVuSans-64" d="M 2906 2969 
L 2906 4863 
L 3481 4863 
L 3481 0 
L 2906 0 
L 2906 525 
Q 2725 213 2448 61 
Q 2172 -91 1784 -91 
Q 1150 -91 751 415 
Q 353 922 353 1747 
Q 353 2572 751 3078 
Q 1150 3584 1784 3584 
Q 2172 3584 2448 3432 
Q 2725 3281 2906 2969 
z
M 947 1747 
Q 947 1113 1208 752 
Q 1469 391 1925 391 
Q 2381 391 2643 752 
Q 2906 1113 2906 1747 
Q 2906 2381 2643 2742 
Q 2381 3103 1925 3103 
Q 1469 3103 1208 2742 
Q 947 2381 947 1747 
z
" transform="scale(0.015625)"/>
       <path id="DejaVuSans-75" d="M 544 1381 
L 544 3500 
L 1119 3500 
L 1119 1403 
Q 1119 906 1312 657 
Q 1506 409 1894 409 
Q 2359 409 2629 706 
Q 2900 1003 2900 1516 
L 2900 3500 
L 3475 3500 
L 3475 0 
L 2900 0 
L 2900 538 
Q 2691 219 2414 64 
Q 2138 -91 1772 -91 
Q 1169 -91 856 284 
Q 544 659 544 1381 
z
M 1991 3584 
L 1991 3584 
z
" transform="scale(0.015625)"/>
      </defs>
      <use xlink:href="#DejaVuSans-4e"/>
      <use xlink:href="#DejaVuSans-65" x="74.804688"/>
      <use xlink:href="#DejaVuSans-74" x="136.328125"/>
      <use xlink:href="#DejaVuSans-20" x="175.537109"/>
      <use xlink:href="#DejaVuSans-70" x="207.324219"/>
      <use xlink:href="#DejaVuSans-6f" x="270.800781"/>
      <use xlink:href="#DejaVuSans-73" x="331.982422"/>
      <use xlink:href="#DejaVuSans-69" x="384.082031"/>
      <use xlink:href="#DejaVuSans-74" x="411.865234"/>
      <use xlink:href="#DejaVuSans-69" x="451.074219"/>
      <use xlink:href="#DejaVuSans-76" x="478.857422"/>
      <use xlink:href="#DejaVuSans-65" x="538.037109"/>
      <use xlink:href="#DejaVuSans-20" x="599.560547"/>
      <use xlink:href="#DejaVuSans-63" x="631.347656"/>
      <use xlink:href="#DejaVuSans-68" x="686.328125"/>
      <use xlink:href="#DejaVuSans-61" x="749.707031"/>
      <use xlink:href="#DejaVuSans-72" x="810.986328"/>
      <use xlink:href="#DejaVuSans-67" x="850.349609"/>
      <use xlink:href="#DejaVuSans-65" x="913.826172"/>
      <use xlink:href="#DejaVuSans-20" x="975.349609"/>
      <use xlink:href="#DejaVuSans-70" x="1007.136719"/>
      <use xlink:href="#DejaVuSans-65" x="1070.613281"/>
      <use xlink:href="#DejaVuSans-72" x="1132.136719"/>
      <use xlink:href="#DejaVuSans-20" x="1173.25"/>
      <use xlink:href="#DejaVuSans-72" x="1205.037109"/>
      <use xlink:href="#DejaVuSans-65" x="1243.900391"/>
      <use xlink:href="#DejaVuSans-73" x="1305.423828"/>
      <use xlink:href="#DejaVuSans-69" x="1357.523438"/>
      <use xlink:href="#DejaVuSans-64" x="1385.306641"/>
      <use xlink:href="#DejaVuSans-75" x="1448.783203"/>
      <use xlink:href="#DejaVuSans-65" x="1512.162109"/>
     </g>
    </g>
   </g>
   <g id="matplotlib.axis_2">
    <g id="ytick_1">
     <g id="line2d_5">
      <defs>
       <path id="m66badf3840" d="M 0 0 
L -3.5 0 
" style="stroke: #000000; stroke-width: 0.8"/>
      </defs>
      <g>
       <use xlink:href="#m66badf3840" x="34.240625" y="273.312" style="stroke: #000000; stroke-width: 0.8"/>
      </g>
     </g>
     <g id="text_6">
      <!-- 0 -->
      <g transform="translate(20.878125 277.111219) scale(0.1 -0.1)">
       <use xlink:href="#DejaVuSans-30"/>
      </g>
     </g>
    </g>
    <g id="ytick_2">
     <g id="line2d_6">
      <g>
       <use xlink:href="#m66badf3840" x="34.240625" y="242.221759" style="stroke: #000000; stroke-width: 0.8"/>
      </g>
     </g>
     <g id="text_7">
      <!-- 1 -->
      <g transform="translate(20.878125 246.020978) scale(0.1 -0.1)">
       <use xlink:href="#DejaVuSans-31"/>
      </g>
     </g>
    </g>
    <g id="ytick_3">
     <g id="line2d_7">
      <g>
       <use xlink:href="#m66badf3840" x="34.240625" y="211.131519" style="stroke: #000000; stroke-width: 0.8"/>
      </g>
     </g>
     <g id="text_8">
      <!-- 2 -->
      <g transform="translate(20.878125 214.930737) scale(0.1 -0.1)">
       <use xlink:href="#DejaVuSans-32"/>
      </g>
     </g>
    </g>
    <g id="ytick_4">
     <g id="line2d_8">
      <g>
       <use xlink:href="#m66badf3840" x="34.240625" y="180.041278" style="stroke: #000000; stroke-width: 0.8"/>
      </g>
     </g>
     <g id="text_9">
      <!-- 3 -->
      <g transform="translate(20.878125 183.840497) scale(0.1 -0.1)">
       <use xlink:href="#DejaVuSans-33"/>
      </g>
     </g>
    </g>
    <g id="ytick_5">
     <g id="line2d_9">
      <g>
       <use xlink:href="#m66badf3840" x="34.240625" y="148.951037" style="stroke: #000000; stroke-width: 0.8"/>
      </g>
     </g>
     <g id="text_10">
      <!-- 4 -->
      <g transform="translate(20.878125 152.750256) scale(0.1 -0.1)">
       <defs>
        <path id="DejaVuSans-34" d="M 2419 4116 
L 825 1625 
L 2419 1625 
L 2419 4116 
z
M 2253 4666 
L 3047 4666 
L 3047 1625 
L 3713 1625 
L 3713 1100 
L 3047 1100 
L 3047 0 
L 2419 0 
L 2419 1100 
L 313 1100 
L 313 1709 
L 2253 4666 
z
" transform="scale(0.015625)"/>
       </defs>
       <use xlink:href="#DejaVuSans-34"/>
      </g>
     </g>
    </g>
    <g id="ytick_6">
     <g id="line2d_10">
      <g>
       <use xlink:href="#m66badf3840" x="34.240625" y="117.860796" style="stroke: #000000; stroke-width: 0.8"/>
      </g>
     </g>
     <g id="text_11">
      <!-- 5 -->
      <g transform="translate(20.878125 121.660015) scale(0.1 -0.1)">
       <defs>
        <path id="DejaVuSans-35" d="M 691 4666 
L 3169 4666 
L 3169 4134 
L 1269 4134 
L 1269 2991 
Q 1406 3038 1543 3061 
Q 1681 3084 1819 3084 
Q 2600 3084 3056 2656 
Q 3513 2228 3513 1497 
Q 3513 744 3044 326 
Q 2575 -91 1722 -91 
Q 1428 -91 1123 -41 
Q 819 9 494 109 
L 494 744 
Q 775 591 1075 516 
Q 1375 441 1709 441 
Q 2250 441 2565 725 
Q 2881 1009 2881 1497 
Q 2881 1984 2565 2268 
Q 2250 2553 1709 2553 
Q 1456 2553 1204 2497 
Q 953 2441 691 2322 
L 691 4666 
z
" transform="scale(0.015625)"/>
       </defs>
       <use xlink:href="#DejaVuSans-35"/>
      </g>
     </g>
    </g>
    <g id="ytick_7">
     <g id="line2d_11">
      <g>
       <use xlink:href="#m66badf3840" x="34.240625" y="86.770556" style="stroke: #000000; stroke-width: 0.8"/>
      </g>
     </g>
     <g id="text_12">
      <!-- 6 -->
      <g transform="translate(20.878125 90.569774) scale(0.1 -0.1)">
       <defs>
        <path id="DejaVuSans-36" d="M 2113 2584 
Q 1688 2584 1439 2293 
Q 1191 2003 1191 1497 
Q 1191 994 1439 701 
Q 1688 409 2113 409 
Q 2538 409 2786 701 
Q 3034 994 3034 1497 
Q 3034 2003 2786 2293 
Q 2538 2584 2113 2584 
z
M 3366 4563 
L 3366 3988 
Q 3128 4100 2886 4159 
Q 2644 4219 2406 4219 
Q 1781 4219 1451 3797 
Q 1122 3375 1075 2522 
Q 1259 2794 1537 2939 
Q 1816 3084 2150 3084 
Q 2853 3084 3261 2657 
Q 3669 2231 3669 1497 
Q 3669 778 3244 343 
Q 2819 -91 2113 -91 
Q 1303 -91 875 529 
Q 447 1150 447 2328 
Q 447 3434 972 4092 
Q 1497 4750 2381 4750 
Q 2619 4750 2861 4703 
Q 3103 4656 3366 4563 
z
" transform="scale(0.015625)"/>
       </defs>
       <use xlink:href="#DejaVuSans-36"/>
      </g>
     </g>
    </g>
    <g id="ytick_8">
     <g id="line2d_12">
      <g>
       <use xlink:href="#m66badf3840" x="34.240625" y="55.680315" style="stroke: #000000; stroke-width: 0.8"/>
      </g>
     </g>
     <g id="text_13">
      <!-- 7 -->
      <g transform="translate(20.878125 59.479534) scale(0.1 -0.1)">
       <defs>
        <path id="DejaVuSans-37" d="M 525 4666 
L 3525 4666 
L 3525 4397 
L 1831 0 
L 1172 0 
L 2766 4134 
L 525 4134 
L 525 4666 
z
" transform="scale(0.015625)"/>
       </defs>
       <use xlink:href="#DejaVuSans-37"/>
      </g>
     </g>
    </g>
    <g id="ytick_9">
     <g id="line2d_13">
      <g>
       <use xlink:href="#m66badf3840" x="34.240625" y="24.590074" style="stroke: #000000; stroke-width: 0.8"/>
      </g>
     </g>
     <g id="text_14">
      <!-- 8 -->
      <g transform="translate(20.878125 28.389293) scale(0.1 -0.1)">
       <defs>
        <path id="DejaVuSans-38" d="M 2034 2216 
Q 1584 2216 1326 1975 
Q 1069 1734 1069 1313 
Q 1069 891 1326 650 
Q 1584 409 2034 409 
Q 2484 409 2743 651 
Q 3003 894 3003 1313 
Q 3003 1734 2745 1975 
Q 2488 2216 2034 2216 
z
M 1403 2484 
Q 997 2584 770 2862 
Q 544 3141 544 3541 
Q 544 4100 942 4425 
Q 1341 4750 2034 4750 
Q 2731 4750 3128 4425 
Q 3525 4100 3525 3541 
Q 3525 3141 3298 2862 
Q 3072 2584 2669 2484 
Q 3125 2378 3379 2068 
Q 3634 1759 3634 1313 
Q 3634 634 3220 271 
Q 2806 -91 2034 -91 
Q 1263 -91 848 271 
Q 434 634 434 1313 
Q 434 1759 690 2068 
Q 947 2378 1403 2484 
z
M 1172 3481 
Q 1172 3119 1398 2916 
Q 1625 2713 2034 2713 
Q 2441 2713 2670 2916 
Q 2900 3119 2900 3481 
Q 2900 3844 2670 4047 
Q 2441 4250 2034 4250 
Q 1625 4250 1398 4047 
Q 1172 3844 1172 3481 
z
" transform="scale(0.015625)"/>
       </defs>
       <use xlink:href="#DejaVuSans-38"/>
      </g>
     </g>
    </g>
    <g id="text_15">
     <!-- Density -->
     <g transform="translate(14.798438 159.264594) rotate(-90) scale(0.1 -0.1)">
      <defs>
       <path id="DejaVuSans-44" d="M 1259 4147 
L 1259 519 
L 2022 519 
Q 2988 519 3436 956 
Q 3884 1394 3884 2338 
Q 3884 3275 3436 3711 
Q 2988 4147 2022 4147 
L 1259 4147 
z
M 628 4666 
L 1925 4666 
Q 3281 4666 3915 4102 
Q 4550 3538 4550 2338 
Q 4550 1131 3912 565 
Q 3275 0 1925 0 
L 628 0 
L 628 4666 
z
" transform="scale(0.015625)"/>
       <path id="DejaVuSans-6e" d="M 3513 2113 
L 3513 0 
L 2938 0 
L 2938 2094 
Q 2938 2591 2744 2837 
Q 2550 3084 2163 3084 
Q 1697 3084 1428 2787 
Q 1159 2491 1159 1978 
L 1159 0 
L 581 0 
L 581 3500 
L 1159 3500 
L 1159 2956 
Q 1366 3272 1645 3428 
Q 1925 3584 2291 3584 
Q 2894 3584 3203 3211 
Q 3513 2838 3513 2113 
z
" transform="scale(0.015625)"/>
       <path id="DejaVuSans-79" d="M 2059 -325 
Q 1816 -950 1584 -1140 
Q 1353 -1331 966 -1331 
L 506 -1331 
L 506 -850 
L 844 -850 
Q 1081 -850 1212 -737 
Q 1344 -625 1503 -206 
L 1606 56 
L 191 3500 
L 800 3500 
L 1894 763 
L 2988 3500 
L 3597 3500 
L 2059 -325 
z
" transform="scale(0.015625)"/>
      </defs>
      <use xlink:href="#DejaVuSans-44"/>
      <use xlink:href="#DejaVuSans-65" x="77.001953"/>
      <use xlink:href="#DejaVuSans-6e" x="138.525391"/>
      <use xlink:href="#DejaVuSans-73" x="201.904297"/>
      <use xlink:href="#DejaVuSans-69" x="254.003906"/>
      <use xlink:href="#DejaVuSans-74" x="281.787109"/>
      <use xlink:href="#DejaVuSans-79" x="320.996094"/>
     </g>
    </g>
   </g>
   <g id="line2d_14">
    <path d="M 105.664625 273.312 
L 105.664625 7.2 
" clip-path="url(#pa4343c9e83)" style="fill: none; stroke-dasharray: 3.7,1.6; stroke-dashoffset: 0; stroke: #000000; stroke-opacity: 0.5"/>
   </g>
   <g id="patch_3">
    <path d="M 34.240625 273.312 
L 34.240625 7.2 
" style="fill: none; stroke: #000000; stroke-width: 0.8; stroke-linejoin: miter; stroke-linecap: square"/>
   </g>
   <g id="patch_4">
    <path d="M 391.360625 273.312 
L 391.360625 7.2 
" style="fill: none; stroke: #000000; stroke-width: 0.8; stroke-linejoin: miter; stroke-linecap: square"/>
   </g>
   <g id="patch_5">
    <path d="M 34.240625 273.312 
L 391.360625 273.312 
" style="fill: none; stroke: #000000; stroke-width: 0.8; stroke-linejoin: miter; stroke-linecap: square"/>
   </g>
   <g id="patch_6">
    <path d="M 34.240625 7.2 
L 391.360625 7.2 
" style="fill: none; stroke: #000000; stroke-width: 0.8; stroke-linejoin: miter; stroke-linecap: square"/>
   </g>
  </g>
 </g>
 <defs>
  <clipPath id="pa4343c9e83">
   <rect x="34.240625" y="7.2" width="357.12" height="266.112"/>
  </clipPath>
 </defs>
</svg>
